%TF.GenerationSoftware,KiCad,Pcbnew,(6.0.6)*%
%TF.CreationDate,2022-10-28T22:11:27+02:00*%
%TF.ProjectId,nixieboi,6e697869-6562-46f6-992e-6b696361645f,rev?*%
%TF.SameCoordinates,Original*%
%TF.FileFunction,Soldermask,Bot*%
%TF.FilePolarity,Negative*%
%FSLAX46Y46*%
G04 Gerber Fmt 4.6, Leading zero omitted, Abs format (unit mm)*
G04 Created by KiCad (PCBNEW (6.0.6)) date 2022-10-28 22:11:27*
%MOMM*%
%LPD*%
G01*
G04 APERTURE LIST*
G04 Aperture macros list*
%AMRoundRect*
0 Rectangle with rounded corners*
0 $1 Rounding radius*
0 $2 $3 $4 $5 $6 $7 $8 $9 X,Y pos of 4 corners*
0 Add a 4 corners polygon primitive as box body*
4,1,4,$2,$3,$4,$5,$6,$7,$8,$9,$2,$3,0*
0 Add four circle primitives for the rounded corners*
1,1,$1+$1,$2,$3*
1,1,$1+$1,$4,$5*
1,1,$1+$1,$6,$7*
1,1,$1+$1,$8,$9*
0 Add four rect primitives between the rounded corners*
20,1,$1+$1,$2,$3,$4,$5,0*
20,1,$1+$1,$4,$5,$6,$7,0*
20,1,$1+$1,$6,$7,$8,$9,0*
20,1,$1+$1,$8,$9,$2,$3,0*%
G04 Aperture macros list end*
%ADD10C,1.346200*%
%ADD11RoundRect,0.250002X-1.699998X1.699998X-1.699998X-1.699998X1.699998X-1.699998X1.699998X1.699998X0*%
%ADD12C,3.900000*%
%ADD13C,5.700000*%
%ADD14R,1.700000X1.700000*%
%ADD15O,1.700000X1.700000*%
%ADD16C,0.800000*%
G04 APERTURE END LIST*
D10*
%TO.C,N6*%
X129907300Y-32484640D03*
X140092700Y-32484640D03*
X141144260Y-35255780D03*
X140786120Y-38194560D03*
X139104640Y-40632960D03*
X136480820Y-42009640D03*
X133519180Y-42009640D03*
X130895360Y-40632960D03*
X129213880Y-38194560D03*
X128855740Y-35255780D03*
X135000000Y-29812560D03*
X132124720Y-30521220D03*
X137875280Y-30521220D03*
%TD*%
D11*
%TO.C,J1*%
X154000000Y-11100000D03*
D12*
X154000000Y-18900000D03*
%TD*%
D13*
%TO.C,REF\u002A\u002A*%
X0Y0D03*
%TD*%
D10*
%TO.C,N3*%
X61907300Y-32484640D03*
X72092700Y-32484640D03*
X73144260Y-35255780D03*
X72786120Y-38194560D03*
X71104640Y-40632960D03*
X68480820Y-42009640D03*
X65519180Y-42009640D03*
X62895360Y-40632960D03*
X61213880Y-38194560D03*
X60855740Y-35255780D03*
X67000000Y-29812560D03*
X64124720Y-30521220D03*
X69875280Y-30521220D03*
%TD*%
%TO.C,N1*%
X13907300Y-32484640D03*
X24092700Y-32484640D03*
X25144260Y-35255780D03*
X24786120Y-38194560D03*
X23104640Y-40632960D03*
X20480820Y-42009640D03*
X17519180Y-42009640D03*
X14895360Y-40632960D03*
X13213880Y-38194560D03*
X12855740Y-35255780D03*
X19000000Y-29812560D03*
X16124720Y-30521220D03*
X21875280Y-30521220D03*
%TD*%
%TO.C,N4*%
X81907300Y-32484640D03*
X92092700Y-32484640D03*
X93144260Y-35255780D03*
X92786120Y-38194560D03*
X91104640Y-40632960D03*
X88480820Y-42009640D03*
X85519180Y-42009640D03*
X82895360Y-40632960D03*
X81213880Y-38194560D03*
X80855740Y-35255780D03*
X87000000Y-29812560D03*
X84124720Y-30521220D03*
X89875280Y-30521220D03*
%TD*%
%TO.C,N2*%
X33907300Y-32484640D03*
X44092700Y-32484640D03*
X45144260Y-35255780D03*
X44786120Y-38194560D03*
X43104640Y-40632960D03*
X40480820Y-42009640D03*
X37519180Y-42009640D03*
X34895360Y-40632960D03*
X33213880Y-38194560D03*
X32855740Y-35255780D03*
X39000000Y-29812560D03*
X36124720Y-30521220D03*
X41875280Y-30521220D03*
%TD*%
D13*
%TO.C,REF\u002A\u002A*%
X154000000Y0D03*
%TD*%
D10*
%TO.C,N5*%
X109907300Y-32484640D03*
X120092700Y-32484640D03*
X121144260Y-35255780D03*
X120786120Y-38194560D03*
X119104640Y-40632960D03*
X116480820Y-42009640D03*
X113519180Y-42009640D03*
X110895360Y-40632960D03*
X109213880Y-38194560D03*
X108855740Y-35255780D03*
X115000000Y-29812560D03*
X112124720Y-30521220D03*
X117875280Y-30521220D03*
%TD*%
D13*
%TO.C,REF\u002A\u002A*%
X0Y-72000000D03*
%TD*%
%TO.C,REF\u002A\u002A*%
X154000000Y-72000000D03*
%TD*%
D14*
%TO.C,J7*%
X11340000Y-23730000D03*
D15*
X13880000Y-23730000D03*
X16420000Y-23730000D03*
X18960000Y-23730000D03*
X21500000Y-23730000D03*
X24040000Y-23730000D03*
X26580000Y-23730000D03*
X29120000Y-23730000D03*
X31660000Y-23730000D03*
X34200000Y-23730000D03*
X36740000Y-23730000D03*
X39280000Y-23730000D03*
X41820000Y-23730000D03*
X44360000Y-23730000D03*
X46900000Y-23730000D03*
X49440000Y-23730000D03*
X51980000Y-23730000D03*
X54520000Y-23730000D03*
X57060000Y-23730000D03*
%TD*%
D14*
%TO.C,J5*%
X98250000Y-15000000D03*
D15*
X100790000Y-15000000D03*
%TD*%
D14*
%TO.C,J6*%
X11340000Y1670000D03*
D15*
X13880000Y1670000D03*
X16420000Y1670000D03*
X18960000Y1670000D03*
X21500000Y1670000D03*
X24040000Y1670000D03*
X26580000Y1670000D03*
X29120000Y1670000D03*
X31660000Y1670000D03*
X34200000Y1670000D03*
X36740000Y1670000D03*
X39280000Y1670000D03*
X41820000Y1670000D03*
X44360000Y1670000D03*
X46900000Y1670000D03*
X49440000Y1670000D03*
X51980000Y1670000D03*
X54520000Y1670000D03*
X57060000Y1670000D03*
%TD*%
D14*
%TO.C,J2*%
X140250000Y1000000D03*
D15*
X142790000Y1000000D03*
%TD*%
D14*
%TO.C,J4*%
X98250000Y1000000D03*
D15*
X100790000Y1000000D03*
%TD*%
D14*
%TO.C,J8*%
X73200000Y1475000D03*
D15*
X75740000Y1475000D03*
X78280000Y1475000D03*
X80820000Y1475000D03*
%TD*%
D14*
%TO.C,J3*%
X140250000Y-15000000D03*
D15*
X142790000Y-15000000D03*
%TD*%
D16*
X28000000Y-33000000D03*
X28000000Y-50500000D03*
X26000000Y-50500000D03*
X10000000Y-33000000D03*
X24000000Y-50500000D03*
X22000000Y-50500000D03*
X20000000Y-50500000D03*
X18000000Y-50500000D03*
X147000000Y-64600000D03*
X102000000Y-66000000D03*
X135000000Y-64600000D03*
X69000000Y-55900000D03*
X7000000Y-64600000D03*
X7000000Y-53000000D03*
X119000000Y-64600000D03*
X47000000Y-64600000D03*
X105000000Y-55900000D03*
X118000000Y-66000000D03*
X117000000Y-55900000D03*
X141000000Y-55900000D03*
X79000000Y-53000000D03*
X143000000Y-64600000D03*
X115000000Y-64600000D03*
X21000000Y-55900000D03*
X111000000Y-64600000D03*
X93000000Y-55900000D03*
X139000000Y-64600000D03*
X63000000Y-64600000D03*
X67000000Y-64600000D03*
X109000000Y-55900000D03*
X127000000Y-64600000D03*
X81000000Y-55900000D03*
X134000000Y-66000000D03*
X121000000Y-55900000D03*
X103000000Y-53000000D03*
X49000000Y-55900000D03*
X19000000Y-64600000D03*
X86000000Y-66000000D03*
X6000000Y-66000000D03*
X13000000Y-55900000D03*
X11000000Y-64600000D03*
X87000000Y-64600000D03*
X38000000Y-66000000D03*
X43000000Y-64600000D03*
X91000000Y-64600000D03*
X89000000Y-55900000D03*
X134500000Y-6500000D03*
X133000000Y-55900000D03*
X53000000Y-55900000D03*
X107000000Y-64600000D03*
X41000000Y-55900000D03*
X71000000Y-64600000D03*
X39000000Y-64600000D03*
X22000000Y-66000000D03*
X103000000Y-64600000D03*
X97000000Y-55900000D03*
X95000000Y-64600000D03*
X9000000Y-55900000D03*
X145000000Y-55900000D03*
X25000000Y-55900000D03*
X5000000Y-55900000D03*
X51000000Y-64600000D03*
X129000000Y-55900000D03*
X99000000Y-64600000D03*
X101000000Y-55900000D03*
X55000000Y-53000000D03*
X131000000Y-64600000D03*
X127000000Y-53000000D03*
X31000000Y-64600000D03*
X75000000Y-64600000D03*
X73000000Y-55900000D03*
X70000000Y-66000000D03*
X45000000Y-55900000D03*
X54000000Y-66000000D03*
X125000000Y-55900000D03*
X65000000Y-55900000D03*
X37000000Y-55900000D03*
X31000000Y-53000000D03*
X77000000Y-55900000D03*
X27000000Y-64600000D03*
X15000000Y-64600000D03*
X137000000Y-55900000D03*
X85000000Y-55900000D03*
X29000000Y-55900000D03*
X123000000Y-64600000D03*
X83000000Y-64600000D03*
X17000000Y-55900000D03*
X23000000Y-64600000D03*
X79000000Y-64600000D03*
X57000000Y-55900000D03*
X33000000Y-55900000D03*
X113000000Y-55900000D03*
X59000000Y-64600000D03*
X35000000Y-64600000D03*
X55000000Y-64600000D03*
X61000000Y-55900000D03*
X37000000Y-45500000D03*
X7000000Y-45500000D03*
X53000000Y-36000000D03*
X101000000Y-36000000D03*
X69000000Y-38000000D03*
X9000000Y-45500000D03*
X11000000Y-45500000D03*
X31000000Y-45500000D03*
X107000000Y-45500000D03*
X87000000Y-45500000D03*
X113000000Y-45500000D03*
X77000000Y-36000000D03*
X135000000Y-45500000D03*
X81000000Y-45500000D03*
X103000000Y-45500000D03*
X17000000Y-45500000D03*
X85000000Y-45500000D03*
X88500000Y-37000000D03*
X125000000Y-36000000D03*
X133000000Y-45500000D03*
X105000000Y-45500000D03*
X59000000Y-45500000D03*
X29000000Y-36000000D03*
X62000000Y-45500000D03*
X110000000Y-45500000D03*
X83000000Y-45500000D03*
X14000000Y-45500000D03*
X35000000Y-45500000D03*
X39000000Y-45500000D03*
X65000000Y-45500000D03*
X136500000Y-37000000D03*
X127000000Y-45500000D03*
X21000000Y-38000000D03*
X57000000Y-45500000D03*
X131000000Y-45500000D03*
X79000000Y-45500000D03*
X33000000Y-45500000D03*
X129000000Y-45500000D03*
X117000000Y-38000000D03*
X40500000Y-37000000D03*
X55000000Y-45500000D03*
X48000000Y-50500000D03*
X46000000Y-50500000D03*
X44000000Y-50500000D03*
X42000000Y-50500000D03*
X72000000Y-50500000D03*
X70000000Y-50500000D03*
X68000000Y-50500000D03*
X66000000Y-50500000D03*
X96000000Y-50500000D03*
X94000000Y-50500000D03*
X92000000Y-50500000D03*
X90000000Y-50500000D03*
X120000000Y-50500000D03*
X118000000Y-50500000D03*
X116000000Y-50500000D03*
X114000000Y-50500000D03*
X144000000Y-50500000D03*
X142000000Y-50500000D03*
X140000000Y-50500000D03*
X138000000Y-50500000D03*
X22000000Y-54500000D03*
X5000000Y-53000000D03*
X16000000Y-61000000D03*
X12000000Y-61000000D03*
X20000000Y-61000000D03*
X18000000Y-54500000D03*
X14000000Y-54500000D03*
X26000000Y-54500000D03*
X8000000Y-61000000D03*
X24000000Y-61000000D03*
X10000000Y-54500000D03*
X28000000Y-61000000D03*
X40000000Y-61000000D03*
X44000000Y-61000000D03*
X48000000Y-61000000D03*
X32000000Y-61000000D03*
X36000000Y-61000000D03*
X52000000Y-61000000D03*
X34000000Y-54500000D03*
X38000000Y-54500000D03*
X46000000Y-54500000D03*
X29000000Y-53000000D03*
X42000000Y-54500000D03*
X50000000Y-54500000D03*
X74000000Y-54500000D03*
X60000000Y-61000000D03*
X66000000Y-54500000D03*
X62000000Y-54500000D03*
X53000000Y-53000000D03*
X72000000Y-61000000D03*
X70000000Y-54500000D03*
X58000000Y-54500000D03*
X64000000Y-61000000D03*
X76000000Y-61000000D03*
X56000000Y-61000000D03*
X68000000Y-61000000D03*
X80000000Y-61000000D03*
X92000000Y-61000000D03*
X94000000Y-54500000D03*
X90000000Y-54500000D03*
X100000000Y-61000000D03*
X84000000Y-61000000D03*
X86000000Y-54500000D03*
X96000000Y-61000000D03*
X82000000Y-54500000D03*
X88000000Y-61000000D03*
X98000000Y-54500000D03*
X77000000Y-53000000D03*
X124000000Y-61000000D03*
X106000000Y-54500000D03*
X120000000Y-61000000D03*
X114000000Y-54500000D03*
X110000000Y-54500000D03*
X116000000Y-61000000D03*
X118000000Y-54500000D03*
X112000000Y-61000000D03*
X104000000Y-61000000D03*
X108000000Y-61000000D03*
X101000000Y-53000000D03*
X122000000Y-54500000D03*
X130000000Y-54500000D03*
X136000000Y-61000000D03*
X128000000Y-61000000D03*
X132000000Y-61000000D03*
X142000000Y-54500000D03*
X140000000Y-61000000D03*
X138000000Y-54500000D03*
X134000000Y-54500000D03*
X144000000Y-61000000D03*
X125000000Y-53000000D03*
X146000000Y-54500000D03*
X148000000Y-61000000D03*
X50000000Y-50500000D03*
X30000000Y-33000000D03*
X48000000Y-33000000D03*
X52000000Y-50500000D03*
X74000000Y-50500000D03*
X58000000Y-33000000D03*
X76000000Y-50500000D03*
X76000000Y-33000000D03*
X78000000Y-33000000D03*
X98000000Y-50500000D03*
X96000000Y-33000000D03*
X100000000Y-50500000D03*
X106000000Y-33000000D03*
X122000000Y-50500000D03*
X124000000Y-50500000D03*
X124000000Y-33000000D03*
X126000000Y-33000000D03*
X146000000Y-50500000D03*
X148000000Y-50500000D03*
X144000000Y-33000000D03*
X27087000Y-69930000D03*
X18072000Y-69928050D03*
X32167000Y-71327000D03*
X64167000Y-71327000D03*
X96167000Y-71327000D03*
X80167000Y-71327000D03*
X16167000Y-71327000D03*
X144167000Y-71327000D03*
X112167000Y-71327000D03*
X48167000Y-71327000D03*
X128167000Y-71327000D03*
X126897000Y-69930000D03*
X78897000Y-69930000D03*
X142897000Y-69930000D03*
X110897000Y-69930000D03*
X62897000Y-69930000D03*
X46897000Y-69930000D03*
X14897000Y-69930000D03*
X30897000Y-69930000D03*
X94897000Y-69930000D03*
X11087000Y-69930000D03*
X34072000Y-69928050D03*
X43087000Y-69930000D03*
X50072000Y-69928050D03*
X59087000Y-69930000D03*
X75087000Y-69930000D03*
X66072000Y-69928050D03*
X82072000Y-69928050D03*
X91087000Y-69930000D03*
X107087000Y-69930000D03*
X98072000Y-69928050D03*
X114072000Y-69928050D03*
X123087000Y-69930000D03*
X130072000Y-69928050D03*
X139087000Y-69930000D03*
X39000000Y-37000000D03*
X67000000Y-37000000D03*
X87000000Y-37000000D03*
X115000000Y-37000000D03*
X135000000Y-37000000D03*
X19000000Y-37000000D03*
X13627000Y-71835000D03*
X109627000Y-71835000D03*
X93627000Y-71835000D03*
X45627000Y-71835000D03*
X29627000Y-71835000D03*
X77627000Y-71835000D03*
X61627000Y-71835000D03*
X125627000Y-71835000D03*
X141627000Y-71835000D03*
X92349000Y-70890500D03*
X124349000Y-70890500D03*
X12349000Y-70890500D03*
X44349000Y-70890500D03*
X76349000Y-70890500D03*
X108349000Y-70890500D03*
X28349000Y-70890500D03*
X60349000Y-70890500D03*
X140349000Y-70890500D03*
M02*
