%TF.GenerationSoftware,KiCad,Pcbnew,(6.0.6)*%
%TF.CreationDate,2022-10-28T22:11:27+02:00*%
%TF.ProjectId,nixieboi,6e697869-6562-46f6-992e-6b696361645f,rev?*%
%TF.SameCoordinates,Original*%
%TF.FileFunction,Legend,Bot*%
%TF.FilePolarity,Positive*%
%FSLAX46Y46*%
G04 Gerber Fmt 4.6, Leading zero omitted, Abs format (unit mm)*
G04 Created by KiCad (PCBNEW (6.0.6)) date 2022-10-28 22:11:27*
%MOMM*%
%LPD*%
G01*
G04 APERTURE LIST*
G04 Aperture macros list*
%AMRoundRect*
0 Rectangle with rounded corners*
0 $1 Rounding radius*
0 $2 $3 $4 $5 $6 $7 $8 $9 X,Y pos of 4 corners*
0 Add a 4 corners polygon primitive as box body*
4,1,4,$2,$3,$4,$5,$6,$7,$8,$9,$2,$3,0*
0 Add four circle primitives for the rounded corners*
1,1,$1+$1,$2,$3*
1,1,$1+$1,$4,$5*
1,1,$1+$1,$6,$7*
1,1,$1+$1,$8,$9*
0 Add four rect primitives between the rounded corners*
20,1,$1+$1,$2,$3,$4,$5,0*
20,1,$1+$1,$4,$5,$6,$7,0*
20,1,$1+$1,$6,$7,$8,$9,0*
20,1,$1+$1,$8,$9,$2,$3,0*%
G04 Aperture macros list end*
%ADD10C,0.150000*%
%ADD11C,0.500000*%
%ADD12C,0.120000*%
%ADD13C,1.346200*%
%ADD14RoundRect,0.250002X-1.699998X1.699998X-1.699998X-1.699998X1.699998X-1.699998X1.699998X1.699998X0*%
%ADD15C,3.900000*%
%ADD16C,5.700000*%
%ADD17R,1.700000X1.700000*%
%ADD18O,1.700000X1.700000*%
%ADD19C,0.800000*%
G04 APERTURE END LIST*
D10*
X10000000Y-2000000D02*
X4000000Y-2000000D01*
X58390000Y3000000D02*
X10000000Y3000000D01*
X145500000Y-14500000D02*
X145500000Y500000D01*
X65500000Y-35000000D02*
X65500000Y2000000D01*
X98000000Y-17000000D02*
X143000000Y-17000000D01*
X88500000Y-35000000D02*
X87500000Y-36000000D01*
X10010000Y-25060000D02*
X58390000Y-25060000D01*
X66500000Y3000000D02*
X87500000Y3000000D01*
X4000000Y-2000000D02*
X4000000Y-20000000D01*
X143000000Y-17000000D02*
G75*
G03*
X145500000Y-14500000I0J2500000D01*
G01*
X58390000Y-25060000D02*
X58390000Y3000000D01*
X87500000Y3000000D02*
X88500000Y2000000D01*
X4000000Y-20000000D02*
X10010000Y-20000000D01*
X95500000Y335000D02*
X95500000Y-14500000D01*
X87500000Y-36000000D02*
X66500000Y-36000000D01*
X65500000Y2000000D02*
X66500000Y3000000D01*
X143000000Y3000000D02*
X98000000Y3005439D01*
X66500000Y-36000000D02*
X65500000Y-35000000D01*
X88500000Y2000000D02*
X88500000Y-35000000D01*
X10010000Y-20000000D02*
X10010000Y-25060000D01*
X98000000Y3005439D02*
G75*
G03*
X95500000Y335000I0J-2505439D01*
G01*
X145500000Y500000D02*
G75*
G03*
X143000000Y3000000I-2500000J0D01*
G01*
X95500000Y-14500000D02*
G75*
G03*
X98000000Y-17000000I2500000J0D01*
G01*
X10000000Y3000000D02*
X10000000Y-2000000D01*
D11*
X78714285Y-17857142D02*
X79714285Y-16428571D01*
X80428571Y-17857142D02*
X80428571Y-14857142D01*
X79285714Y-14857142D01*
X79000000Y-15000000D01*
X78857142Y-15142857D01*
X78714285Y-15428571D01*
X78714285Y-15857142D01*
X78857142Y-16142857D01*
X79000000Y-16285714D01*
X79285714Y-16428571D01*
X80428571Y-16428571D01*
X77857142Y-14857142D02*
X76142857Y-14857142D01*
X77000000Y-17857142D02*
X77000000Y-14857142D01*
X73428571Y-17571428D02*
X73571428Y-17714285D01*
X74000000Y-17857142D01*
X74285714Y-17857142D01*
X74714285Y-17714285D01*
X75000000Y-17428571D01*
X75142857Y-17142857D01*
X75285714Y-16571428D01*
X75285714Y-16142857D01*
X75142857Y-15571428D01*
X75000000Y-15285714D01*
X74714285Y-15000000D01*
X74285714Y-14857142D01*
X74000000Y-14857142D01*
X73571428Y-15000000D01*
X73428571Y-15142857D01*
X124285714Y-8357142D02*
X124285714Y-5357142D01*
X123142857Y-5357142D01*
X122857142Y-5500000D01*
X122714285Y-5642857D01*
X122571428Y-5928571D01*
X122571428Y-6357142D01*
X122714285Y-6642857D01*
X122857142Y-6785714D01*
X123142857Y-6928571D01*
X124285714Y-6928571D01*
X121428571Y-8214285D02*
X121000000Y-8357142D01*
X120285714Y-8357142D01*
X120000000Y-8214285D01*
X119857142Y-8071428D01*
X119714285Y-7785714D01*
X119714285Y-7500000D01*
X119857142Y-7214285D01*
X120000000Y-7071428D01*
X120285714Y-6928571D01*
X120857142Y-6785714D01*
X121142857Y-6642857D01*
X121285714Y-6500000D01*
X121428571Y-6214285D01*
X121428571Y-5928571D01*
X121285714Y-5642857D01*
X121142857Y-5500000D01*
X120857142Y-5357142D01*
X120142857Y-5357142D01*
X119714285Y-5500000D01*
X118428571Y-5357142D02*
X118428571Y-7785714D01*
X118285714Y-8071428D01*
X118142857Y-8214285D01*
X117857142Y-8357142D01*
X117285714Y-8357142D01*
X117000000Y-8214285D01*
X116857142Y-8071428D01*
X116714285Y-7785714D01*
X116714285Y-5357142D01*
X40928571Y-10785714D02*
X39928571Y-10785714D01*
X39500000Y-12357142D02*
X40928571Y-12357142D01*
X40928571Y-9357142D01*
X39500000Y-9357142D01*
X38357142Y-12214285D02*
X37928571Y-12357142D01*
X37214285Y-12357142D01*
X36928571Y-12214285D01*
X36785714Y-12071428D01*
X36642857Y-11785714D01*
X36642857Y-11500000D01*
X36785714Y-11214285D01*
X36928571Y-11071428D01*
X37214285Y-10928571D01*
X37785714Y-10785714D01*
X38071428Y-10642857D01*
X38214285Y-10500000D01*
X38357142Y-10214285D01*
X38357142Y-9928571D01*
X38214285Y-9642857D01*
X38071428Y-9500000D01*
X37785714Y-9357142D01*
X37071428Y-9357142D01*
X36642857Y-9500000D01*
X35357142Y-12357142D02*
X35357142Y-9357142D01*
X34214285Y-9357142D01*
X33928571Y-9500000D01*
X33785714Y-9642857D01*
X33642857Y-9928571D01*
X33642857Y-10357142D01*
X33785714Y-10642857D01*
X33928571Y-10785714D01*
X34214285Y-10928571D01*
X35357142Y-10928571D01*
X32642857Y-9357142D02*
X30785714Y-9357142D01*
X31785714Y-10500000D01*
X31357142Y-10500000D01*
X31071428Y-10642857D01*
X30928571Y-10785714D01*
X30785714Y-11071428D01*
X30785714Y-11785714D01*
X30928571Y-12071428D01*
X31071428Y-12214285D01*
X31357142Y-12357142D01*
X32214285Y-12357142D01*
X32500000Y-12214285D01*
X32642857Y-12071428D01*
X29642857Y-9642857D02*
X29500000Y-9500000D01*
X29214285Y-9357142D01*
X28500000Y-9357142D01*
X28214285Y-9500000D01*
X28071428Y-9642857D01*
X27928571Y-9928571D01*
X27928571Y-10214285D01*
X28071428Y-10642857D01*
X29785714Y-12357142D01*
X27928571Y-12357142D01*
D10*
%TO.C,J7*%
X11833333Y-20952380D02*
X11833333Y-21666666D01*
X11880952Y-21809523D01*
X11976190Y-21904761D01*
X12119047Y-21952380D01*
X12214285Y-21952380D01*
X11452380Y-20952380D02*
X10785714Y-20952380D01*
X11214285Y-21952380D01*
%TO.C,J5*%
X99833333Y-11952380D02*
X99833333Y-12666666D01*
X99880952Y-12809523D01*
X99976190Y-12904761D01*
X100119047Y-12952380D01*
X100214285Y-12952380D01*
X98880952Y-11952380D02*
X99357142Y-11952380D01*
X99404761Y-12428571D01*
X99357142Y-12380952D01*
X99261904Y-12333333D01*
X99023809Y-12333333D01*
X98928571Y-12380952D01*
X98880952Y-12428571D01*
X98833333Y-12523809D01*
X98833333Y-12761904D01*
X98880952Y-12857142D01*
X98928571Y-12904761D01*
X99023809Y-12952380D01*
X99261904Y-12952380D01*
X99357142Y-12904761D01*
X99404761Y-12857142D01*
%TO.C,J6*%
X11833333Y-452380D02*
X11833333Y-1166666D01*
X11880952Y-1309523D01*
X11976190Y-1404761D01*
X12119047Y-1452380D01*
X12214285Y-1452380D01*
X10928571Y-452380D02*
X11119047Y-452380D01*
X11214285Y-500000D01*
X11261904Y-547619D01*
X11357142Y-690476D01*
X11404761Y-880952D01*
X11404761Y-1261904D01*
X11357142Y-1357142D01*
X11309523Y-1404761D01*
X11214285Y-1452380D01*
X11023809Y-1452380D01*
X10928571Y-1404761D01*
X10880952Y-1357142D01*
X10833333Y-1261904D01*
X10833333Y-1023809D01*
X10880952Y-928571D01*
X10928571Y-880952D01*
X11023809Y-833333D01*
X11214285Y-833333D01*
X11309523Y-880952D01*
X11357142Y-928571D01*
X11404761Y-1023809D01*
%TO.C,J2*%
X141833333Y-952380D02*
X141833333Y-1666666D01*
X141880952Y-1809523D01*
X141976190Y-1904761D01*
X142119047Y-1952380D01*
X142214285Y-1952380D01*
X141404761Y-1047619D02*
X141357142Y-1000000D01*
X141261904Y-952380D01*
X141023809Y-952380D01*
X140928571Y-1000000D01*
X140880952Y-1047619D01*
X140833333Y-1142857D01*
X140833333Y-1238095D01*
X140880952Y-1380952D01*
X141452380Y-1952380D01*
X140833333Y-1952380D01*
%TO.C,J4*%
X99833333Y-952380D02*
X99833333Y-1666666D01*
X99880952Y-1809523D01*
X99976190Y-1904761D01*
X100119047Y-1952380D01*
X100214285Y-1952380D01*
X98928571Y-1285714D02*
X98928571Y-1952380D01*
X99166666Y-904761D02*
X99404761Y-1619047D01*
X98785714Y-1619047D01*
%TO.C,J8*%
X70833333Y2047620D02*
X70833333Y1333334D01*
X70880952Y1190477D01*
X70976190Y1095239D01*
X71119047Y1047620D01*
X71214285Y1047620D01*
X70214285Y1619048D02*
X70309523Y1666667D01*
X70357142Y1714286D01*
X70404761Y1809524D01*
X70404761Y1857143D01*
X70357142Y1952381D01*
X70309523Y2000000D01*
X70214285Y2047620D01*
X70023809Y2047620D01*
X69928571Y2000000D01*
X69880952Y1952381D01*
X69833333Y1857143D01*
X69833333Y1809524D01*
X69880952Y1714286D01*
X69928571Y1666667D01*
X70023809Y1619048D01*
X70214285Y1619048D01*
X70309523Y1571429D01*
X70357142Y1523810D01*
X70404761Y1428572D01*
X70404761Y1238096D01*
X70357142Y1142858D01*
X70309523Y1095239D01*
X70214285Y1047620D01*
X70023809Y1047620D01*
X69928571Y1095239D01*
X69880952Y1142858D01*
X69833333Y1238096D01*
X69833333Y1428572D01*
X69880952Y1523810D01*
X69928571Y1571429D01*
X70023809Y1619048D01*
%TO.C,J3*%
X141833333Y-11952380D02*
X141833333Y-12666666D01*
X141880952Y-12809523D01*
X141976190Y-12904761D01*
X142119047Y-12952380D01*
X142214285Y-12952380D01*
X141452380Y-11952380D02*
X140833333Y-11952380D01*
X141166666Y-12333333D01*
X141023809Y-12333333D01*
X140928571Y-12380952D01*
X140880952Y-12428571D01*
X140833333Y-12523809D01*
X140833333Y-12761904D01*
X140880952Y-12857142D01*
X140928571Y-12904761D01*
X141023809Y-12952380D01*
X141309523Y-12952380D01*
X141404761Y-12904761D01*
X141452380Y-12857142D01*
D12*
%TO.C,J7*%
X58390000Y-22400000D02*
X58390000Y-25060000D01*
X12610000Y-25060000D02*
X58390000Y-25060000D01*
X10010000Y-23730000D02*
X10010000Y-25060000D01*
X10010000Y-25060000D02*
X11340000Y-25060000D01*
X12610000Y-22400000D02*
X58390000Y-22400000D01*
X12610000Y-22400000D02*
X12610000Y-25060000D01*
%TO.C,J5*%
X99520000Y-16330000D02*
X102120000Y-16330000D01*
X99520000Y-13670000D02*
X99520000Y-16330000D01*
X96920000Y-16330000D02*
X98250000Y-16330000D01*
X96920000Y-15000000D02*
X96920000Y-16330000D01*
X99520000Y-13670000D02*
X102120000Y-13670000D01*
X102120000Y-13670000D02*
X102120000Y-16330000D01*
%TO.C,J6*%
X12610000Y340000D02*
X58390000Y340000D01*
X10010000Y340000D02*
X11340000Y340000D01*
X58390000Y3000000D02*
X58390000Y340000D01*
X12610000Y3000000D02*
X12610000Y340000D01*
X12610000Y3000000D02*
X58390000Y3000000D01*
X10010000Y1670000D02*
X10010000Y340000D01*
%TO.C,J2*%
X144120000Y2330000D02*
X144120000Y-330000D01*
X141520000Y-330000D02*
X144120000Y-330000D01*
X141520000Y2330000D02*
X144120000Y2330000D01*
X138920000Y1000000D02*
X138920000Y-330000D01*
X138920000Y-330000D02*
X140250000Y-330000D01*
X141520000Y2330000D02*
X141520000Y-330000D01*
%TO.C,J4*%
X96920000Y1000000D02*
X96920000Y-330000D01*
X99520000Y2330000D02*
X102120000Y2330000D01*
X99520000Y2330000D02*
X99520000Y-330000D01*
X102120000Y2330000D02*
X102120000Y-330000D01*
X96920000Y-330000D02*
X98250000Y-330000D01*
X99520000Y-330000D02*
X102120000Y-330000D01*
%TO.C,J8*%
X74470000Y145000D02*
X82150000Y145000D01*
X74470000Y2805000D02*
X74470000Y145000D01*
X82150000Y2805000D02*
X82150000Y145000D01*
X74470000Y2805000D02*
X82150000Y2805000D01*
X71870000Y1475000D02*
X71870000Y145000D01*
X71870000Y145000D02*
X73200000Y145000D01*
%TO.C,J3*%
X144120000Y-13670000D02*
X144120000Y-16330000D01*
X138920000Y-15000000D02*
X138920000Y-16330000D01*
X141520000Y-13670000D02*
X141520000Y-16330000D01*
X141520000Y-13670000D02*
X144120000Y-13670000D01*
X141520000Y-16330000D02*
X144120000Y-16330000D01*
X138920000Y-16330000D02*
X140250000Y-16330000D01*
%TD*%
%LPC*%
D13*
%TO.C,N6*%
X129907300Y-32484640D03*
X140092700Y-32484640D03*
X141144260Y-35255780D03*
X140786120Y-38194560D03*
X139104640Y-40632960D03*
X136480820Y-42009640D03*
X133519180Y-42009640D03*
X130895360Y-40632960D03*
X129213880Y-38194560D03*
X128855740Y-35255780D03*
X135000000Y-29812560D03*
X132124720Y-30521220D03*
X137875280Y-30521220D03*
%TD*%
D14*
%TO.C,J1*%
X154000000Y-11100000D03*
D15*
X154000000Y-18900000D03*
%TD*%
D16*
%TO.C,REF\u002A\u002A*%
X0Y0D03*
%TD*%
D13*
%TO.C,N3*%
X61907300Y-32484640D03*
X72092700Y-32484640D03*
X73144260Y-35255780D03*
X72786120Y-38194560D03*
X71104640Y-40632960D03*
X68480820Y-42009640D03*
X65519180Y-42009640D03*
X62895360Y-40632960D03*
X61213880Y-38194560D03*
X60855740Y-35255780D03*
X67000000Y-29812560D03*
X64124720Y-30521220D03*
X69875280Y-30521220D03*
%TD*%
%TO.C,N1*%
X13907300Y-32484640D03*
X24092700Y-32484640D03*
X25144260Y-35255780D03*
X24786120Y-38194560D03*
X23104640Y-40632960D03*
X20480820Y-42009640D03*
X17519180Y-42009640D03*
X14895360Y-40632960D03*
X13213880Y-38194560D03*
X12855740Y-35255780D03*
X19000000Y-29812560D03*
X16124720Y-30521220D03*
X21875280Y-30521220D03*
%TD*%
%TO.C,N4*%
X81907300Y-32484640D03*
X92092700Y-32484640D03*
X93144260Y-35255780D03*
X92786120Y-38194560D03*
X91104640Y-40632960D03*
X88480820Y-42009640D03*
X85519180Y-42009640D03*
X82895360Y-40632960D03*
X81213880Y-38194560D03*
X80855740Y-35255780D03*
X87000000Y-29812560D03*
X84124720Y-30521220D03*
X89875280Y-30521220D03*
%TD*%
%TO.C,N2*%
X33907300Y-32484640D03*
X44092700Y-32484640D03*
X45144260Y-35255780D03*
X44786120Y-38194560D03*
X43104640Y-40632960D03*
X40480820Y-42009640D03*
X37519180Y-42009640D03*
X34895360Y-40632960D03*
X33213880Y-38194560D03*
X32855740Y-35255780D03*
X39000000Y-29812560D03*
X36124720Y-30521220D03*
X41875280Y-30521220D03*
%TD*%
D16*
%TO.C,REF\u002A\u002A*%
X154000000Y0D03*
%TD*%
D13*
%TO.C,N5*%
X109907300Y-32484640D03*
X120092700Y-32484640D03*
X121144260Y-35255780D03*
X120786120Y-38194560D03*
X119104640Y-40632960D03*
X116480820Y-42009640D03*
X113519180Y-42009640D03*
X110895360Y-40632960D03*
X109213880Y-38194560D03*
X108855740Y-35255780D03*
X115000000Y-29812560D03*
X112124720Y-30521220D03*
X117875280Y-30521220D03*
%TD*%
D16*
%TO.C,REF\u002A\u002A*%
X0Y-72000000D03*
%TD*%
%TO.C,REF\u002A\u002A*%
X154000000Y-72000000D03*
%TD*%
D17*
%TO.C,J7*%
X11340000Y-23730000D03*
D18*
X13880000Y-23730000D03*
X16420000Y-23730000D03*
X18960000Y-23730000D03*
X21500000Y-23730000D03*
X24040000Y-23730000D03*
X26580000Y-23730000D03*
X29120000Y-23730000D03*
X31660000Y-23730000D03*
X34200000Y-23730000D03*
X36740000Y-23730000D03*
X39280000Y-23730000D03*
X41820000Y-23730000D03*
X44360000Y-23730000D03*
X46900000Y-23730000D03*
X49440000Y-23730000D03*
X51980000Y-23730000D03*
X54520000Y-23730000D03*
X57060000Y-23730000D03*
%TD*%
D17*
%TO.C,J5*%
X98250000Y-15000000D03*
D18*
X100790000Y-15000000D03*
%TD*%
D17*
%TO.C,J6*%
X11340000Y1670000D03*
D18*
X13880000Y1670000D03*
X16420000Y1670000D03*
X18960000Y1670000D03*
X21500000Y1670000D03*
X24040000Y1670000D03*
X26580000Y1670000D03*
X29120000Y1670000D03*
X31660000Y1670000D03*
X34200000Y1670000D03*
X36740000Y1670000D03*
X39280000Y1670000D03*
X41820000Y1670000D03*
X44360000Y1670000D03*
X46900000Y1670000D03*
X49440000Y1670000D03*
X51980000Y1670000D03*
X54520000Y1670000D03*
X57060000Y1670000D03*
%TD*%
D17*
%TO.C,J2*%
X140250000Y1000000D03*
D18*
X142790000Y1000000D03*
%TD*%
D17*
%TO.C,J4*%
X98250000Y1000000D03*
D18*
X100790000Y1000000D03*
%TD*%
D17*
%TO.C,J8*%
X73200000Y1475000D03*
D18*
X75740000Y1475000D03*
X78280000Y1475000D03*
X80820000Y1475000D03*
%TD*%
D17*
%TO.C,J3*%
X140250000Y-15000000D03*
D18*
X142790000Y-15000000D03*
%TD*%
D19*
X28000000Y-33000000D03*
X28000000Y-50500000D03*
X26000000Y-50500000D03*
X10000000Y-33000000D03*
X24000000Y-50500000D03*
X22000000Y-50500000D03*
X20000000Y-50500000D03*
X18000000Y-50500000D03*
X147000000Y-64600000D03*
X102000000Y-66000000D03*
X135000000Y-64600000D03*
X69000000Y-55900000D03*
X7000000Y-64600000D03*
X7000000Y-53000000D03*
X119000000Y-64600000D03*
X47000000Y-64600000D03*
X105000000Y-55900000D03*
X118000000Y-66000000D03*
X117000000Y-55900000D03*
X141000000Y-55900000D03*
X79000000Y-53000000D03*
X143000000Y-64600000D03*
X115000000Y-64600000D03*
X21000000Y-55900000D03*
X111000000Y-64600000D03*
X93000000Y-55900000D03*
X139000000Y-64600000D03*
X63000000Y-64600000D03*
X67000000Y-64600000D03*
X109000000Y-55900000D03*
X127000000Y-64600000D03*
X81000000Y-55900000D03*
X134000000Y-66000000D03*
X121000000Y-55900000D03*
X103000000Y-53000000D03*
X49000000Y-55900000D03*
X19000000Y-64600000D03*
X86000000Y-66000000D03*
X6000000Y-66000000D03*
X13000000Y-55900000D03*
X11000000Y-64600000D03*
X87000000Y-64600000D03*
X38000000Y-66000000D03*
X43000000Y-64600000D03*
X91000000Y-64600000D03*
X89000000Y-55900000D03*
X134500000Y-6500000D03*
X133000000Y-55900000D03*
X53000000Y-55900000D03*
X107000000Y-64600000D03*
X41000000Y-55900000D03*
X71000000Y-64600000D03*
X39000000Y-64600000D03*
X22000000Y-66000000D03*
X103000000Y-64600000D03*
X97000000Y-55900000D03*
X95000000Y-64600000D03*
X9000000Y-55900000D03*
X145000000Y-55900000D03*
X25000000Y-55900000D03*
X5000000Y-55900000D03*
X51000000Y-64600000D03*
X129000000Y-55900000D03*
X99000000Y-64600000D03*
X101000000Y-55900000D03*
X55000000Y-53000000D03*
X131000000Y-64600000D03*
X127000000Y-53000000D03*
X31000000Y-64600000D03*
X75000000Y-64600000D03*
X73000000Y-55900000D03*
X70000000Y-66000000D03*
X45000000Y-55900000D03*
X54000000Y-66000000D03*
X125000000Y-55900000D03*
X65000000Y-55900000D03*
X37000000Y-55900000D03*
X31000000Y-53000000D03*
X77000000Y-55900000D03*
X27000000Y-64600000D03*
X15000000Y-64600000D03*
X137000000Y-55900000D03*
X85000000Y-55900000D03*
X29000000Y-55900000D03*
X123000000Y-64600000D03*
X83000000Y-64600000D03*
X17000000Y-55900000D03*
X23000000Y-64600000D03*
X79000000Y-64600000D03*
X57000000Y-55900000D03*
X33000000Y-55900000D03*
X113000000Y-55900000D03*
X59000000Y-64600000D03*
X35000000Y-64600000D03*
X55000000Y-64600000D03*
X61000000Y-55900000D03*
X37000000Y-45500000D03*
X7000000Y-45500000D03*
X53000000Y-36000000D03*
X101000000Y-36000000D03*
X69000000Y-38000000D03*
X9000000Y-45500000D03*
X11000000Y-45500000D03*
X31000000Y-45500000D03*
X107000000Y-45500000D03*
X87000000Y-45500000D03*
X113000000Y-45500000D03*
X77000000Y-36000000D03*
X135000000Y-45500000D03*
X81000000Y-45500000D03*
X103000000Y-45500000D03*
X17000000Y-45500000D03*
X85000000Y-45500000D03*
X88500000Y-37000000D03*
X125000000Y-36000000D03*
X133000000Y-45500000D03*
X105000000Y-45500000D03*
X59000000Y-45500000D03*
X29000000Y-36000000D03*
X62000000Y-45500000D03*
X110000000Y-45500000D03*
X83000000Y-45500000D03*
X14000000Y-45500000D03*
X35000000Y-45500000D03*
X39000000Y-45500000D03*
X65000000Y-45500000D03*
X136500000Y-37000000D03*
X127000000Y-45500000D03*
X21000000Y-38000000D03*
X57000000Y-45500000D03*
X131000000Y-45500000D03*
X79000000Y-45500000D03*
X33000000Y-45500000D03*
X129000000Y-45500000D03*
X117000000Y-38000000D03*
X40500000Y-37000000D03*
X55000000Y-45500000D03*
X48000000Y-50500000D03*
X46000000Y-50500000D03*
X44000000Y-50500000D03*
X42000000Y-50500000D03*
X72000000Y-50500000D03*
X70000000Y-50500000D03*
X68000000Y-50500000D03*
X66000000Y-50500000D03*
X96000000Y-50500000D03*
X94000000Y-50500000D03*
X92000000Y-50500000D03*
X90000000Y-50500000D03*
X120000000Y-50500000D03*
X118000000Y-50500000D03*
X116000000Y-50500000D03*
X114000000Y-50500000D03*
X144000000Y-50500000D03*
X142000000Y-50500000D03*
X140000000Y-50500000D03*
X138000000Y-50500000D03*
X22000000Y-54500000D03*
X5000000Y-53000000D03*
X16000000Y-61000000D03*
X12000000Y-61000000D03*
X20000000Y-61000000D03*
X18000000Y-54500000D03*
X14000000Y-54500000D03*
X26000000Y-54500000D03*
X8000000Y-61000000D03*
X24000000Y-61000000D03*
X10000000Y-54500000D03*
X28000000Y-61000000D03*
X40000000Y-61000000D03*
X44000000Y-61000000D03*
X48000000Y-61000000D03*
X32000000Y-61000000D03*
X36000000Y-61000000D03*
X52000000Y-61000000D03*
X34000000Y-54500000D03*
X38000000Y-54500000D03*
X46000000Y-54500000D03*
X29000000Y-53000000D03*
X42000000Y-54500000D03*
X50000000Y-54500000D03*
X74000000Y-54500000D03*
X60000000Y-61000000D03*
X66000000Y-54500000D03*
X62000000Y-54500000D03*
X53000000Y-53000000D03*
X72000000Y-61000000D03*
X70000000Y-54500000D03*
X58000000Y-54500000D03*
X64000000Y-61000000D03*
X76000000Y-61000000D03*
X56000000Y-61000000D03*
X68000000Y-61000000D03*
X80000000Y-61000000D03*
X92000000Y-61000000D03*
X94000000Y-54500000D03*
X90000000Y-54500000D03*
X100000000Y-61000000D03*
X84000000Y-61000000D03*
X86000000Y-54500000D03*
X96000000Y-61000000D03*
X82000000Y-54500000D03*
X88000000Y-61000000D03*
X98000000Y-54500000D03*
X77000000Y-53000000D03*
X124000000Y-61000000D03*
X106000000Y-54500000D03*
X120000000Y-61000000D03*
X114000000Y-54500000D03*
X110000000Y-54500000D03*
X116000000Y-61000000D03*
X118000000Y-54500000D03*
X112000000Y-61000000D03*
X104000000Y-61000000D03*
X108000000Y-61000000D03*
X101000000Y-53000000D03*
X122000000Y-54500000D03*
X130000000Y-54500000D03*
X136000000Y-61000000D03*
X128000000Y-61000000D03*
X132000000Y-61000000D03*
X142000000Y-54500000D03*
X140000000Y-61000000D03*
X138000000Y-54500000D03*
X134000000Y-54500000D03*
X144000000Y-61000000D03*
X125000000Y-53000000D03*
X146000000Y-54500000D03*
X148000000Y-61000000D03*
X50000000Y-50500000D03*
X30000000Y-33000000D03*
X48000000Y-33000000D03*
X52000000Y-50500000D03*
X74000000Y-50500000D03*
X58000000Y-33000000D03*
X76000000Y-50500000D03*
X76000000Y-33000000D03*
X78000000Y-33000000D03*
X98000000Y-50500000D03*
X96000000Y-33000000D03*
X100000000Y-50500000D03*
X106000000Y-33000000D03*
X122000000Y-50500000D03*
X124000000Y-50500000D03*
X124000000Y-33000000D03*
X126000000Y-33000000D03*
X146000000Y-50500000D03*
X148000000Y-50500000D03*
X144000000Y-33000000D03*
X27087000Y-69930000D03*
X18072000Y-69928050D03*
X32167000Y-71327000D03*
X64167000Y-71327000D03*
X96167000Y-71327000D03*
X80167000Y-71327000D03*
X16167000Y-71327000D03*
X144167000Y-71327000D03*
X112167000Y-71327000D03*
X48167000Y-71327000D03*
X128167000Y-71327000D03*
X126897000Y-69930000D03*
X78897000Y-69930000D03*
X142897000Y-69930000D03*
X110897000Y-69930000D03*
X62897000Y-69930000D03*
X46897000Y-69930000D03*
X14897000Y-69930000D03*
X30897000Y-69930000D03*
X94897000Y-69930000D03*
X11087000Y-69930000D03*
X34072000Y-69928050D03*
X43087000Y-69930000D03*
X50072000Y-69928050D03*
X59087000Y-69930000D03*
X75087000Y-69930000D03*
X66072000Y-69928050D03*
X82072000Y-69928050D03*
X91087000Y-69930000D03*
X107087000Y-69930000D03*
X98072000Y-69928050D03*
X114072000Y-69928050D03*
X123087000Y-69930000D03*
X130072000Y-69928050D03*
X139087000Y-69930000D03*
X39000000Y-37000000D03*
X67000000Y-37000000D03*
X87000000Y-37000000D03*
X115000000Y-37000000D03*
X135000000Y-37000000D03*
X19000000Y-37000000D03*
X13627000Y-71835000D03*
X109627000Y-71835000D03*
X93627000Y-71835000D03*
X45627000Y-71835000D03*
X29627000Y-71835000D03*
X77627000Y-71835000D03*
X61627000Y-71835000D03*
X125627000Y-71835000D03*
X141627000Y-71835000D03*
X92349000Y-70890500D03*
X124349000Y-70890500D03*
X12349000Y-70890500D03*
X44349000Y-70890500D03*
X76349000Y-70890500D03*
X108349000Y-70890500D03*
X28349000Y-70890500D03*
X60349000Y-70890500D03*
X140349000Y-70890500D03*
M02*
