M48
; DRILL file {KiCad (6.0.6)} date Fri Oct 28 22:11:27 2022
; FORMAT={-:-/ absolute / inch / decimal}
; #@! TF.CreationDate,2022-10-28T22:11:27+02:00
; #@! TF.GenerationSoftware,Kicad,Pcbnew,(6.0.6)
; #@! TF.FileFunction,Plated,1,2,PTH
FMAT,2
INCH
; #@! TA.AperFunction,Plated,PTH,ViaDrill
T1C0.0157
; #@! TA.AperFunction,Plated,PTH,ComponentDrill
T2C0.0330
; #@! TA.AperFunction,Plated,PTH,ComponentDrill
T3C0.0394
; #@! TA.AperFunction,Plated,PTH,ComponentDrill
T4C0.0689
; #@! TA.AperFunction,Plated,PTH,ComponentDrill
T5C0.1260
%
G90
G05
T1
X3.0118Y-4.626
X3.0118Y-4.7402
X3.0512Y-5.1378
X3.0906Y-4.3307
X3.0906Y-4.626
X3.0906Y-5.0827
X3.1299Y-4.9409
X3.1693Y-4.3307
X3.1693Y-4.7402
X3.2087Y-3.8386
X3.2087Y-4.685
X3.248Y-4.3307
X3.248Y-5.0827
X3.2515Y-5.2925
X3.2874Y-4.9409
X3.3011Y-5.3303
X3.3268Y-4.7402
X3.3515Y-5.3675
X3.3661Y-4.3307
X3.3661Y-4.685
X3.4015Y-5.2925
X3.4055Y-5.0827
X3.4449Y-4.9409
X3.4515Y-5.3475
X3.4843Y-4.3307
X3.4843Y-4.7402
X3.5236Y-4.5276
X3.5236Y-4.685
X3.5265Y-5.2924
X3.563Y-3.9961
X3.563Y-5.0827
X3.6024Y-4.5276
X3.6024Y-4.9409
X3.6417Y-4.0354
X3.6417Y-4.7402
X3.6811Y-4.5276
X3.6811Y-4.685
X3.6811Y-5.1378
X3.7205Y-5.0827
X3.7598Y-4.5276
X3.7598Y-4.9409
X3.7992Y-4.7402
X3.8386Y-4.5276
X3.8386Y-4.685
X3.878Y-5.0827
X3.8814Y-5.2925
X3.9173Y-3.8386
X3.9173Y-4.5276
X3.9173Y-4.9409
X3.9311Y-5.3303
X3.9567Y-3.9567
X3.9567Y-4.626
X3.9567Y-4.7402
X3.9814Y-5.3675
X3.9961Y-3.8386
X4.0314Y-5.2925
X4.0354Y-4.3307
X4.0354Y-4.626
X4.0354Y-5.0827
X4.0748Y-4.9409
X4.0814Y-5.3475
X4.1142Y-4.3307
X4.1142Y-4.7402
X4.1535Y-4.685
X4.1564Y-5.2924
X4.1929Y-4.3307
X4.1929Y-5.0827
X4.2323Y-4.9409
X4.2717Y-4.3307
X4.2717Y-4.7402
X4.311Y-4.685
X4.311Y-5.1378
X4.3504Y-3.9961
X4.3504Y-4.3307
X4.3504Y-5.0827
X4.3898Y-4.9409
X4.4094Y-3.9961
X4.4291Y-4.7402
X4.4685Y-4.5276
X4.4685Y-4.685
X4.5079Y-5.0827
X4.5113Y-5.2925
X4.5472Y-4.5276
X4.5472Y-4.9409
X4.561Y-5.3303
X4.5866Y-4.7402
X4.6113Y-5.3675
X4.626Y-4.5276
X4.626Y-4.685
X4.6613Y-5.2925
X4.6654Y-5.0827
X4.7047Y-3.8386
X4.7047Y-4.5276
X4.7047Y-4.9409
X4.7113Y-5.3475
X4.7441Y-4.7402
X4.7835Y-4.5276
X4.7835Y-4.685
X4.7863Y-5.2924
X4.8228Y-5.0827
X4.8622Y-4.5276
X4.8622Y-4.9409
X4.9016Y-3.9567
X4.9016Y-4.626
X4.9016Y-4.7402
X4.9409Y-5.1378
X4.9803Y-4.3307
X4.9803Y-4.626
X4.9803Y-5.0827
X5.0197Y-4.9409
X5.0591Y-4.3307
X5.0591Y-4.7402
X5.0984Y-3.8386
X5.0984Y-4.685
X5.1378Y-4.3307
X5.1378Y-5.0827
X5.1412Y-5.2925
X5.1772Y-4.9409
X5.1909Y-5.3303
X5.2165Y-4.7402
X5.2412Y-5.3675
X5.2559Y-4.3307
X5.2559Y-4.685
X5.2912Y-5.2925
X5.2953Y-5.0827
X5.3346Y-4.9409
X5.3412Y-5.3475
X5.374Y-4.3307
X5.374Y-4.7402
X5.4134Y-4.5276
X5.4134Y-4.685
X5.4162Y-5.2924
X5.4528Y-3.9961
X5.4528Y-5.0827
X5.4921Y-4.5276
X5.4921Y-4.9409
X5.5315Y-4.0354
X5.5315Y-4.7402
X5.5709Y-4.5276
X5.5709Y-4.685
X5.5709Y-5.1378
X5.6102Y-5.0827
X5.6496Y-4.5276
X5.6496Y-4.9409
X5.689Y-4.7402
X5.7283Y-4.5276
X5.7283Y-4.685
X5.7677Y-5.0827
X5.7711Y-5.2925
X5.8071Y-3.8386
X5.8071Y-4.5276
X5.8071Y-4.9409
X5.8208Y-5.3303
X5.8465Y-3.9567
X5.8465Y-4.626
X5.8465Y-4.7402
X5.8711Y-5.3675
X5.8858Y-3.8386
X5.9211Y-5.2925
X5.9252Y-4.3307
X5.9252Y-4.626
X5.9252Y-5.0827
X5.9646Y-4.9409
X5.9711Y-5.3475
X6.0039Y-4.3307
X6.0039Y-4.7402
X6.0433Y-4.685
X6.0461Y-5.2924
X6.0827Y-4.3307
X6.0827Y-5.0827
X6.122Y-4.9409
X6.1614Y-4.3307
X6.1614Y-4.7402
X6.2008Y-4.685
X6.2008Y-5.1378
X6.2402Y-3.9961
X6.2402Y-4.3307
X6.2402Y-5.0827
X6.2795Y-4.9409
X6.2992Y-3.9961
X6.3189Y-4.7402
X6.3583Y-4.5276
X6.3583Y-4.685
X6.3976Y-5.0827
X6.4011Y-5.2925
X6.437Y-4.5276
X6.437Y-4.9409
X6.4507Y-5.3303
X6.4764Y-4.7402
X6.5011Y-5.3675
X6.5157Y-4.5276
X6.5157Y-4.685
X6.5511Y-5.2925
X6.5551Y-5.0827
X6.5945Y-3.8386
X6.5945Y-4.5276
X6.5945Y-4.9409
X6.6011Y-5.3475
X6.6339Y-4.7402
X6.6732Y-4.5276
X6.6732Y-4.685
X6.6761Y-5.2924
X6.7126Y-5.0827
X6.752Y-4.5276
X6.752Y-4.9409
X6.7913Y-3.9567
X6.7913Y-4.626
X6.7913Y-4.7402
X6.8307Y-5.1378
X6.8701Y-4.3307
X6.8701Y-4.626
X6.8701Y-5.0827
X6.9094Y-4.9409
X6.9488Y-4.3307
X6.9488Y-4.7402
X6.9882Y-3.8386
X6.9882Y-4.685
X7.0276Y-4.3307
X7.0276Y-5.0827
X7.031Y-5.2925
X7.0669Y-4.9409
X7.0807Y-5.3303
X7.1063Y-4.7402
X7.131Y-5.3675
X7.1457Y-4.3307
X7.1457Y-4.685
X7.181Y-5.2925
X7.185Y-5.0827
X7.2244Y-4.9409
X7.231Y-5.3475
X7.2638Y-4.3307
X7.2638Y-4.7402
X7.3031Y-4.5276
X7.3031Y-4.685
X7.306Y-5.2924
X7.3425Y-3.9961
X7.3425Y-5.0827
X7.3819Y-4.5276
X7.3819Y-4.9409
X7.4213Y-4.0354
X7.4213Y-4.7402
X7.4606Y-4.5276
X7.4606Y-4.685
X7.4606Y-5.1378
X7.5Y-5.0827
X7.5394Y-4.5276
X7.5394Y-4.9409
X7.5787Y-4.7402
X7.6181Y-4.5276
X7.6181Y-4.685
X7.6575Y-5.0827
X7.6609Y-5.2925
X7.6969Y-3.8386
X7.6969Y-4.5276
X7.6969Y-4.9409
X7.7106Y-5.3303
X7.7362Y-3.9567
X7.7362Y-4.626
X7.7362Y-4.7402
X7.7609Y-5.3675
X7.7756Y-3.8386
X7.8109Y-5.2925
X7.815Y-4.3307
X7.815Y-4.626
X7.815Y-5.0827
X7.8543Y-4.9409
X7.8609Y-5.3475
X7.8937Y-4.3307
X7.8937Y-4.7402
X7.9331Y-4.685
X7.9359Y-5.2924
X7.9724Y-4.3307
X7.9724Y-5.0827
X8.0118Y-4.9409
X8.0512Y-4.3307
X8.0512Y-4.7402
X8.0906Y-4.685
X8.0906Y-5.1378
X8.1102Y-2.7953
X8.1299Y-3.9961
X8.1299Y-4.3307
X8.1299Y-5.0827
X8.1693Y-4.9409
X8.189Y-3.9961
X8.2087Y-4.7402
X8.248Y-4.5276
X8.248Y-4.685
X8.2874Y-5.0827
X8.2908Y-5.2925
X8.3268Y-4.5276
X8.3268Y-4.9409
X8.3405Y-5.3303
X8.3661Y-4.7402
X8.3908Y-5.3675
X8.4055Y-4.5276
X8.4055Y-4.685
X8.4408Y-5.2925
X8.4449Y-5.0827
X8.4843Y-3.8386
X8.4843Y-4.5276
X8.4843Y-4.9409
X8.4908Y-5.3475
X8.5236Y-4.7402
X8.563Y-4.5276
X8.563Y-4.685
X8.6024Y-5.0827
X8.6417Y-4.5276
X8.6417Y-4.9409
T2
X3.3211Y-3.9274
X3.3352Y-4.0431
X3.3625Y-3.8183
X3.4014Y-4.1391
X3.4498Y-3.741
X3.5047Y-4.1933
X3.563Y-3.7131
X3.6213Y-4.1933
X3.6762Y-3.741
X3.7246Y-4.1391
X3.7635Y-3.8183
X3.7908Y-4.0431
X3.8049Y-3.9274
X4.1085Y-3.9274
X4.1226Y-4.0431
X4.1499Y-3.8183
X4.1888Y-4.1391
X4.2372Y-3.741
X4.2921Y-4.1933
X4.3504Y-3.7131
X4.4087Y-4.1933
X4.4636Y-3.741
X4.512Y-4.1391
X4.5509Y-3.8183
X4.5782Y-4.0431
X4.5923Y-3.9274
X5.2109Y-3.9274
X5.225Y-4.0431
X5.2523Y-3.8183
X5.2912Y-4.1391
X5.3396Y-3.741
X5.3945Y-4.1933
X5.4528Y-3.7131
X5.5111Y-4.1933
X5.566Y-3.741
X5.6144Y-4.1391
X5.6533Y-3.8183
X5.6806Y-4.0431
X5.6947Y-3.9274
X5.9983Y-3.9274
X6.0124Y-4.0431
X6.0397Y-3.8183
X6.0786Y-4.1391
X6.127Y-3.741
X6.1819Y-4.1933
X6.2402Y-3.7131
X6.2985Y-4.1933
X6.3534Y-3.741
X6.4018Y-4.1391
X6.4407Y-3.8183
X6.468Y-4.0431
X6.4821Y-3.9274
X7.1006Y-3.9274
X7.1147Y-4.0431
X7.142Y-3.8183
X7.1809Y-4.1391
X7.2293Y-3.741
X7.2842Y-4.1933
X7.3425Y-3.7131
X7.4008Y-4.1933
X7.4557Y-3.741
X7.5041Y-4.1391
X7.543Y-3.8183
X7.5703Y-4.0431
X7.5844Y-3.9274
X7.888Y-3.9274
X7.9021Y-4.0431
X7.9294Y-3.8183
X7.9683Y-4.1391
X8.0167Y-3.741
X8.0716Y-4.1933
X8.1299Y-3.7131
X8.1882Y-4.1933
X8.2431Y-3.741
X8.2915Y-4.1391
X8.3304Y-3.8183
X8.3577Y-4.0431
X8.3718Y-3.9274
T3
X3.2614Y-2.4736
X3.2614Y-3.4736
X3.3614Y-2.4736
X3.3614Y-3.4736
X3.4614Y-2.4736
X3.4614Y-3.4736
X3.5614Y-2.4736
X3.5614Y-3.4736
X3.6614Y-2.4736
X3.6614Y-3.4736
X3.7614Y-2.4736
X3.7614Y-3.4736
X3.8614Y-2.4736
X3.8614Y-3.4736
X3.9614Y-2.4736
X3.9614Y-3.4736
X4.0614Y-2.4736
X4.0614Y-3.4736
X4.1614Y-2.4736
X4.1614Y-3.4736
X4.2614Y-2.4736
X4.2614Y-3.4736
X4.3614Y-2.4736
X4.3614Y-3.4736
X4.4614Y-2.4736
X4.4614Y-3.4736
X4.5614Y-2.4736
X4.5614Y-3.4736
X4.6614Y-2.4736
X4.6614Y-3.4736
X4.7614Y-2.4736
X4.7614Y-3.4736
X4.8614Y-2.4736
X4.8614Y-3.4736
X4.9614Y-2.4736
X4.9614Y-3.4736
X5.0614Y-2.4736
X5.0614Y-3.4736
X5.6969Y-2.4813
X5.7969Y-2.4813
X5.8969Y-2.4813
X5.9969Y-2.4813
X6.6831Y-2.5
X6.6831Y-3.1299
X6.7831Y-2.5
X6.7831Y-3.1299
X8.3366Y-2.5
X8.3366Y-3.1299
X8.4366Y-2.5
X8.4366Y-3.1299
T4
X8.878Y-2.9764
X8.878Y-3.2835
T5
X2.815Y-2.5394
X2.815Y-5.374
X8.878Y-2.5394
X8.878Y-5.374
T0
M30
