%TF.GenerationSoftware,KiCad,Pcbnew,(6.0.6)*%
%TF.CreationDate,2022-08-22T11:18:43+02:00*%
%TF.ProjectId,nixieboi_psu,6e697869-6562-46f6-995f-7073752e6b69,rev?*%
%TF.SameCoordinates,Original*%
%TF.FileFunction,Copper,L2,Bot*%
%TF.FilePolarity,Positive*%
%FSLAX46Y46*%
G04 Gerber Fmt 4.6, Leading zero omitted, Abs format (unit mm)*
G04 Created by KiCad (PCBNEW (6.0.6)) date 2022-08-22 11:18:43*
%MOMM*%
%LPD*%
G01*
G04 APERTURE LIST*
%TA.AperFunction,ComponentPad*%
%ADD10R,1.905000X2.000000*%
%TD*%
%TA.AperFunction,ComponentPad*%
%ADD11O,1.905000X2.000000*%
%TD*%
%TA.AperFunction,ComponentPad*%
%ADD12C,2.600000*%
%TD*%
%TA.AperFunction,ComponentPad*%
%ADD13R,1.600000X1.600000*%
%TD*%
%TA.AperFunction,ComponentPad*%
%ADD14C,1.600000*%
%TD*%
%TA.AperFunction,ComponentPad*%
%ADD15R,1.700000X1.700000*%
%TD*%
%TA.AperFunction,ComponentPad*%
%ADD16O,1.700000X1.700000*%
%TD*%
%TA.AperFunction,ViaPad*%
%ADD17C,0.800000*%
%TD*%
%TA.AperFunction,Conductor*%
%ADD18C,0.250000*%
%TD*%
G04 APERTURE END LIST*
D10*
%TO.P,Q1,1,G*%
%TO.N,Net-(D2-Pad1)*%
X111960000Y-64945000D03*
D11*
%TO.P,Q1,2,D*%
%TO.N,Net-(D1-Pad2)*%
X114500000Y-64945000D03*
%TO.P,Q1,3,S*%
%TO.N,GND*%
X117040000Y-64945000D03*
%TD*%
D12*
%TO.P,L1,1,1*%
%TO.N,+12V*%
X112000000Y-73500000D03*
%TO.P,L1,2,2*%
%TO.N,Net-(D1-Pad2)*%
X117000000Y-73500000D03*
%TD*%
D13*
%TO.P,C4,1*%
%TO.N,HT*%
X124500000Y-75152651D03*
D14*
%TO.P,C4,2*%
%TO.N,GND*%
X124500000Y-71652651D03*
%TD*%
D13*
%TO.P,C1,1*%
%TO.N,+12V*%
X104500000Y-75152651D03*
D14*
%TO.P,C1,2*%
%TO.N,GND*%
X104500000Y-71652651D03*
%TD*%
D15*
%TO.P,J4,1,Pin_1*%
%TO.N,HT*%
X136775000Y-77500000D03*
D16*
%TO.P,J4,2,Pin_2*%
%TO.N,GND*%
X134235000Y-77500000D03*
%TD*%
D15*
%TO.P,J2,1,Pin_1*%
%TO.N,+12V*%
X94775000Y-77500000D03*
D16*
%TO.P,J2,2,Pin_2*%
%TO.N,GND*%
X92235000Y-77500000D03*
%TD*%
D15*
%TO.P,J3,1,Pin_1*%
%TO.N,HT*%
X136775000Y-61500000D03*
D16*
%TO.P,J3,2,Pin_2*%
%TO.N,GND*%
X134235000Y-61500000D03*
%TD*%
D15*
%TO.P,J1,1,Pin_1*%
%TO.N,+12V*%
X94775000Y-61500000D03*
D16*
%TO.P,J1,2,Pin_2*%
%TO.N,GND*%
X92235000Y-61500000D03*
%TD*%
D17*
%TO.N,GND*%
X92000000Y-64500000D03*
X129000000Y-71500000D03*
X99000000Y-74500000D03*
X133500000Y-66000000D03*
X108500000Y-68000000D03*
X124500000Y-67500000D03*
X120500000Y-61000000D03*
X120500000Y-77500000D03*
X91000000Y-73000000D03*
X98500000Y-64500000D03*
X94500000Y-69500000D03*
X108500000Y-77500000D03*
X138000000Y-72000000D03*
X129000000Y-67500000D03*
X108500000Y-61000000D03*
X120500000Y-68000000D03*
%TO.N,Net-(C3-Pad2)*%
X98750000Y-71000000D03*
X130250000Y-69750000D03*
%TO.N,Net-(D2-Pad2)*%
X94500000Y-68250000D03*
X103000000Y-68250000D03*
%TD*%
D18*
%TO.N,Net-(C3-Pad2)*%
X98750000Y-71000000D02*
X100000000Y-69750000D01*
X100000000Y-69750000D02*
X130250000Y-69750000D01*
%TO.N,Net-(D2-Pad2)*%
X94500000Y-68250000D02*
X103000000Y-68250000D01*
%TD*%
%TA.AperFunction,Conductor*%
%TO.N,GND*%
G36*
X136987306Y-59752883D02*
G01*
X137000000Y-59755408D01*
X137011978Y-59753025D01*
X137024195Y-59753025D01*
X137024195Y-59753339D01*
X137034901Y-59752611D01*
X137202544Y-59762751D01*
X137263662Y-59766448D01*
X137278525Y-59768253D01*
X137530967Y-59814515D01*
X137545505Y-59818099D01*
X137711491Y-59869822D01*
X137790523Y-59894450D01*
X137804521Y-59899758D01*
X138038557Y-60005090D01*
X138051815Y-60012048D01*
X138271443Y-60144818D01*
X138283766Y-60153324D01*
X138485792Y-60311601D01*
X138497000Y-60321531D01*
X138678469Y-60503000D01*
X138688399Y-60514208D01*
X138846676Y-60716234D01*
X138855182Y-60728557D01*
X138987952Y-60948185D01*
X138994910Y-60961443D01*
X139100242Y-61195479D01*
X139105550Y-61209477D01*
X139117296Y-61247169D01*
X139181901Y-61454495D01*
X139185485Y-61469033D01*
X139231747Y-61721475D01*
X139233552Y-61736338D01*
X139235150Y-61762759D01*
X139247389Y-61965099D01*
X139246661Y-61975805D01*
X139246975Y-61975805D01*
X139246975Y-61988022D01*
X139244592Y-62000000D01*
X139246975Y-62011980D01*
X139247117Y-62012694D01*
X139249500Y-62036885D01*
X139249500Y-76963115D01*
X139247117Y-76987306D01*
X139244592Y-77000000D01*
X139246975Y-77011978D01*
X139246975Y-77024195D01*
X139246661Y-77024195D01*
X139247389Y-77034901D01*
X139242872Y-77109574D01*
X139234728Y-77244226D01*
X139233552Y-77263660D01*
X139231747Y-77278525D01*
X139185485Y-77530967D01*
X139181901Y-77545505D01*
X139130178Y-77711491D01*
X139113782Y-77764109D01*
X139105552Y-77790519D01*
X139100242Y-77804520D01*
X139084842Y-77838738D01*
X138994910Y-78038557D01*
X138987952Y-78051815D01*
X138855182Y-78271443D01*
X138846676Y-78283766D01*
X138688399Y-78485792D01*
X138678469Y-78497000D01*
X138497000Y-78678469D01*
X138485792Y-78688399D01*
X138283766Y-78846676D01*
X138271443Y-78855182D01*
X138051815Y-78987952D01*
X138038557Y-78994910D01*
X137804521Y-79100242D01*
X137790523Y-79105550D01*
X137711491Y-79130178D01*
X137545505Y-79181901D01*
X137530967Y-79185485D01*
X137278525Y-79231747D01*
X137263662Y-79233552D01*
X137202544Y-79237249D01*
X137034901Y-79247389D01*
X137024195Y-79246661D01*
X137024195Y-79246975D01*
X137011978Y-79246975D01*
X137000000Y-79244592D01*
X136988020Y-79246975D01*
X136987306Y-79247117D01*
X136963115Y-79249500D01*
X92036885Y-79249500D01*
X92012694Y-79247117D01*
X92011980Y-79246975D01*
X92000000Y-79244592D01*
X91988022Y-79246975D01*
X91975805Y-79246975D01*
X91975805Y-79246661D01*
X91965099Y-79247389D01*
X91797456Y-79237249D01*
X91736338Y-79233552D01*
X91721475Y-79231747D01*
X91469033Y-79185485D01*
X91454495Y-79181901D01*
X91288509Y-79130178D01*
X91209477Y-79105550D01*
X91195479Y-79100242D01*
X90961443Y-78994910D01*
X90948185Y-78987952D01*
X90728557Y-78855182D01*
X90716234Y-78846676D01*
X90514208Y-78688399D01*
X90503000Y-78678469D01*
X90321531Y-78497000D01*
X90311601Y-78485792D01*
X90153324Y-78283766D01*
X90144818Y-78271443D01*
X90012048Y-78051815D01*
X90005090Y-78038557D01*
X89915158Y-77838738D01*
X89899758Y-77804520D01*
X89894448Y-77790519D01*
X89886219Y-77764109D01*
X89885798Y-77762759D01*
X91166731Y-77762759D01*
X91192255Y-77863260D01*
X91196028Y-77873916D01*
X91275910Y-78047193D01*
X91281574Y-78057002D01*
X91391689Y-78212812D01*
X91399039Y-78221417D01*
X91535709Y-78354555D01*
X91544512Y-78361683D01*
X91703147Y-78467680D01*
X91713105Y-78473087D01*
X91888396Y-78548397D01*
X91899178Y-78551901D01*
X91967609Y-78567385D01*
X91981462Y-78566510D01*
X91984907Y-78557504D01*
X92485000Y-78557504D01*
X92488903Y-78570798D01*
X92498736Y-78572206D01*
X92678937Y-78511036D01*
X92689293Y-78506425D01*
X92855753Y-78413202D01*
X92865090Y-78406785D01*
X92903699Y-78374674D01*
X93674500Y-78374674D01*
X93675689Y-78380650D01*
X93675689Y-78380653D01*
X93676818Y-78386326D01*
X93689034Y-78447740D01*
X93744399Y-78530601D01*
X93827260Y-78585966D01*
X93861313Y-78592740D01*
X93894347Y-78599311D01*
X93894350Y-78599311D01*
X93900326Y-78600500D01*
X95649674Y-78600500D01*
X95655650Y-78599311D01*
X95655653Y-78599311D01*
X95688687Y-78592740D01*
X95722740Y-78585966D01*
X95805601Y-78530601D01*
X95860966Y-78447740D01*
X95873182Y-78386326D01*
X95874311Y-78380653D01*
X95874311Y-78380650D01*
X95875500Y-78374674D01*
X95875500Y-77762759D01*
X133166731Y-77762759D01*
X133192255Y-77863260D01*
X133196028Y-77873916D01*
X133275910Y-78047193D01*
X133281574Y-78057002D01*
X133391689Y-78212812D01*
X133399039Y-78221417D01*
X133535709Y-78354555D01*
X133544512Y-78361683D01*
X133703147Y-78467680D01*
X133713105Y-78473087D01*
X133888396Y-78548397D01*
X133899178Y-78551901D01*
X133967609Y-78567385D01*
X133981462Y-78566510D01*
X133984907Y-78557504D01*
X134485000Y-78557504D01*
X134488903Y-78570798D01*
X134498736Y-78572206D01*
X134678937Y-78511036D01*
X134689293Y-78506425D01*
X134855753Y-78413202D01*
X134865090Y-78406785D01*
X135011777Y-78284787D01*
X135019787Y-78276777D01*
X135141785Y-78130090D01*
X135148202Y-78120753D01*
X135241425Y-77954293D01*
X135246034Y-77943940D01*
X135283082Y-77834802D01*
X135323271Y-77777648D01*
X135387980Y-77751295D01*
X135456665Y-77764109D01*
X135507518Y-77812023D01*
X135524501Y-77874660D01*
X135524501Y-78381518D01*
X135539354Y-78475304D01*
X135596950Y-78588342D01*
X135686658Y-78678050D01*
X135799696Y-78735646D01*
X135828933Y-78740277D01*
X135888661Y-78749737D01*
X135888666Y-78749737D01*
X135893481Y-78750500D01*
X135898359Y-78750500D01*
X136775632Y-78750499D01*
X137656518Y-78750499D01*
X137729151Y-78738996D01*
X137740669Y-78737172D01*
X137740670Y-78737172D01*
X137750304Y-78735646D01*
X137863342Y-78678050D01*
X137953050Y-78588342D01*
X138010646Y-78475304D01*
X138020482Y-78413202D01*
X138024737Y-78386339D01*
X138024737Y-78386334D01*
X138025500Y-78381519D01*
X138025499Y-76618482D01*
X138010646Y-76524696D01*
X137953050Y-76411658D01*
X137863342Y-76321950D01*
X137750304Y-76264354D01*
X137721067Y-76259723D01*
X137661339Y-76250263D01*
X137661334Y-76250263D01*
X137656519Y-76249500D01*
X137651641Y-76249500D01*
X136774368Y-76249501D01*
X135893482Y-76249501D01*
X135820849Y-76261004D01*
X135809331Y-76262828D01*
X135809330Y-76262828D01*
X135799696Y-76264354D01*
X135686658Y-76321950D01*
X135596950Y-76411658D01*
X135539354Y-76524696D01*
X135524500Y-76618481D01*
X135524500Y-77122989D01*
X135504815Y-77190028D01*
X135452011Y-77235783D01*
X135382853Y-77245727D01*
X135319297Y-77216702D01*
X135281155Y-77156647D01*
X135267881Y-77109579D01*
X135263819Y-77098998D01*
X135179441Y-76927894D01*
X135173517Y-76918228D01*
X135059366Y-76765362D01*
X135051785Y-76756942D01*
X134911683Y-76627432D01*
X134902701Y-76620540D01*
X134741331Y-76518724D01*
X134731253Y-76513589D01*
X134554035Y-76442886D01*
X134543182Y-76439670D01*
X134502484Y-76431576D01*
X134489816Y-76432710D01*
X134485000Y-76447623D01*
X134485000Y-78557504D01*
X133984907Y-78557504D01*
X133985000Y-78557261D01*
X133985000Y-77767830D01*
X133980596Y-77752831D01*
X133979226Y-77751644D01*
X133971668Y-77750000D01*
X133181321Y-77750000D01*
X133168004Y-77753910D01*
X133166731Y-77762759D01*
X95875500Y-77762759D01*
X95875500Y-77246850D01*
X133165809Y-77246850D01*
X133172433Y-77250000D01*
X133967170Y-77250000D01*
X133982169Y-77245596D01*
X133983356Y-77244226D01*
X133985000Y-77236668D01*
X133985000Y-76444587D01*
X133981254Y-76431829D01*
X133966573Y-76429923D01*
X133954685Y-76431966D01*
X133943745Y-76434897D01*
X133764737Y-76500936D01*
X133754524Y-76505808D01*
X133590557Y-76603358D01*
X133581390Y-76610018D01*
X133437942Y-76735819D01*
X133430152Y-76744028D01*
X133312027Y-76893868D01*
X133305864Y-76903360D01*
X133217025Y-77072214D01*
X133212694Y-77082669D01*
X133166023Y-77232975D01*
X133165809Y-77246850D01*
X95875500Y-77246850D01*
X95875500Y-76625326D01*
X95874139Y-76618481D01*
X95863349Y-76564241D01*
X95860966Y-76552260D01*
X95805601Y-76469399D01*
X95722740Y-76414034D01*
X95688687Y-76407260D01*
X95655653Y-76400689D01*
X95655650Y-76400689D01*
X95649674Y-76399500D01*
X93900326Y-76399500D01*
X93894350Y-76400689D01*
X93894347Y-76400689D01*
X93861313Y-76407260D01*
X93827260Y-76414034D01*
X93744399Y-76469399D01*
X93689034Y-76552260D01*
X93686651Y-76564241D01*
X93675862Y-76618481D01*
X93674500Y-76625326D01*
X93674500Y-78374674D01*
X92903699Y-78374674D01*
X93011777Y-78284787D01*
X93019787Y-78276777D01*
X93141785Y-78130090D01*
X93148202Y-78120753D01*
X93241425Y-77954293D01*
X93246036Y-77943937D01*
X93307215Y-77763709D01*
X93305821Y-77753930D01*
X93292467Y-77750000D01*
X92502830Y-77750000D01*
X92487831Y-77754404D01*
X92486644Y-77755774D01*
X92485000Y-77763332D01*
X92485000Y-78557504D01*
X91984907Y-78557504D01*
X91985000Y-78557261D01*
X91985000Y-77767830D01*
X91980596Y-77752831D01*
X91979226Y-77751644D01*
X91971668Y-77750000D01*
X91181321Y-77750000D01*
X91168004Y-77753910D01*
X91166731Y-77762759D01*
X89885798Y-77762759D01*
X89869822Y-77711491D01*
X89818099Y-77545505D01*
X89814515Y-77530967D01*
X89768253Y-77278525D01*
X89766448Y-77263660D01*
X89765432Y-77246850D01*
X91165809Y-77246850D01*
X91172433Y-77250000D01*
X91967170Y-77250000D01*
X91982169Y-77245596D01*
X91983356Y-77244226D01*
X91985000Y-77236668D01*
X91985000Y-77232170D01*
X92485000Y-77232170D01*
X92489404Y-77247169D01*
X92490774Y-77248356D01*
X92498332Y-77250000D01*
X93289654Y-77250000D01*
X93302971Y-77246090D01*
X93304123Y-77238082D01*
X93267880Y-77109574D01*
X93263823Y-77099007D01*
X93179441Y-76927894D01*
X93173517Y-76918228D01*
X93059366Y-76765362D01*
X93051785Y-76756942D01*
X92911683Y-76627432D01*
X92902701Y-76620540D01*
X92741331Y-76518724D01*
X92731253Y-76513589D01*
X92554035Y-76442886D01*
X92543182Y-76439670D01*
X92502484Y-76431576D01*
X92489816Y-76432710D01*
X92485000Y-76447623D01*
X92485000Y-77232170D01*
X91985000Y-77232170D01*
X91985000Y-76444587D01*
X91981254Y-76431829D01*
X91966573Y-76429923D01*
X91954685Y-76431966D01*
X91943745Y-76434897D01*
X91764737Y-76500936D01*
X91754524Y-76505808D01*
X91590557Y-76603358D01*
X91581390Y-76610018D01*
X91437942Y-76735819D01*
X91430152Y-76744028D01*
X91312027Y-76893868D01*
X91305864Y-76903360D01*
X91217025Y-77072214D01*
X91212694Y-77082669D01*
X91166023Y-77232975D01*
X91165809Y-77246850D01*
X89765432Y-77246850D01*
X89765273Y-77244226D01*
X89757128Y-77109574D01*
X89752611Y-77034901D01*
X89753339Y-77024195D01*
X89753025Y-77024195D01*
X89753025Y-77011978D01*
X89755408Y-77000000D01*
X89752883Y-76987306D01*
X89750500Y-76963115D01*
X89750500Y-75977325D01*
X103449500Y-75977325D01*
X103450689Y-75983301D01*
X103450689Y-75983304D01*
X103451818Y-75988977D01*
X103464034Y-76050391D01*
X103519399Y-76133252D01*
X103602260Y-76188617D01*
X103636313Y-76195391D01*
X103669347Y-76201962D01*
X103669350Y-76201962D01*
X103675326Y-76203151D01*
X105324674Y-76203151D01*
X105330650Y-76201962D01*
X105330653Y-76201962D01*
X105363687Y-76195391D01*
X105397740Y-76188617D01*
X105480601Y-76133252D01*
X105535966Y-76050391D01*
X105548182Y-75988977D01*
X105549311Y-75983304D01*
X105549311Y-75983301D01*
X105550500Y-75977325D01*
X105550500Y-74327977D01*
X105549139Y-74321132D01*
X105538349Y-74266892D01*
X105535966Y-74254911D01*
X105480601Y-74172050D01*
X105397740Y-74116685D01*
X105363687Y-74109911D01*
X105330653Y-74103340D01*
X105330650Y-74103340D01*
X105324674Y-74102151D01*
X103675326Y-74102151D01*
X103669350Y-74103340D01*
X103669347Y-74103340D01*
X103636313Y-74109911D01*
X103602260Y-74116685D01*
X103519399Y-74172050D01*
X103464034Y-74254911D01*
X103461651Y-74266892D01*
X103450862Y-74321132D01*
X103449500Y-74327977D01*
X103449500Y-75977325D01*
X89750500Y-75977325D01*
X89750500Y-73500000D01*
X110444706Y-73500000D01*
X110445088Y-73504854D01*
X110461417Y-73712331D01*
X110463854Y-73743302D01*
X110464990Y-73748032D01*
X110518625Y-73971434D01*
X110520828Y-73980612D01*
X110522692Y-73985113D01*
X110522694Y-73985118D01*
X110561504Y-74078813D01*
X110614223Y-74206089D01*
X110616768Y-74210242D01*
X110616769Y-74210244D01*
X110644141Y-74254911D01*
X110741741Y-74414179D01*
X110900241Y-74599759D01*
X111085821Y-74758259D01*
X111293911Y-74885777D01*
X111298414Y-74887642D01*
X111514882Y-74977306D01*
X111514887Y-74977308D01*
X111519388Y-74979172D01*
X111524120Y-74980308D01*
X111524126Y-74980310D01*
X111648112Y-75010076D01*
X111756698Y-75036146D01*
X111761542Y-75036527D01*
X111761547Y-75036528D01*
X111995146Y-75054912D01*
X112000000Y-75055294D01*
X112004854Y-75054912D01*
X112238453Y-75036528D01*
X112238458Y-75036527D01*
X112243302Y-75036146D01*
X112351888Y-75010076D01*
X112475874Y-74980310D01*
X112475880Y-74980308D01*
X112480612Y-74979172D01*
X112485113Y-74977308D01*
X112485118Y-74977306D01*
X112701586Y-74887642D01*
X112706089Y-74885777D01*
X112914179Y-74758259D01*
X113099759Y-74599759D01*
X113258259Y-74414179D01*
X113355859Y-74254911D01*
X113383231Y-74210244D01*
X113383232Y-74210242D01*
X113385777Y-74206089D01*
X113438496Y-74078813D01*
X113477306Y-73985118D01*
X113477308Y-73985113D01*
X113479172Y-73980612D01*
X113481376Y-73971434D01*
X113535010Y-73748032D01*
X113536146Y-73743302D01*
X113538584Y-73712331D01*
X113554912Y-73504854D01*
X113555294Y-73500000D01*
X113551781Y-73455361D01*
X115295316Y-73455361D01*
X115295537Y-73459963D01*
X115295537Y-73459965D01*
X115301896Y-73592333D01*
X115307443Y-73707820D01*
X115308340Y-73712327D01*
X115308340Y-73712331D01*
X115332823Y-73835412D01*
X115356752Y-73955713D01*
X115358302Y-73960031D01*
X115358304Y-73960037D01*
X115438070Y-74182203D01*
X115442160Y-74193595D01*
X115444337Y-74197646D01*
X115444338Y-74197649D01*
X115513306Y-74326004D01*
X115561792Y-74416240D01*
X115713018Y-74618756D01*
X115799787Y-74704771D01*
X115889253Y-74793461D01*
X115889258Y-74793465D01*
X115892517Y-74796696D01*
X116096346Y-74946149D01*
X116212708Y-75007370D01*
X116315946Y-75061687D01*
X116315953Y-75061690D01*
X116320026Y-75063833D01*
X116324367Y-75065349D01*
X116324374Y-75065352D01*
X116554297Y-75145644D01*
X116558644Y-75147162D01*
X116563163Y-75148020D01*
X116563167Y-75148021D01*
X116802443Y-75193449D01*
X116802446Y-75193449D01*
X116806958Y-75194306D01*
X116811548Y-75194486D01*
X116811554Y-75194487D01*
X117054905Y-75204048D01*
X117054906Y-75204048D01*
X117059513Y-75204229D01*
X117262488Y-75182000D01*
X117306186Y-75177214D01*
X117306187Y-75177214D01*
X117310760Y-75176713D01*
X117315208Y-75175542D01*
X117550739Y-75113533D01*
X117550746Y-75113531D01*
X117555181Y-75112363D01*
X117787405Y-75012591D01*
X117891305Y-74948296D01*
X117998415Y-74882015D01*
X117998422Y-74882010D01*
X118002331Y-74879591D01*
X118195238Y-74716283D01*
X118361888Y-74526256D01*
X118493828Y-74321132D01*
X123299500Y-74321132D01*
X123299501Y-75984169D01*
X123314354Y-76077955D01*
X123371950Y-76190993D01*
X123461658Y-76280701D01*
X123574696Y-76338297D01*
X123603933Y-76342928D01*
X123663661Y-76352388D01*
X123663666Y-76352388D01*
X123668481Y-76353151D01*
X123673359Y-76353151D01*
X124500597Y-76353150D01*
X125331518Y-76353150D01*
X125404151Y-76341647D01*
X125415669Y-76339823D01*
X125415670Y-76339823D01*
X125425304Y-76338297D01*
X125538342Y-76280701D01*
X125628050Y-76190993D01*
X125685646Y-76077955D01*
X125700500Y-75984170D01*
X125700499Y-74321133D01*
X125685646Y-74227347D01*
X125628050Y-74114309D01*
X125538342Y-74024601D01*
X125425304Y-73967005D01*
X125381310Y-73960037D01*
X125336339Y-73952914D01*
X125336334Y-73952914D01*
X125331519Y-73952151D01*
X125326641Y-73952151D01*
X124499403Y-73952152D01*
X123668482Y-73952152D01*
X123595849Y-73963655D01*
X123584331Y-73965479D01*
X123584330Y-73965479D01*
X123574696Y-73967005D01*
X123461658Y-74024601D01*
X123371950Y-74114309D01*
X123314354Y-74227347D01*
X123312827Y-74236989D01*
X123300680Y-74313684D01*
X123299500Y-74321132D01*
X118493828Y-74321132D01*
X118498619Y-74313684D01*
X118533168Y-74236989D01*
X118600541Y-74087425D01*
X118602428Y-74083236D01*
X118671034Y-73839976D01*
X118683950Y-73738453D01*
X118702538Y-73592333D01*
X118702931Y-73589247D01*
X118705268Y-73500000D01*
X118705038Y-73496902D01*
X118686879Y-73252542D01*
X118686878Y-73252537D01*
X118686537Y-73247945D01*
X118634820Y-73019388D01*
X118631774Y-73005925D01*
X118631772Y-73005920D01*
X118630756Y-73001428D01*
X118596388Y-72913051D01*
X118540817Y-72770149D01*
X118540816Y-72770146D01*
X118539150Y-72765863D01*
X118518694Y-72730071D01*
X118416133Y-72550628D01*
X123961106Y-72550628D01*
X123965938Y-72557083D01*
X124072307Y-72616530D01*
X124083366Y-72621362D01*
X124267667Y-72681244D01*
X124279458Y-72683837D01*
X124471883Y-72706783D01*
X124483949Y-72707036D01*
X124677166Y-72692168D01*
X124689057Y-72690071D01*
X124875702Y-72637959D01*
X124886953Y-72633595D01*
X125030784Y-72560941D01*
X125040908Y-72551446D01*
X125038705Y-72544909D01*
X124512607Y-72018811D01*
X124498887Y-72011319D01*
X124497081Y-72011448D01*
X124490574Y-72015630D01*
X123967757Y-72538447D01*
X123961106Y-72550628D01*
X118416133Y-72550628D01*
X118416011Y-72550415D01*
X118416010Y-72550414D01*
X118413731Y-72546426D01*
X118257255Y-72347938D01*
X118226449Y-72318958D01*
X118076512Y-72177911D01*
X118076510Y-72177909D01*
X118073160Y-72174758D01*
X118029678Y-72144593D01*
X117930846Y-72076031D01*
X117865489Y-72030691D01*
X117861370Y-72028660D01*
X117861367Y-72028658D01*
X117642934Y-71920939D01*
X117642932Y-71920938D01*
X117638805Y-71918903D01*
X117634424Y-71917501D01*
X117634420Y-71917499D01*
X117511646Y-71878199D01*
X117398087Y-71841849D01*
X117148624Y-71801221D01*
X117027120Y-71799631D01*
X116900506Y-71797973D01*
X116900501Y-71797973D01*
X116895896Y-71797913D01*
X116791195Y-71812162D01*
X116650022Y-71831374D01*
X116650016Y-71831375D01*
X116645455Y-71831996D01*
X116641034Y-71833284D01*
X116641032Y-71833285D01*
X116587285Y-71848951D01*
X116402803Y-71902723D01*
X116398635Y-71904645D01*
X116398631Y-71904646D01*
X116310906Y-71945088D01*
X116173270Y-72008539D01*
X116169419Y-72011064D01*
X116169415Y-72011066D01*
X116135486Y-72033311D01*
X115961899Y-72147120D01*
X115773333Y-72315421D01*
X115611715Y-72509746D01*
X115480595Y-72725825D01*
X115478817Y-72730065D01*
X115478814Y-72730071D01*
X115452044Y-72793911D01*
X115382854Y-72958911D01*
X115320639Y-73203883D01*
X115295316Y-73455361D01*
X113551781Y-73455361D01*
X113536146Y-73256698D01*
X113479172Y-73019388D01*
X113473596Y-73005925D01*
X113387642Y-72798414D01*
X113385777Y-72793911D01*
X113258259Y-72585821D01*
X113099759Y-72400241D01*
X112914179Y-72241741D01*
X112834873Y-72193142D01*
X112710244Y-72116769D01*
X112710242Y-72116768D01*
X112706089Y-72114223D01*
X112542465Y-72046448D01*
X112485118Y-72022694D01*
X112485113Y-72022692D01*
X112480612Y-72020828D01*
X112475880Y-72019692D01*
X112475874Y-72019690D01*
X112351888Y-71989924D01*
X112243302Y-71963854D01*
X112238458Y-71963473D01*
X112238453Y-71963472D01*
X112004854Y-71945088D01*
X112000000Y-71944706D01*
X111995146Y-71945088D01*
X111761547Y-71963472D01*
X111761542Y-71963473D01*
X111756698Y-71963854D01*
X111648112Y-71989924D01*
X111524126Y-72019690D01*
X111524120Y-72019692D01*
X111519388Y-72020828D01*
X111514887Y-72022692D01*
X111514882Y-72022694D01*
X111457535Y-72046448D01*
X111293911Y-72114223D01*
X111289758Y-72116768D01*
X111289756Y-72116769D01*
X111165127Y-72193142D01*
X111085821Y-72241741D01*
X110900241Y-72400241D01*
X110741741Y-72585821D01*
X110614223Y-72793911D01*
X110612358Y-72798414D01*
X110526405Y-73005925D01*
X110520828Y-73019388D01*
X110463854Y-73256698D01*
X110444706Y-73500000D01*
X89750500Y-73500000D01*
X89750500Y-72550628D01*
X103961106Y-72550628D01*
X103965938Y-72557083D01*
X104072307Y-72616530D01*
X104083366Y-72621362D01*
X104267667Y-72681244D01*
X104279458Y-72683837D01*
X104471883Y-72706783D01*
X104483949Y-72707036D01*
X104677166Y-72692168D01*
X104689057Y-72690071D01*
X104875702Y-72637959D01*
X104886953Y-72633595D01*
X105030784Y-72560941D01*
X105040908Y-72551446D01*
X105038705Y-72544909D01*
X104512607Y-72018811D01*
X104498887Y-72011319D01*
X104497081Y-72011448D01*
X104490574Y-72015630D01*
X103967757Y-72538447D01*
X103961106Y-72550628D01*
X89750500Y-72550628D01*
X89750500Y-70993138D01*
X98094758Y-70993138D01*
X98095578Y-71000566D01*
X98095578Y-71000568D01*
X98097474Y-71017744D01*
X98112035Y-71149633D01*
X98166143Y-71297490D01*
X98253958Y-71428172D01*
X98308693Y-71477977D01*
X98364878Y-71529102D01*
X98364882Y-71529105D01*
X98370410Y-71534135D01*
X98508776Y-71609262D01*
X98611031Y-71636088D01*
X98653841Y-71647319D01*
X98653843Y-71647319D01*
X98661069Y-71649215D01*
X98738127Y-71650425D01*
X98811025Y-71651571D01*
X98811028Y-71651571D01*
X98818495Y-71651688D01*
X98825776Y-71650020D01*
X98825780Y-71650020D01*
X98852213Y-71643966D01*
X103445530Y-71643966D01*
X103461744Y-71837063D01*
X103463926Y-71848951D01*
X103517337Y-72035217D01*
X103521783Y-72046448D01*
X103592005Y-72183085D01*
X103601571Y-72193142D01*
X103608262Y-72190836D01*
X104133840Y-71665258D01*
X104140116Y-71653764D01*
X104858668Y-71653764D01*
X104858797Y-71655570D01*
X104862979Y-71662077D01*
X105385623Y-72184721D01*
X105397804Y-72191372D01*
X105404432Y-72186411D01*
X105460866Y-72087068D01*
X105465780Y-72076031D01*
X105526947Y-71892159D01*
X105529622Y-71880386D01*
X105554235Y-71685554D01*
X105554718Y-71678644D01*
X105555033Y-71656113D01*
X105554743Y-71649203D01*
X105554230Y-71643966D01*
X123445530Y-71643966D01*
X123461744Y-71837063D01*
X123463926Y-71848951D01*
X123517337Y-72035217D01*
X123521783Y-72046448D01*
X123592005Y-72183085D01*
X123601571Y-72193142D01*
X123608262Y-72190836D01*
X124133840Y-71665258D01*
X124140116Y-71653764D01*
X124858668Y-71653764D01*
X124858797Y-71655570D01*
X124862979Y-71662077D01*
X125385623Y-72184721D01*
X125397804Y-72191372D01*
X125404432Y-72186411D01*
X125460866Y-72087068D01*
X125465780Y-72076031D01*
X125526947Y-71892159D01*
X125529622Y-71880386D01*
X125554235Y-71685554D01*
X125554718Y-71678644D01*
X125555033Y-71656113D01*
X125554743Y-71649203D01*
X125535579Y-71453754D01*
X125533235Y-71441915D01*
X125477224Y-71256397D01*
X125472623Y-71245235D01*
X125407520Y-71122793D01*
X125397817Y-71112872D01*
X125390804Y-71115400D01*
X124866160Y-71640044D01*
X124858668Y-71653764D01*
X124140116Y-71653764D01*
X124141332Y-71651538D01*
X124141203Y-71649732D01*
X124137021Y-71643225D01*
X123613994Y-71120198D01*
X123601813Y-71113547D01*
X123595525Y-71118254D01*
X123533157Y-71231700D01*
X123528406Y-71242785D01*
X123469808Y-71427508D01*
X123467299Y-71439315D01*
X123445698Y-71631890D01*
X123445530Y-71643966D01*
X105554230Y-71643966D01*
X105535579Y-71453754D01*
X105533235Y-71441915D01*
X105477224Y-71256397D01*
X105472623Y-71245235D01*
X105407520Y-71122793D01*
X105397817Y-71112872D01*
X105390804Y-71115400D01*
X104866160Y-71640044D01*
X104858668Y-71653764D01*
X104140116Y-71653764D01*
X104141332Y-71651538D01*
X104141203Y-71649732D01*
X104137021Y-71643225D01*
X103613994Y-71120198D01*
X103601813Y-71113547D01*
X103595525Y-71118254D01*
X103533157Y-71231700D01*
X103528406Y-71242785D01*
X103469808Y-71427508D01*
X103467299Y-71439315D01*
X103445698Y-71631890D01*
X103445530Y-71643966D01*
X98852213Y-71643966D01*
X98964681Y-71618207D01*
X98971968Y-71616538D01*
X99112625Y-71545795D01*
X99118306Y-71540943D01*
X99118309Y-71540941D01*
X99226666Y-71448395D01*
X99226667Y-71448394D01*
X99232348Y-71443542D01*
X99243393Y-71428172D01*
X99263798Y-71399775D01*
X99324224Y-71315683D01*
X99382950Y-71169598D01*
X99384793Y-71156649D01*
X99404562Y-71017744D01*
X99404562Y-71017740D01*
X99405134Y-71013723D01*
X99405278Y-71000000D01*
X99399116Y-70949077D01*
X99410604Y-70880159D01*
X99434537Y-70846500D01*
X99526490Y-70754547D01*
X103959886Y-70754547D01*
X103962301Y-70761399D01*
X104487393Y-71286491D01*
X104501113Y-71293983D01*
X104502919Y-71293854D01*
X104509426Y-71289672D01*
X105032703Y-70766395D01*
X105039172Y-70754547D01*
X123959886Y-70754547D01*
X123962301Y-70761399D01*
X124487393Y-71286491D01*
X124501113Y-71293983D01*
X124502919Y-71293854D01*
X124509426Y-71289672D01*
X125032703Y-70766395D01*
X125039354Y-70754214D01*
X125034769Y-70748089D01*
X124914195Y-70682896D01*
X124903068Y-70678218D01*
X124717937Y-70620911D01*
X124706130Y-70618487D01*
X124513395Y-70598230D01*
X124501329Y-70598145D01*
X124308340Y-70615708D01*
X124296477Y-70617971D01*
X124110575Y-70672685D01*
X124099386Y-70677206D01*
X123969875Y-70744913D01*
X123959886Y-70754547D01*
X105039172Y-70754547D01*
X105039354Y-70754214D01*
X105034769Y-70748089D01*
X104914195Y-70682896D01*
X104903068Y-70678218D01*
X104717937Y-70620911D01*
X104706130Y-70618487D01*
X104513395Y-70598230D01*
X104501329Y-70598145D01*
X104308340Y-70615708D01*
X104296477Y-70617971D01*
X104110575Y-70672685D01*
X104099386Y-70677206D01*
X103969875Y-70744913D01*
X103959886Y-70754547D01*
X99526490Y-70754547D01*
X100119218Y-70161819D01*
X100180541Y-70128334D01*
X100206899Y-70125500D01*
X129652907Y-70125500D01*
X129719946Y-70145185D01*
X129746771Y-70168472D01*
X129749790Y-70171969D01*
X129753958Y-70178172D01*
X129759488Y-70183204D01*
X129759489Y-70183205D01*
X129864878Y-70279102D01*
X129864882Y-70279105D01*
X129870410Y-70284135D01*
X129876980Y-70287702D01*
X129876981Y-70287703D01*
X130002208Y-70355696D01*
X130008776Y-70359262D01*
X130103362Y-70384076D01*
X130153841Y-70397319D01*
X130153843Y-70397319D01*
X130161069Y-70399215D01*
X130238127Y-70400425D01*
X130311025Y-70401571D01*
X130311028Y-70401571D01*
X130318495Y-70401688D01*
X130325776Y-70400020D01*
X130325780Y-70400020D01*
X130464681Y-70368207D01*
X130471968Y-70366538D01*
X130612625Y-70295795D01*
X130618306Y-70290943D01*
X130618309Y-70290941D01*
X130726666Y-70198395D01*
X130726667Y-70198394D01*
X130732348Y-70193542D01*
X130743393Y-70178172D01*
X130781241Y-70125500D01*
X130824224Y-70065683D01*
X130882950Y-69919598D01*
X130905134Y-69763723D01*
X130905278Y-69750000D01*
X130886363Y-69593694D01*
X130830710Y-69446412D01*
X130822977Y-69435160D01*
X130745768Y-69322821D01*
X130745765Y-69322818D01*
X130741531Y-69316657D01*
X130623976Y-69211919D01*
X130484831Y-69138245D01*
X130332128Y-69099889D01*
X130250329Y-69099461D01*
X130182158Y-69099104D01*
X130182157Y-69099104D01*
X130174684Y-69099065D01*
X130167421Y-69100809D01*
X130167418Y-69100809D01*
X130098136Y-69117442D01*
X130021588Y-69135820D01*
X129881679Y-69208032D01*
X129763034Y-69311533D01*
X129758736Y-69317649D01*
X129755820Y-69321798D01*
X129701168Y-69365329D01*
X129654367Y-69374500D01*
X100053284Y-69374500D01*
X100029349Y-69371953D01*
X100027948Y-69371887D01*
X100017934Y-69369731D01*
X100007761Y-69370935D01*
X99984898Y-69373641D01*
X99979016Y-69373988D01*
X99979023Y-69374078D01*
X99973918Y-69374500D01*
X99968807Y-69374500D01*
X99949947Y-69377639D01*
X99944168Y-69378461D01*
X99903968Y-69383219D01*
X99903966Y-69383220D01*
X99893790Y-69384424D01*
X99885623Y-69388346D01*
X99876687Y-69389833D01*
X99832043Y-69413922D01*
X99826840Y-69416574D01*
X99781100Y-69438537D01*
X99776869Y-69442094D01*
X99774983Y-69443980D01*
X99773053Y-69445751D01*
X99773000Y-69445779D01*
X99772883Y-69445652D01*
X99772326Y-69446143D01*
X99766671Y-69449194D01*
X99759711Y-69456723D01*
X99759710Y-69456724D01*
X99730447Y-69488381D01*
X99727072Y-69491891D01*
X98905469Y-70313494D01*
X98844146Y-70346979D01*
X98817143Y-70349811D01*
X98709988Y-70349250D01*
X98682158Y-70349104D01*
X98682157Y-70349104D01*
X98674684Y-70349065D01*
X98667421Y-70350809D01*
X98667418Y-70350809D01*
X98598136Y-70367442D01*
X98521588Y-70385820D01*
X98381679Y-70458032D01*
X98263034Y-70561533D01*
X98172501Y-70690348D01*
X98115309Y-70837039D01*
X98094758Y-70993138D01*
X89750500Y-70993138D01*
X89750500Y-68243138D01*
X93844758Y-68243138D01*
X93845578Y-68250566D01*
X93845578Y-68250568D01*
X93847474Y-68267744D01*
X93862035Y-68399633D01*
X93916143Y-68547490D01*
X94003958Y-68678172D01*
X94026183Y-68698395D01*
X94114878Y-68779102D01*
X94114882Y-68779105D01*
X94120410Y-68784135D01*
X94258776Y-68859262D01*
X94361031Y-68886088D01*
X94403841Y-68897319D01*
X94403843Y-68897319D01*
X94411069Y-68899215D01*
X94488127Y-68900425D01*
X94561025Y-68901571D01*
X94561028Y-68901571D01*
X94568495Y-68901688D01*
X94575776Y-68900020D01*
X94575780Y-68900020D01*
X94714681Y-68868207D01*
X94721968Y-68866538D01*
X94862625Y-68795795D01*
X94868306Y-68790943D01*
X94868309Y-68790941D01*
X94976666Y-68698395D01*
X94976667Y-68698394D01*
X94982348Y-68693542D01*
X94994133Y-68677141D01*
X95049237Y-68634187D01*
X95094831Y-68625500D01*
X102402907Y-68625500D01*
X102469946Y-68645185D01*
X102496771Y-68668472D01*
X102499790Y-68671969D01*
X102503958Y-68678172D01*
X102509488Y-68683204D01*
X102509489Y-68683205D01*
X102614878Y-68779102D01*
X102614882Y-68779105D01*
X102620410Y-68784135D01*
X102758776Y-68859262D01*
X102861031Y-68886088D01*
X102903841Y-68897319D01*
X102903843Y-68897319D01*
X102911069Y-68899215D01*
X102988127Y-68900425D01*
X103061025Y-68901571D01*
X103061028Y-68901571D01*
X103068495Y-68901688D01*
X103075776Y-68900020D01*
X103075780Y-68900020D01*
X103214681Y-68868207D01*
X103221968Y-68866538D01*
X103362625Y-68795795D01*
X103368306Y-68790943D01*
X103368309Y-68790941D01*
X103476666Y-68698395D01*
X103476667Y-68698394D01*
X103482348Y-68693542D01*
X103493393Y-68678172D01*
X103531241Y-68625500D01*
X103574224Y-68565683D01*
X103632950Y-68419598D01*
X103634793Y-68406649D01*
X103654562Y-68267744D01*
X103654562Y-68267740D01*
X103655134Y-68263723D01*
X103655278Y-68250000D01*
X103636363Y-68093694D01*
X103580710Y-67946412D01*
X103517757Y-67854815D01*
X103495768Y-67822821D01*
X103495765Y-67822818D01*
X103491531Y-67816657D01*
X103373976Y-67711919D01*
X103234831Y-67638245D01*
X103082128Y-67599889D01*
X103000329Y-67599461D01*
X102932158Y-67599104D01*
X102932157Y-67599104D01*
X102924684Y-67599065D01*
X102917421Y-67600809D01*
X102917418Y-67600809D01*
X102848136Y-67617442D01*
X102771588Y-67635820D01*
X102631679Y-67708032D01*
X102513034Y-67811533D01*
X102508736Y-67817649D01*
X102505820Y-67821798D01*
X102451168Y-67865329D01*
X102404367Y-67874500D01*
X95096525Y-67874500D01*
X95029486Y-67854815D01*
X95001522Y-67827705D01*
X95000707Y-67828424D01*
X94995767Y-67822821D01*
X94991531Y-67816657D01*
X94873976Y-67711919D01*
X94734831Y-67638245D01*
X94582128Y-67599889D01*
X94500329Y-67599461D01*
X94432158Y-67599104D01*
X94432157Y-67599104D01*
X94424684Y-67599065D01*
X94417421Y-67600809D01*
X94417418Y-67600809D01*
X94348136Y-67617442D01*
X94271588Y-67635820D01*
X94131679Y-67708032D01*
X94013034Y-67811533D01*
X93922501Y-67940348D01*
X93865309Y-68087039D01*
X93844758Y-68243138D01*
X89750500Y-68243138D01*
X89750500Y-65969674D01*
X110757000Y-65969674D01*
X110771534Y-66042740D01*
X110826899Y-66125601D01*
X110837052Y-66132385D01*
X110861826Y-66148938D01*
X110909760Y-66180966D01*
X110943813Y-66187740D01*
X110976847Y-66194311D01*
X110976850Y-66194311D01*
X110982826Y-66195500D01*
X112937174Y-66195500D01*
X112943150Y-66194311D01*
X112943153Y-66194311D01*
X112976187Y-66187740D01*
X113010240Y-66180966D01*
X113058174Y-66148938D01*
X113082948Y-66132385D01*
X113093101Y-66125601D01*
X113148466Y-66042740D01*
X113163000Y-65969674D01*
X113163000Y-65835547D01*
X113182685Y-65768508D01*
X113235489Y-65722753D01*
X113304647Y-65712809D01*
X113368203Y-65741834D01*
X113389861Y-65766297D01*
X113441743Y-65843360D01*
X113445363Y-65847155D01*
X113445364Y-65847156D01*
X113596608Y-66005700D01*
X113600234Y-66009501D01*
X113784451Y-66146562D01*
X113989128Y-66250626D01*
X113994134Y-66252180D01*
X113994133Y-66252180D01*
X114203400Y-66317159D01*
X114203406Y-66317160D01*
X114208413Y-66318715D01*
X114213617Y-66319405D01*
X114213618Y-66319405D01*
X114430834Y-66348196D01*
X114430838Y-66348196D01*
X114436035Y-66348885D01*
X114579164Y-66343511D01*
X114660241Y-66340467D01*
X114660242Y-66340467D01*
X114665485Y-66340270D01*
X114670615Y-66339194D01*
X114670620Y-66339193D01*
X114885073Y-66294197D01*
X114885075Y-66294196D01*
X114890205Y-66293120D01*
X114895083Y-66291194D01*
X114895085Y-66291193D01*
X115003823Y-66248250D01*
X115103767Y-66208780D01*
X115108251Y-66206059D01*
X115108255Y-66206057D01*
X115295574Y-66092388D01*
X115300065Y-66089663D01*
X115388831Y-66012636D01*
X115469520Y-65942618D01*
X115469524Y-65942614D01*
X115473487Y-65939175D01*
X115613425Y-65768508D01*
X115615746Y-65765677D01*
X115615747Y-65765676D01*
X115619074Y-65761618D01*
X115630336Y-65741834D01*
X115730070Y-65566629D01*
X115730073Y-65566623D01*
X115732664Y-65562071D01*
X115738345Y-65546420D01*
X115779722Y-65490120D01*
X115844969Y-65465128D01*
X115913370Y-65479378D01*
X115966116Y-65533885D01*
X116007792Y-65618396D01*
X116013711Y-65628054D01*
X116139136Y-65796018D01*
X116146717Y-65804438D01*
X116300653Y-65946735D01*
X116309638Y-65953630D01*
X116486928Y-66065492D01*
X116497019Y-66070633D01*
X116691720Y-66148311D01*
X116702592Y-66151532D01*
X116772512Y-66165439D01*
X116785184Y-66164306D01*
X116789183Y-66151922D01*
X117290000Y-66151922D01*
X117293746Y-66164680D01*
X117308427Y-66166586D01*
X117346960Y-66159965D01*
X117357896Y-66157034D01*
X117554576Y-66084476D01*
X117564794Y-66079602D01*
X117744949Y-65972421D01*
X117754117Y-65965760D01*
X117911728Y-65827539D01*
X117919517Y-65819331D01*
X118049304Y-65654696D01*
X118055470Y-65645202D01*
X118153075Y-65459684D01*
X118157413Y-65449213D01*
X118219576Y-65249015D01*
X118221930Y-65237944D01*
X118224917Y-65212702D01*
X118222513Y-65198512D01*
X118209973Y-65195000D01*
X117307830Y-65195000D01*
X117292831Y-65199404D01*
X117291644Y-65200774D01*
X117290000Y-65208332D01*
X117290000Y-66151922D01*
X116789183Y-66151922D01*
X116790000Y-66149393D01*
X116790000Y-64677170D01*
X117290000Y-64677170D01*
X117294404Y-64692169D01*
X117295774Y-64693356D01*
X117303332Y-64695000D01*
X118211215Y-64695000D01*
X118225532Y-64690796D01*
X118227373Y-64679968D01*
X118225886Y-64671950D01*
X118168983Y-64470188D01*
X118164926Y-64459617D01*
X118072208Y-64271604D01*
X118066289Y-64261946D01*
X117940864Y-64093982D01*
X117933283Y-64085562D01*
X117779347Y-63943265D01*
X117770362Y-63936370D01*
X117593072Y-63824508D01*
X117582981Y-63819367D01*
X117388280Y-63741689D01*
X117377408Y-63738468D01*
X117307488Y-63724561D01*
X117294816Y-63725694D01*
X117290000Y-63740607D01*
X117290000Y-64677170D01*
X116790000Y-64677170D01*
X116790000Y-63738078D01*
X116786254Y-63725320D01*
X116771573Y-63723414D01*
X116733040Y-63730035D01*
X116722104Y-63732966D01*
X116525424Y-63805524D01*
X116515206Y-63810398D01*
X116335051Y-63917579D01*
X116325883Y-63924240D01*
X116168272Y-64062461D01*
X116160483Y-64070669D01*
X116030696Y-64235304D01*
X116024533Y-64244794D01*
X115962657Y-64362400D01*
X115914022Y-64412563D01*
X115845987Y-64428469D01*
X115780153Y-64405067D01*
X115739861Y-64355592D01*
X115697676Y-64261946D01*
X115686488Y-64237109D01*
X115558257Y-64046640D01*
X115432056Y-63914347D01*
X115403392Y-63884300D01*
X115399766Y-63880499D01*
X115215549Y-63743438D01*
X115010872Y-63639374D01*
X114980988Y-63630095D01*
X114796600Y-63572841D01*
X114796594Y-63572840D01*
X114791587Y-63571285D01*
X114786383Y-63570595D01*
X114786382Y-63570595D01*
X114569166Y-63541804D01*
X114569162Y-63541804D01*
X114563965Y-63541115D01*
X114420836Y-63546489D01*
X114339759Y-63549533D01*
X114339758Y-63549533D01*
X114334515Y-63549730D01*
X114329385Y-63550806D01*
X114329380Y-63550807D01*
X114114927Y-63595803D01*
X114114925Y-63595804D01*
X114109795Y-63596880D01*
X114104917Y-63598806D01*
X114104915Y-63598807D01*
X114033966Y-63626827D01*
X113896233Y-63681220D01*
X113891749Y-63683941D01*
X113891745Y-63683943D01*
X113793701Y-63743438D01*
X113699935Y-63800337D01*
X113657565Y-63837104D01*
X113530480Y-63947382D01*
X113530476Y-63947386D01*
X113526513Y-63950825D01*
X113416036Y-64085562D01*
X113382888Y-64125989D01*
X113325159Y-64165349D01*
X113255315Y-64167250D01*
X113195531Y-64131089D01*
X113164788Y-64068346D01*
X113163000Y-64047366D01*
X113163000Y-63920326D01*
X113148466Y-63847260D01*
X113093101Y-63764399D01*
X113059113Y-63741689D01*
X113033478Y-63724561D01*
X113010240Y-63709034D01*
X112976187Y-63702260D01*
X112943153Y-63695689D01*
X112943150Y-63695689D01*
X112937174Y-63694500D01*
X110982826Y-63694500D01*
X110976850Y-63695689D01*
X110976847Y-63695689D01*
X110943813Y-63702260D01*
X110909760Y-63709034D01*
X110886522Y-63724561D01*
X110860888Y-63741689D01*
X110826899Y-63764399D01*
X110771534Y-63847260D01*
X110757000Y-63920326D01*
X110757000Y-65969674D01*
X89750500Y-65969674D01*
X89750500Y-62036885D01*
X89752883Y-62012694D01*
X89753025Y-62011980D01*
X89755408Y-62000000D01*
X89753025Y-61988022D01*
X89753025Y-61975805D01*
X89753339Y-61975805D01*
X89752611Y-61965099D01*
X89764850Y-61762759D01*
X91166731Y-61762759D01*
X91192255Y-61863260D01*
X91196028Y-61873916D01*
X91275910Y-62047193D01*
X91281574Y-62057002D01*
X91391689Y-62212812D01*
X91399039Y-62221417D01*
X91535709Y-62354555D01*
X91544512Y-62361683D01*
X91703147Y-62467680D01*
X91713105Y-62473087D01*
X91888396Y-62548397D01*
X91899178Y-62551901D01*
X91967609Y-62567385D01*
X91981462Y-62566510D01*
X91984907Y-62557504D01*
X92485000Y-62557504D01*
X92488903Y-62570798D01*
X92498736Y-62572206D01*
X92678937Y-62511036D01*
X92689293Y-62506425D01*
X92855753Y-62413202D01*
X92865090Y-62406785D01*
X92903699Y-62374674D01*
X93674500Y-62374674D01*
X93675689Y-62380650D01*
X93675689Y-62380653D01*
X93676818Y-62386326D01*
X93689034Y-62447740D01*
X93744399Y-62530601D01*
X93827260Y-62585966D01*
X93861313Y-62592740D01*
X93894347Y-62599311D01*
X93894350Y-62599311D01*
X93900326Y-62600500D01*
X95649674Y-62600500D01*
X95655650Y-62599311D01*
X95655653Y-62599311D01*
X95688687Y-62592740D01*
X95722740Y-62585966D01*
X95805601Y-62530601D01*
X95860966Y-62447740D01*
X95873182Y-62386326D01*
X95874311Y-62380653D01*
X95874311Y-62380650D01*
X95875500Y-62374674D01*
X95875500Y-61762759D01*
X133166731Y-61762759D01*
X133192255Y-61863260D01*
X133196028Y-61873916D01*
X133275910Y-62047193D01*
X133281574Y-62057002D01*
X133391689Y-62212812D01*
X133399039Y-62221417D01*
X133535709Y-62354555D01*
X133544512Y-62361683D01*
X133703147Y-62467680D01*
X133713105Y-62473087D01*
X133888396Y-62548397D01*
X133899178Y-62551901D01*
X133967609Y-62567385D01*
X133981462Y-62566510D01*
X133984907Y-62557504D01*
X134485000Y-62557504D01*
X134488903Y-62570798D01*
X134498736Y-62572206D01*
X134678937Y-62511036D01*
X134689293Y-62506425D01*
X134855753Y-62413202D01*
X134865090Y-62406785D01*
X135011777Y-62284787D01*
X135019787Y-62276777D01*
X135141785Y-62130090D01*
X135148202Y-62120753D01*
X135241425Y-61954293D01*
X135246034Y-61943940D01*
X135283082Y-61834802D01*
X135323271Y-61777648D01*
X135387980Y-61751295D01*
X135456665Y-61764109D01*
X135507518Y-61812023D01*
X135524501Y-61874660D01*
X135524501Y-62381518D01*
X135539354Y-62475304D01*
X135596950Y-62588342D01*
X135686658Y-62678050D01*
X135799696Y-62735646D01*
X135828933Y-62740277D01*
X135888661Y-62749737D01*
X135888666Y-62749737D01*
X135893481Y-62750500D01*
X135898359Y-62750500D01*
X136775632Y-62750499D01*
X137656518Y-62750499D01*
X137729151Y-62738996D01*
X137740669Y-62737172D01*
X137740670Y-62737172D01*
X137750304Y-62735646D01*
X137863342Y-62678050D01*
X137953050Y-62588342D01*
X138010646Y-62475304D01*
X138020482Y-62413202D01*
X138024737Y-62386339D01*
X138024737Y-62386334D01*
X138025500Y-62381519D01*
X138025499Y-60618482D01*
X138010646Y-60524696D01*
X137953050Y-60411658D01*
X137863342Y-60321950D01*
X137750304Y-60264354D01*
X137721067Y-60259723D01*
X137661339Y-60250263D01*
X137661334Y-60250263D01*
X137656519Y-60249500D01*
X137651641Y-60249500D01*
X136774368Y-60249501D01*
X135893482Y-60249501D01*
X135820849Y-60261004D01*
X135809331Y-60262828D01*
X135809330Y-60262828D01*
X135799696Y-60264354D01*
X135686658Y-60321950D01*
X135596950Y-60411658D01*
X135539354Y-60524696D01*
X135524500Y-60618481D01*
X135524500Y-61122989D01*
X135504815Y-61190028D01*
X135452011Y-61235783D01*
X135382853Y-61245727D01*
X135319297Y-61216702D01*
X135281155Y-61156647D01*
X135267881Y-61109579D01*
X135263819Y-61098998D01*
X135179441Y-60927894D01*
X135173517Y-60918228D01*
X135059366Y-60765362D01*
X135051785Y-60756942D01*
X134911683Y-60627432D01*
X134902701Y-60620540D01*
X134741331Y-60518724D01*
X134731253Y-60513589D01*
X134554035Y-60442886D01*
X134543182Y-60439670D01*
X134502484Y-60431576D01*
X134489816Y-60432710D01*
X134485000Y-60447623D01*
X134485000Y-62557504D01*
X133984907Y-62557504D01*
X133985000Y-62557261D01*
X133985000Y-61767830D01*
X133980596Y-61752831D01*
X133979226Y-61751644D01*
X133971668Y-61750000D01*
X133181321Y-61750000D01*
X133168004Y-61753910D01*
X133166731Y-61762759D01*
X95875500Y-61762759D01*
X95875500Y-61246850D01*
X133165809Y-61246850D01*
X133172433Y-61250000D01*
X133967170Y-61250000D01*
X133982169Y-61245596D01*
X133983356Y-61244226D01*
X133985000Y-61236668D01*
X133985000Y-60444587D01*
X133981254Y-60431829D01*
X133966573Y-60429923D01*
X133954685Y-60431966D01*
X133943745Y-60434897D01*
X133764737Y-60500936D01*
X133754524Y-60505808D01*
X133590557Y-60603358D01*
X133581390Y-60610018D01*
X133437942Y-60735819D01*
X133430152Y-60744028D01*
X133312027Y-60893868D01*
X133305864Y-60903360D01*
X133217025Y-61072214D01*
X133212694Y-61082669D01*
X133166023Y-61232975D01*
X133165809Y-61246850D01*
X95875500Y-61246850D01*
X95875500Y-60625326D01*
X95874139Y-60618481D01*
X95863349Y-60564241D01*
X95860966Y-60552260D01*
X95805601Y-60469399D01*
X95722740Y-60414034D01*
X95688687Y-60407260D01*
X95655653Y-60400689D01*
X95655650Y-60400689D01*
X95649674Y-60399500D01*
X93900326Y-60399500D01*
X93894350Y-60400689D01*
X93894347Y-60400689D01*
X93861313Y-60407260D01*
X93827260Y-60414034D01*
X93744399Y-60469399D01*
X93689034Y-60552260D01*
X93686651Y-60564241D01*
X93675862Y-60618481D01*
X93674500Y-60625326D01*
X93674500Y-62374674D01*
X92903699Y-62374674D01*
X93011777Y-62284787D01*
X93019787Y-62276777D01*
X93141785Y-62130090D01*
X93148202Y-62120753D01*
X93241425Y-61954293D01*
X93246036Y-61943937D01*
X93307215Y-61763709D01*
X93305821Y-61753930D01*
X93292467Y-61750000D01*
X92502830Y-61750000D01*
X92487831Y-61754404D01*
X92486644Y-61755774D01*
X92485000Y-61763332D01*
X92485000Y-62557504D01*
X91984907Y-62557504D01*
X91985000Y-62557261D01*
X91985000Y-61767830D01*
X91980596Y-61752831D01*
X91979226Y-61751644D01*
X91971668Y-61750000D01*
X91181321Y-61750000D01*
X91168004Y-61753910D01*
X91166731Y-61762759D01*
X89764850Y-61762759D01*
X89766448Y-61736338D01*
X89768253Y-61721475D01*
X89814515Y-61469033D01*
X89818099Y-61454495D01*
X89882704Y-61247169D01*
X89882803Y-61246850D01*
X91165809Y-61246850D01*
X91172433Y-61250000D01*
X91967170Y-61250000D01*
X91982169Y-61245596D01*
X91983356Y-61244226D01*
X91985000Y-61236668D01*
X91985000Y-61232170D01*
X92485000Y-61232170D01*
X92489404Y-61247169D01*
X92490774Y-61248356D01*
X92498332Y-61250000D01*
X93289654Y-61250000D01*
X93302971Y-61246090D01*
X93304123Y-61238082D01*
X93267880Y-61109574D01*
X93263823Y-61099007D01*
X93179441Y-60927894D01*
X93173517Y-60918228D01*
X93059366Y-60765362D01*
X93051785Y-60756942D01*
X92911683Y-60627432D01*
X92902701Y-60620540D01*
X92741331Y-60518724D01*
X92731253Y-60513589D01*
X92554035Y-60442886D01*
X92543182Y-60439670D01*
X92502484Y-60431576D01*
X92489816Y-60432710D01*
X92485000Y-60447623D01*
X92485000Y-61232170D01*
X91985000Y-61232170D01*
X91985000Y-60444587D01*
X91981254Y-60431829D01*
X91966573Y-60429923D01*
X91954685Y-60431966D01*
X91943745Y-60434897D01*
X91764737Y-60500936D01*
X91754524Y-60505808D01*
X91590557Y-60603358D01*
X91581390Y-60610018D01*
X91437942Y-60735819D01*
X91430152Y-60744028D01*
X91312027Y-60893868D01*
X91305864Y-60903360D01*
X91217025Y-61072214D01*
X91212694Y-61082669D01*
X91166023Y-61232975D01*
X91165809Y-61246850D01*
X89882803Y-61246850D01*
X89894450Y-61209477D01*
X89899758Y-61195479D01*
X90005090Y-60961443D01*
X90012048Y-60948185D01*
X90144818Y-60728557D01*
X90153324Y-60716234D01*
X90311601Y-60514208D01*
X90321531Y-60503000D01*
X90503000Y-60321531D01*
X90514208Y-60311601D01*
X90716234Y-60153324D01*
X90728557Y-60144818D01*
X90948185Y-60012048D01*
X90961443Y-60005090D01*
X91195479Y-59899758D01*
X91209477Y-59894450D01*
X91288509Y-59869822D01*
X91454495Y-59818099D01*
X91469033Y-59814515D01*
X91721475Y-59768253D01*
X91736338Y-59766448D01*
X91797456Y-59762751D01*
X91965099Y-59752611D01*
X91975805Y-59753339D01*
X91975805Y-59753025D01*
X91988022Y-59753025D01*
X92000000Y-59755408D01*
X92011980Y-59753025D01*
X92012694Y-59752883D01*
X92036885Y-59750500D01*
X136963115Y-59750500D01*
X136987306Y-59752883D01*
G37*
%TD.AperFunction*%
%TD*%
M02*
