%TF.GenerationSoftware,KiCad,Pcbnew,(6.0.6)*%
%TF.CreationDate,2022-08-22T11:18:43+02:00*%
%TF.ProjectId,nixieboi_psu,6e697869-6562-46f6-995f-7073752e6b69,rev?*%
%TF.SameCoordinates,Original*%
%TF.FileFunction,Copper,L1,Top*%
%TF.FilePolarity,Positive*%
%FSLAX46Y46*%
G04 Gerber Fmt 4.6, Leading zero omitted, Abs format (unit mm)*
G04 Created by KiCad (PCBNEW (6.0.6)) date 2022-08-22 11:18:43*
%MOMM*%
%LPD*%
G01*
G04 APERTURE LIST*
G04 Aperture macros list*
%AMRoundRect*
0 Rectangle with rounded corners*
0 $1 Rounding radius*
0 $2 $3 $4 $5 $6 $7 $8 $9 X,Y pos of 4 corners*
0 Add a 4 corners polygon primitive as box body*
4,1,4,$2,$3,$4,$5,$6,$7,$8,$9,$2,$3,0*
0 Add four circle primitives for the rounded corners*
1,1,$1+$1,$2,$3*
1,1,$1+$1,$4,$5*
1,1,$1+$1,$6,$7*
1,1,$1+$1,$8,$9*
0 Add four rect primitives between the rounded corners*
20,1,$1+$1,$2,$3,$4,$5,0*
20,1,$1+$1,$4,$5,$6,$7,0*
20,1,$1+$1,$6,$7,$8,$9,0*
20,1,$1+$1,$8,$9,$2,$3,0*%
G04 Aperture macros list end*
%TA.AperFunction,SMDPad,CuDef*%
%ADD10RoundRect,0.150000X-0.825000X-0.150000X0.825000X-0.150000X0.825000X0.150000X-0.825000X0.150000X0*%
%TD*%
%TA.AperFunction,ComponentPad*%
%ADD11R,1.905000X2.000000*%
%TD*%
%TA.AperFunction,ComponentPad*%
%ADD12O,1.905000X2.000000*%
%TD*%
%TA.AperFunction,SMDPad,CuDef*%
%ADD13RoundRect,0.200000X0.200000X0.275000X-0.200000X0.275000X-0.200000X-0.275000X0.200000X-0.275000X0*%
%TD*%
%TA.AperFunction,SMDPad,CuDef*%
%ADD14RoundRect,0.150000X0.587500X0.150000X-0.587500X0.150000X-0.587500X-0.150000X0.587500X-0.150000X0*%
%TD*%
%TA.AperFunction,SMDPad,CuDef*%
%ADD15RoundRect,0.225000X0.225000X0.250000X-0.225000X0.250000X-0.225000X-0.250000X0.225000X-0.250000X0*%
%TD*%
%TA.AperFunction,SMDPad,CuDef*%
%ADD16RoundRect,0.200000X-0.275000X0.200000X-0.275000X-0.200000X0.275000X-0.200000X0.275000X0.200000X0*%
%TD*%
%TA.AperFunction,ComponentPad*%
%ADD17C,2.600000*%
%TD*%
%TA.AperFunction,SMDPad,CuDef*%
%ADD18R,1.200000X1.200000*%
%TD*%
%TA.AperFunction,SMDPad,CuDef*%
%ADD19R,1.600000X1.500000*%
%TD*%
%TA.AperFunction,SMDPad,CuDef*%
%ADD20R,2.500000X1.800000*%
%TD*%
%TA.AperFunction,ComponentPad*%
%ADD21R,1.600000X1.600000*%
%TD*%
%TA.AperFunction,ComponentPad*%
%ADD22C,1.600000*%
%TD*%
%TA.AperFunction,SMDPad,CuDef*%
%ADD23R,1.200000X0.900000*%
%TD*%
%TA.AperFunction,ComponentPad*%
%ADD24R,1.700000X1.700000*%
%TD*%
%TA.AperFunction,ComponentPad*%
%ADD25O,1.700000X1.700000*%
%TD*%
%TA.AperFunction,ViaPad*%
%ADD26C,0.800000*%
%TD*%
%TA.AperFunction,Conductor*%
%ADD27C,0.500000*%
%TD*%
%TA.AperFunction,Conductor*%
%ADD28C,0.250000*%
%TD*%
G04 APERTURE END LIST*
D10*
%TO.P,U1,1,SwC*%
%TO.N,+12V*%
X92025000Y-67095000D03*
%TO.P,U1,2,SwE*%
%TO.N,Net-(D2-Pad2)*%
X92025000Y-68365000D03*
%TO.P,U1,3,TC*%
%TO.N,Net-(C2-Pad1)*%
X92025000Y-69635000D03*
%TO.P,U1,4,GND*%
%TO.N,GND*%
X92025000Y-70905000D03*
%TO.P,U1,5,Vfb*%
%TO.N,Net-(C3-Pad2)*%
X96975000Y-70905000D03*
%TO.P,U1,6,Vin*%
%TO.N,+12V*%
X96975000Y-69635000D03*
%TO.P,U1,7,Ipk*%
X96975000Y-68365000D03*
%TO.P,U1,8,DC*%
X96975000Y-67095000D03*
%TD*%
D11*
%TO.P,Q1,1,G*%
%TO.N,Net-(D2-Pad1)*%
X111960000Y-64945000D03*
D12*
%TO.P,Q1,2,D*%
%TO.N,Net-(D1-Pad2)*%
X114500000Y-64945000D03*
%TO.P,Q1,3,S*%
%TO.N,GND*%
X117040000Y-64945000D03*
%TD*%
D13*
%TO.P,R2,1*%
%TO.N,Net-(D2-Pad2)*%
X103075000Y-67000000D03*
%TO.P,R2,2*%
%TO.N,GND*%
X101425000Y-67000000D03*
%TD*%
D14*
%TO.P,Q2,1,B*%
%TO.N,Net-(D2-Pad2)*%
X103187500Y-64200000D03*
%TO.P,Q2,2,E*%
%TO.N,Net-(D2-Pad1)*%
X103187500Y-62300000D03*
%TO.P,Q2,3,C*%
%TO.N,GND*%
X101312500Y-63250000D03*
%TD*%
D15*
%TO.P,C3,1*%
%TO.N,GND*%
X136775000Y-66000000D03*
%TO.P,C3,2*%
%TO.N,Net-(C3-Pad2)*%
X135225000Y-66000000D03*
%TD*%
D16*
%TO.P,R1,1*%
%TO.N,Net-(C3-Pad2)*%
X137500000Y-67675000D03*
%TO.P,R1,2*%
%TO.N,GND*%
X137500000Y-69325000D03*
%TD*%
%TO.P,R4,1*%
%TO.N,HT*%
X131500000Y-64175000D03*
%TO.P,R4,2*%
%TO.N,Net-(R3-Pad1)*%
X131500000Y-65825000D03*
%TD*%
D17*
%TO.P,L1,1,1*%
%TO.N,+12V*%
X112000000Y-73500000D03*
%TO.P,L1,2,2*%
%TO.N,Net-(D1-Pad2)*%
X117000000Y-73500000D03*
%TD*%
D16*
%TO.P,R3,1*%
%TO.N,Net-(R3-Pad1)*%
X131500000Y-67675000D03*
%TO.P,R3,2*%
%TO.N,Net-(C3-Pad2)*%
X131500000Y-69325000D03*
%TD*%
D18*
%TO.P,RV1,1,1*%
%TO.N,Net-(R5-Pad2)*%
X135400000Y-71380000D03*
D19*
%TO.P,RV1,2,2*%
%TO.N,GND*%
X134000000Y-74620000D03*
D18*
%TO.P,RV1,3,3*%
X132600000Y-71380000D03*
%TD*%
D20*
%TO.P,D1,1,K*%
%TO.N,HT*%
X126500000Y-65000000D03*
%TO.P,D1,2,A*%
%TO.N,Net-(D1-Pad2)*%
X122500000Y-65000000D03*
%TD*%
D21*
%TO.P,C4,1*%
%TO.N,HT*%
X124500000Y-75152651D03*
D22*
%TO.P,C4,2*%
%TO.N,GND*%
X124500000Y-71652651D03*
%TD*%
D21*
%TO.P,C1,1*%
%TO.N,+12V*%
X104500000Y-75152651D03*
D22*
%TO.P,C1,2*%
%TO.N,GND*%
X104500000Y-71652651D03*
%TD*%
D16*
%TO.P,R5,1*%
%TO.N,Net-(C3-Pad2)*%
X134500000Y-67675000D03*
%TO.P,R5,2*%
%TO.N,Net-(R5-Pad2)*%
X134500000Y-69325000D03*
%TD*%
D15*
%TO.P,C2,1*%
%TO.N,Net-(C2-Pad1)*%
X93275000Y-74500000D03*
%TO.P,C2,2*%
%TO.N,GND*%
X91725000Y-74500000D03*
%TD*%
D23*
%TO.P,D2,1,K*%
%TO.N,Net-(D2-Pad1)*%
X106750000Y-62350000D03*
%TO.P,D2,2,A*%
%TO.N,Net-(D2-Pad2)*%
X106750000Y-65650000D03*
%TD*%
D24*
%TO.P,J4,1,Pin_1*%
%TO.N,HT*%
X136775000Y-77500000D03*
D25*
%TO.P,J4,2,Pin_2*%
%TO.N,GND*%
X134235000Y-77500000D03*
%TD*%
D24*
%TO.P,J2,1,Pin_1*%
%TO.N,+12V*%
X94775000Y-77500000D03*
D25*
%TO.P,J2,2,Pin_2*%
%TO.N,GND*%
X92235000Y-77500000D03*
%TD*%
D24*
%TO.P,J3,1,Pin_1*%
%TO.N,HT*%
X136775000Y-61500000D03*
D25*
%TO.P,J3,2,Pin_2*%
%TO.N,GND*%
X134235000Y-61500000D03*
%TD*%
D24*
%TO.P,J1,1,Pin_1*%
%TO.N,+12V*%
X94775000Y-61500000D03*
D25*
%TO.P,J1,2,Pin_2*%
%TO.N,GND*%
X92235000Y-61500000D03*
%TD*%
D26*
%TO.N,GND*%
X92000000Y-64500000D03*
X129000000Y-71500000D03*
X99000000Y-74500000D03*
X133500000Y-66000000D03*
X108500000Y-68000000D03*
X124500000Y-67500000D03*
X120500000Y-61000000D03*
X120500000Y-77500000D03*
X91000000Y-73000000D03*
X98500000Y-64500000D03*
X94500000Y-69500000D03*
X108500000Y-77500000D03*
X138000000Y-72000000D03*
X129000000Y-67500000D03*
X108500000Y-61000000D03*
X120500000Y-68000000D03*
%TO.N,Net-(C3-Pad2)*%
X98750000Y-71000000D03*
X130250000Y-69750000D03*
%TO.N,Net-(D2-Pad2)*%
X94500000Y-68250000D03*
X103000000Y-68250000D03*
%TD*%
D27*
%TO.N,+12V*%
X104500000Y-75152651D02*
X110347349Y-75152651D01*
X104500000Y-75152651D02*
X98982349Y-69635000D01*
X94775000Y-77500000D02*
X94775000Y-71281472D01*
X96975000Y-69635000D02*
X96975000Y-68365000D01*
X94905000Y-67095000D02*
X95405000Y-67095000D01*
X96421472Y-69635000D02*
X96975000Y-69635000D01*
X94775000Y-71281472D02*
X96421472Y-69635000D01*
X95405000Y-67095000D02*
X96975000Y-67095000D01*
X110347349Y-75152651D02*
X112000000Y-73500000D01*
X96975000Y-67095000D02*
X96975000Y-68365000D01*
X92025000Y-67095000D02*
X94905000Y-67095000D01*
X94775000Y-66965000D02*
X94905000Y-67095000D01*
X98982349Y-69635000D02*
X96975000Y-69635000D01*
X94775000Y-61500000D02*
X94775000Y-66965000D01*
D28*
%TO.N,Net-(C2-Pad1)*%
X93135000Y-69635000D02*
X92025000Y-69635000D01*
X93275000Y-74500000D02*
X94000000Y-73775000D01*
X94000000Y-70500000D02*
X93135000Y-69635000D01*
X94000000Y-73775000D02*
X94000000Y-70500000D01*
%TO.N,Net-(C3-Pad2)*%
X134500000Y-67675000D02*
X134500000Y-66725000D01*
X97070000Y-71000000D02*
X96975000Y-70905000D01*
X134500000Y-67675000D02*
X133150000Y-67675000D01*
X133150000Y-67675000D02*
X131500000Y-69325000D01*
X134500000Y-67675000D02*
X137500000Y-67675000D01*
X98750000Y-71000000D02*
X97070000Y-71000000D01*
X130250000Y-69750000D02*
X131075000Y-69750000D01*
X131075000Y-69750000D02*
X131500000Y-69325000D01*
X134500000Y-66725000D02*
X135225000Y-66000000D01*
D27*
%TO.N,HT*%
X126500000Y-73152651D02*
X126500000Y-65000000D01*
X124500000Y-75152651D02*
X126500000Y-73152651D01*
X126500000Y-65000000D02*
X127325000Y-64175000D01*
X131500000Y-64175000D02*
X134100000Y-64175000D01*
X127325000Y-64175000D02*
X131500000Y-64175000D01*
X135382651Y-73152651D02*
X136775000Y-74545000D01*
X126500000Y-73152651D02*
X135382651Y-73152651D01*
X136775000Y-74545000D02*
X136775000Y-77500000D01*
X134100000Y-64175000D02*
X136775000Y-61500000D01*
%TO.N,Net-(D1-Pad2)*%
X122500000Y-65000000D02*
X122500000Y-68000000D01*
X114500000Y-71000000D02*
X117000000Y-73500000D01*
X122500000Y-68000000D02*
X117000000Y-73500000D01*
X114500000Y-64945000D02*
X114500000Y-71000000D01*
D28*
%TO.N,Net-(D2-Pad1)*%
X106750000Y-62350000D02*
X109365000Y-62350000D01*
X109365000Y-62350000D02*
X111960000Y-64945000D01*
X103187500Y-62300000D02*
X103237500Y-62350000D01*
X103237500Y-62350000D02*
X106750000Y-62350000D01*
%TO.N,Net-(D2-Pad2)*%
X106750000Y-65650000D02*
X105400000Y-67000000D01*
X103075000Y-67000000D02*
X103075000Y-64312500D01*
X103075000Y-64312500D02*
X103187500Y-64200000D01*
X92140000Y-68250000D02*
X92025000Y-68365000D01*
X94500000Y-68250000D02*
X92140000Y-68250000D01*
X103075000Y-68175000D02*
X103000000Y-68250000D01*
X105400000Y-67000000D02*
X103075000Y-67000000D01*
X103075000Y-67000000D02*
X103075000Y-68175000D01*
%TO.N,Net-(R3-Pad1)*%
X131500000Y-65825000D02*
X131500000Y-67675000D01*
%TO.N,Net-(R5-Pad2)*%
X134500000Y-69325000D02*
X134500000Y-70480000D01*
X134500000Y-70480000D02*
X135400000Y-71380000D01*
%TD*%
%TA.AperFunction,Conductor*%
%TO.N,GND*%
G36*
X136987306Y-59752883D02*
G01*
X137000000Y-59755408D01*
X137011978Y-59753025D01*
X137024195Y-59753025D01*
X137024195Y-59753339D01*
X137034901Y-59752611D01*
X137202544Y-59762751D01*
X137263662Y-59766448D01*
X137278525Y-59768253D01*
X137530967Y-59814515D01*
X137545505Y-59818099D01*
X137711491Y-59869822D01*
X137790523Y-59894450D01*
X137804521Y-59899758D01*
X138038557Y-60005090D01*
X138051815Y-60012048D01*
X138271443Y-60144818D01*
X138283766Y-60153324D01*
X138485792Y-60311601D01*
X138497000Y-60321531D01*
X138678469Y-60503000D01*
X138688399Y-60514208D01*
X138846676Y-60716234D01*
X138855182Y-60728557D01*
X138987952Y-60948185D01*
X138994910Y-60961443D01*
X139100242Y-61195479D01*
X139105550Y-61209477D01*
X139117296Y-61247169D01*
X139181901Y-61454495D01*
X139185485Y-61469033D01*
X139222464Y-61670820D01*
X139231367Y-61719399D01*
X139231747Y-61721475D01*
X139233552Y-61736338D01*
X139236925Y-61792104D01*
X139247389Y-61965099D01*
X139246661Y-61975805D01*
X139246975Y-61975805D01*
X139246975Y-61988022D01*
X139244592Y-62000000D01*
X139246975Y-62011980D01*
X139247117Y-62012694D01*
X139249500Y-62036885D01*
X139249500Y-76963115D01*
X139247117Y-76987306D01*
X139244592Y-77000000D01*
X139246975Y-77011978D01*
X139246975Y-77024195D01*
X139246661Y-77024195D01*
X139247389Y-77034901D01*
X139242872Y-77109574D01*
X139234728Y-77244226D01*
X139233552Y-77263660D01*
X139231747Y-77278525D01*
X139185485Y-77530967D01*
X139181901Y-77545505D01*
X139130178Y-77711491D01*
X139113782Y-77764109D01*
X139105552Y-77790519D01*
X139100242Y-77804520D01*
X139084842Y-77838738D01*
X138994910Y-78038557D01*
X138987952Y-78051815D01*
X138855182Y-78271443D01*
X138846676Y-78283766D01*
X138688399Y-78485792D01*
X138678469Y-78497000D01*
X138497000Y-78678469D01*
X138485792Y-78688399D01*
X138283766Y-78846676D01*
X138271443Y-78855182D01*
X138051815Y-78987952D01*
X138038557Y-78994910D01*
X137804521Y-79100242D01*
X137790523Y-79105550D01*
X137711491Y-79130178D01*
X137545505Y-79181901D01*
X137530967Y-79185485D01*
X137278525Y-79231747D01*
X137263662Y-79233552D01*
X137202544Y-79237249D01*
X137034901Y-79247389D01*
X137024195Y-79246661D01*
X137024195Y-79246975D01*
X137011978Y-79246975D01*
X137000000Y-79244592D01*
X136988020Y-79246975D01*
X136987306Y-79247117D01*
X136963115Y-79249500D01*
X92036885Y-79249500D01*
X92012694Y-79247117D01*
X92011980Y-79246975D01*
X92000000Y-79244592D01*
X91988022Y-79246975D01*
X91975805Y-79246975D01*
X91975805Y-79246661D01*
X91965099Y-79247389D01*
X91797456Y-79237249D01*
X91736338Y-79233552D01*
X91721475Y-79231747D01*
X91469033Y-79185485D01*
X91454495Y-79181901D01*
X91288509Y-79130178D01*
X91209477Y-79105550D01*
X91195479Y-79100242D01*
X90961443Y-78994910D01*
X90948185Y-78987952D01*
X90728557Y-78855182D01*
X90716234Y-78846676D01*
X90514208Y-78688399D01*
X90503000Y-78678469D01*
X90321531Y-78497000D01*
X90311601Y-78485792D01*
X90153324Y-78283766D01*
X90144818Y-78271443D01*
X90012048Y-78051815D01*
X90005090Y-78038557D01*
X89915158Y-77838738D01*
X89899758Y-77804520D01*
X89894448Y-77790519D01*
X89886219Y-77764109D01*
X89885798Y-77762759D01*
X91166731Y-77762759D01*
X91192255Y-77863260D01*
X91196028Y-77873916D01*
X91275910Y-78047193D01*
X91281574Y-78057002D01*
X91391689Y-78212812D01*
X91399039Y-78221417D01*
X91535709Y-78354555D01*
X91544512Y-78361683D01*
X91703147Y-78467680D01*
X91713105Y-78473087D01*
X91888396Y-78548397D01*
X91899178Y-78551901D01*
X91967609Y-78567385D01*
X91981462Y-78566510D01*
X91984907Y-78557504D01*
X92485000Y-78557504D01*
X92488903Y-78570798D01*
X92498736Y-78572206D01*
X92678937Y-78511036D01*
X92689293Y-78506425D01*
X92855753Y-78413202D01*
X92865090Y-78406785D01*
X93011777Y-78284787D01*
X93019787Y-78276777D01*
X93141785Y-78130090D01*
X93148202Y-78120753D01*
X93241425Y-77954293D01*
X93246036Y-77943937D01*
X93307215Y-77763709D01*
X93305821Y-77753930D01*
X93292467Y-77750000D01*
X92502830Y-77750000D01*
X92487831Y-77754404D01*
X92486644Y-77755774D01*
X92485000Y-77763332D01*
X92485000Y-78557504D01*
X91984907Y-78557504D01*
X91985000Y-78557261D01*
X91985000Y-77767830D01*
X91980596Y-77752831D01*
X91979226Y-77751644D01*
X91971668Y-77750000D01*
X91181321Y-77750000D01*
X91168004Y-77753910D01*
X91166731Y-77762759D01*
X89885798Y-77762759D01*
X89869822Y-77711491D01*
X89818099Y-77545505D01*
X89814515Y-77530967D01*
X89768253Y-77278525D01*
X89766448Y-77263660D01*
X89765432Y-77246850D01*
X91165809Y-77246850D01*
X91172433Y-77250000D01*
X91967170Y-77250000D01*
X91982169Y-77245596D01*
X91983356Y-77244226D01*
X91985000Y-77236668D01*
X91985000Y-77232170D01*
X92485000Y-77232170D01*
X92489404Y-77247169D01*
X92490774Y-77248356D01*
X92498332Y-77250000D01*
X93289654Y-77250000D01*
X93302971Y-77246090D01*
X93304123Y-77238082D01*
X93267880Y-77109574D01*
X93263823Y-77099007D01*
X93179441Y-76927894D01*
X93173517Y-76918228D01*
X93059366Y-76765362D01*
X93051785Y-76756942D01*
X92911683Y-76627432D01*
X92902701Y-76620540D01*
X92741331Y-76518724D01*
X92731253Y-76513589D01*
X92554035Y-76442886D01*
X92543182Y-76439670D01*
X92502484Y-76431576D01*
X92489816Y-76432710D01*
X92485000Y-76447623D01*
X92485000Y-77232170D01*
X91985000Y-77232170D01*
X91985000Y-76444587D01*
X91981254Y-76431829D01*
X91966573Y-76429923D01*
X91954685Y-76431966D01*
X91943745Y-76434897D01*
X91764737Y-76500936D01*
X91754524Y-76505808D01*
X91590557Y-76603358D01*
X91581390Y-76610018D01*
X91437942Y-76735819D01*
X91430152Y-76744028D01*
X91312027Y-76893868D01*
X91305864Y-76903360D01*
X91217025Y-77072214D01*
X91212694Y-77082669D01*
X91166023Y-77232975D01*
X91165809Y-77246850D01*
X89765432Y-77246850D01*
X89765273Y-77244226D01*
X89757128Y-77109574D01*
X89752611Y-77034901D01*
X89753339Y-77024195D01*
X89753025Y-77024195D01*
X89753025Y-77011978D01*
X89755408Y-77000000D01*
X89752883Y-76987306D01*
X89750500Y-76963115D01*
X89750500Y-74791606D01*
X91025000Y-74791606D01*
X91025363Y-74798303D01*
X91030470Y-74845320D01*
X91034040Y-74860329D01*
X91075968Y-74972175D01*
X91084372Y-74987525D01*
X91155372Y-75082261D01*
X91167739Y-75094628D01*
X91262475Y-75165628D01*
X91277825Y-75174032D01*
X91389671Y-75215960D01*
X91404680Y-75219530D01*
X91451697Y-75224637D01*
X91457361Y-75224944D01*
X91472169Y-75220596D01*
X91473356Y-75219226D01*
X91475000Y-75211668D01*
X91475000Y-74767830D01*
X91470596Y-74752831D01*
X91469226Y-74751644D01*
X91461668Y-74750000D01*
X91042830Y-74750000D01*
X91027831Y-74754404D01*
X91026644Y-74755774D01*
X91025000Y-74763332D01*
X91025000Y-74791606D01*
X89750500Y-74791606D01*
X89750500Y-74232170D01*
X91025000Y-74232170D01*
X91029404Y-74247169D01*
X91030774Y-74248356D01*
X91038332Y-74250000D01*
X91457170Y-74250000D01*
X91472169Y-74245596D01*
X91473356Y-74244226D01*
X91475000Y-74236668D01*
X91475000Y-73792830D01*
X91470596Y-73777831D01*
X91469226Y-73776644D01*
X91461668Y-73775000D01*
X91458394Y-73775000D01*
X91451697Y-73775363D01*
X91404680Y-73780470D01*
X91389671Y-73784040D01*
X91277825Y-73825968D01*
X91262475Y-73834372D01*
X91167739Y-73905372D01*
X91155372Y-73917739D01*
X91084372Y-74012475D01*
X91075968Y-74027825D01*
X91034040Y-74139671D01*
X91030470Y-74154680D01*
X91025363Y-74201697D01*
X91025000Y-74208394D01*
X91025000Y-74232170D01*
X89750500Y-74232170D01*
X89750500Y-71172137D01*
X90813838Y-71172137D01*
X90819266Y-71188844D01*
X90867929Y-71284350D01*
X90879261Y-71299947D01*
X90955053Y-71375739D01*
X90970650Y-71387071D01*
X91066155Y-71435734D01*
X91084495Y-71441692D01*
X91163697Y-71454236D01*
X91173399Y-71455000D01*
X91757170Y-71455000D01*
X91772169Y-71450596D01*
X91773356Y-71449226D01*
X91775000Y-71441668D01*
X91775000Y-71437169D01*
X92275000Y-71437169D01*
X92279404Y-71452168D01*
X92280774Y-71453355D01*
X92288332Y-71454999D01*
X92876609Y-71454999D01*
X92886289Y-71454237D01*
X92965513Y-71441691D01*
X92983840Y-71435736D01*
X93079350Y-71387071D01*
X93094947Y-71375739D01*
X93170739Y-71299947D01*
X93182071Y-71284350D01*
X93230734Y-71188844D01*
X93236259Y-71171838D01*
X93234619Y-71159145D01*
X93220867Y-71155000D01*
X92292830Y-71155000D01*
X92277831Y-71159404D01*
X92276644Y-71160774D01*
X92275000Y-71168332D01*
X92275000Y-71437169D01*
X91775000Y-71437169D01*
X91775000Y-71172830D01*
X91770596Y-71157831D01*
X91769226Y-71156644D01*
X91761668Y-71155000D01*
X90828682Y-71155000D01*
X90815655Y-71158825D01*
X90813838Y-71172137D01*
X89750500Y-71172137D01*
X89750500Y-69453481D01*
X90799500Y-69453481D01*
X90799501Y-69816518D01*
X90814354Y-69910304D01*
X90871950Y-70023342D01*
X90961658Y-70113050D01*
X91032245Y-70149016D01*
X91053400Y-70159795D01*
X91104196Y-70207770D01*
X91120991Y-70275591D01*
X91098454Y-70341726D01*
X91053400Y-70380765D01*
X90970650Y-70422928D01*
X90955053Y-70434261D01*
X90879261Y-70510053D01*
X90867929Y-70525650D01*
X90819266Y-70621156D01*
X90813741Y-70638162D01*
X90815381Y-70650855D01*
X90829133Y-70655000D01*
X93221318Y-70655000D01*
X93234345Y-70651175D01*
X93236162Y-70637863D01*
X93230732Y-70621150D01*
X93212823Y-70586002D01*
X93199926Y-70517333D01*
X93226202Y-70452593D01*
X93283308Y-70412335D01*
X93353114Y-70409343D01*
X93410988Y-70442026D01*
X93588181Y-70619219D01*
X93621666Y-70680542D01*
X93624500Y-70706900D01*
X93624500Y-73568101D01*
X93604815Y-73635140D01*
X93588181Y-73655782D01*
X93505782Y-73738181D01*
X93444459Y-73771666D01*
X93418101Y-73774500D01*
X93033529Y-73774501D01*
X93004986Y-73774501D01*
X93001645Y-73774864D01*
X93001643Y-73774864D01*
X92954573Y-73779976D01*
X92954570Y-73779977D01*
X92946843Y-73780816D01*
X92887265Y-73803151D01*
X92827579Y-73825526D01*
X92827578Y-73825527D01*
X92819305Y-73828628D01*
X92812238Y-73833924D01*
X92812235Y-73833926D01*
X92756577Y-73875640D01*
X92710313Y-73910313D01*
X92705018Y-73917378D01*
X92633926Y-74012235D01*
X92633924Y-74012238D01*
X92628628Y-74019305D01*
X92625526Y-74027578D01*
X92625525Y-74027581D01*
X92615842Y-74053411D01*
X92573878Y-74109275D01*
X92508373Y-74133583D01*
X92440125Y-74118617D01*
X92390802Y-74069130D01*
X92383624Y-74053412D01*
X92374031Y-74027823D01*
X92365628Y-74012475D01*
X92294628Y-73917739D01*
X92282261Y-73905372D01*
X92187525Y-73834372D01*
X92172175Y-73825968D01*
X92060329Y-73784040D01*
X92045320Y-73780470D01*
X91998303Y-73775363D01*
X91992639Y-73775056D01*
X91977831Y-73779404D01*
X91976644Y-73780774D01*
X91975000Y-73788332D01*
X91975000Y-75207170D01*
X91979404Y-75222169D01*
X91980774Y-75223356D01*
X91988332Y-75225000D01*
X91991606Y-75225000D01*
X91998303Y-75224637D01*
X92045320Y-75219530D01*
X92060329Y-75215960D01*
X92172175Y-75174032D01*
X92187525Y-75165628D01*
X92282261Y-75094628D01*
X92294628Y-75082261D01*
X92365628Y-74987525D01*
X92374031Y-74972177D01*
X92383624Y-74946588D01*
X92425589Y-74890724D01*
X92491094Y-74866417D01*
X92559342Y-74881384D01*
X92608665Y-74930872D01*
X92615842Y-74946589D01*
X92625435Y-74972177D01*
X92628628Y-74980695D01*
X92633924Y-74987762D01*
X92633926Y-74987765D01*
X92705018Y-75082622D01*
X92710313Y-75089687D01*
X92717378Y-75094982D01*
X92812235Y-75166074D01*
X92812238Y-75166076D01*
X92819305Y-75171372D01*
X92827578Y-75174473D01*
X92827579Y-75174474D01*
X92830428Y-75175542D01*
X92946843Y-75219184D01*
X92954574Y-75220024D01*
X92954575Y-75220024D01*
X92959841Y-75220596D01*
X93004985Y-75225500D01*
X93274959Y-75225500D01*
X93545014Y-75225499D01*
X93548355Y-75225136D01*
X93548357Y-75225136D01*
X93595427Y-75220024D01*
X93595430Y-75220023D01*
X93603157Y-75219184D01*
X93719572Y-75175542D01*
X93722421Y-75174474D01*
X93722422Y-75174473D01*
X93730695Y-75171372D01*
X93737762Y-75166076D01*
X93737765Y-75166074D01*
X93832622Y-75094982D01*
X93839687Y-75089687D01*
X93844982Y-75082622D01*
X93916074Y-74987765D01*
X93916076Y-74987762D01*
X93921372Y-74980695D01*
X93969184Y-74853157D01*
X93975500Y-74795015D01*
X93975499Y-74381900D01*
X93995183Y-74314861D01*
X94011818Y-74294219D01*
X94062819Y-74243218D01*
X94124142Y-74209733D01*
X94193834Y-74214717D01*
X94249767Y-74256589D01*
X94274184Y-74322053D01*
X94274500Y-74330899D01*
X94274500Y-76275500D01*
X94254815Y-76342539D01*
X94202011Y-76388294D01*
X94150500Y-76399500D01*
X93900326Y-76399500D01*
X93894350Y-76400689D01*
X93894347Y-76400689D01*
X93861313Y-76407260D01*
X93827260Y-76414034D01*
X93744399Y-76469399D01*
X93689034Y-76552260D01*
X93686651Y-76564241D01*
X93675862Y-76618481D01*
X93674500Y-76625326D01*
X93674500Y-78374674D01*
X93675689Y-78380650D01*
X93675689Y-78380653D01*
X93676818Y-78386326D01*
X93689034Y-78447740D01*
X93744399Y-78530601D01*
X93827260Y-78585966D01*
X93861313Y-78592740D01*
X93894347Y-78599311D01*
X93894350Y-78599311D01*
X93900326Y-78600500D01*
X95649674Y-78600500D01*
X95655650Y-78599311D01*
X95655653Y-78599311D01*
X95688687Y-78592740D01*
X95722740Y-78585966D01*
X95805601Y-78530601D01*
X95860966Y-78447740D01*
X95873182Y-78386326D01*
X95874311Y-78380653D01*
X95874311Y-78380650D01*
X95875500Y-78374674D01*
X95875500Y-77762759D01*
X133166731Y-77762759D01*
X133192255Y-77863260D01*
X133196028Y-77873916D01*
X133275910Y-78047193D01*
X133281574Y-78057002D01*
X133391689Y-78212812D01*
X133399039Y-78221417D01*
X133535709Y-78354555D01*
X133544512Y-78361683D01*
X133703147Y-78467680D01*
X133713105Y-78473087D01*
X133888396Y-78548397D01*
X133899178Y-78551901D01*
X133967609Y-78567385D01*
X133981462Y-78566510D01*
X133985000Y-78557261D01*
X133985000Y-77767830D01*
X133980596Y-77752831D01*
X133979226Y-77751644D01*
X133971668Y-77750000D01*
X133181321Y-77750000D01*
X133168004Y-77753910D01*
X133166731Y-77762759D01*
X95875500Y-77762759D01*
X95875500Y-77246850D01*
X133165809Y-77246850D01*
X133172433Y-77250000D01*
X133967170Y-77250000D01*
X133982169Y-77245596D01*
X133983356Y-77244226D01*
X133985000Y-77236668D01*
X133985000Y-76444587D01*
X133981254Y-76431829D01*
X133966573Y-76429923D01*
X133954685Y-76431966D01*
X133943745Y-76434897D01*
X133764737Y-76500936D01*
X133754524Y-76505808D01*
X133590557Y-76603358D01*
X133581390Y-76610018D01*
X133437942Y-76735819D01*
X133430152Y-76744028D01*
X133312027Y-76893868D01*
X133305864Y-76903360D01*
X133217025Y-77072214D01*
X133212694Y-77082669D01*
X133166023Y-77232975D01*
X133165809Y-77246850D01*
X95875500Y-77246850D01*
X95875500Y-76625326D01*
X95874139Y-76618481D01*
X95863349Y-76564241D01*
X95860966Y-76552260D01*
X95805601Y-76469399D01*
X95722740Y-76414034D01*
X95688687Y-76407260D01*
X95655653Y-76400689D01*
X95655650Y-76400689D01*
X95649674Y-76399500D01*
X95399500Y-76399500D01*
X95332461Y-76379815D01*
X95286706Y-76327011D01*
X95275500Y-76275500D01*
X95275500Y-71540148D01*
X95295185Y-71473109D01*
X95311819Y-71452467D01*
X95582788Y-71181498D01*
X95644111Y-71148013D01*
X95713803Y-71152997D01*
X95769736Y-71194869D01*
X95780953Y-71212884D01*
X95817516Y-71284642D01*
X95817520Y-71284647D01*
X95821950Y-71293342D01*
X95911658Y-71383050D01*
X96024696Y-71440646D01*
X96042981Y-71443542D01*
X96113661Y-71454737D01*
X96113666Y-71454737D01*
X96118481Y-71455500D01*
X96123359Y-71455500D01*
X96975615Y-71455499D01*
X97831518Y-71455499D01*
X97907018Y-71443542D01*
X97915669Y-71442172D01*
X97915670Y-71442172D01*
X97925304Y-71440646D01*
X98026635Y-71389015D01*
X98082930Y-71375500D01*
X98152907Y-71375500D01*
X98219946Y-71395185D01*
X98246771Y-71418472D01*
X98249790Y-71421969D01*
X98253958Y-71428172D01*
X98259488Y-71433204D01*
X98259489Y-71433205D01*
X98364878Y-71529102D01*
X98364882Y-71529105D01*
X98370410Y-71534135D01*
X98376980Y-71537702D01*
X98376981Y-71537703D01*
X98382945Y-71540941D01*
X98508776Y-71609262D01*
X98604612Y-71634404D01*
X98653841Y-71647319D01*
X98653843Y-71647319D01*
X98661069Y-71649215D01*
X98738127Y-71650425D01*
X98811025Y-71651571D01*
X98811028Y-71651571D01*
X98818495Y-71651688D01*
X98825776Y-71650020D01*
X98825780Y-71650020D01*
X98964681Y-71618207D01*
X98971968Y-71616538D01*
X99112625Y-71545795D01*
X99118306Y-71540943D01*
X99118309Y-71540941D01*
X99226666Y-71448395D01*
X99226667Y-71448394D01*
X99232348Y-71443542D01*
X99236928Y-71437169D01*
X99272633Y-71387480D01*
X99324224Y-71315683D01*
X99382950Y-71169598D01*
X99401081Y-71042199D01*
X99430015Y-70978603D01*
X99488739Y-70940744D01*
X99558608Y-70940644D01*
X99611525Y-70971990D01*
X103413181Y-74773645D01*
X103446666Y-74834968D01*
X103449500Y-74861326D01*
X103449500Y-75977325D01*
X103450689Y-75983301D01*
X103450689Y-75983304D01*
X103451818Y-75988977D01*
X103464034Y-76050391D01*
X103519399Y-76133252D01*
X103602260Y-76188617D01*
X103636313Y-76195391D01*
X103669347Y-76201962D01*
X103669350Y-76201962D01*
X103675326Y-76203151D01*
X105324674Y-76203151D01*
X105330650Y-76201962D01*
X105330653Y-76201962D01*
X105363687Y-76195391D01*
X105397740Y-76188617D01*
X105480601Y-76133252D01*
X105535966Y-76050391D01*
X105548182Y-75988977D01*
X105549311Y-75983304D01*
X105549311Y-75983301D01*
X105550500Y-75977325D01*
X105550500Y-75777151D01*
X105570185Y-75710112D01*
X105622989Y-75664357D01*
X105674500Y-75653151D01*
X110277388Y-75653151D01*
X110289334Y-75654486D01*
X110289372Y-75654012D01*
X110298181Y-75654721D01*
X110306796Y-75656670D01*
X110315613Y-75656123D01*
X110315614Y-75656123D01*
X110359677Y-75653389D01*
X110367356Y-75653151D01*
X110383289Y-75653151D01*
X110387657Y-75652525D01*
X110387663Y-75652525D01*
X110393479Y-75651692D01*
X110403378Y-75650678D01*
X110435801Y-75648666D01*
X110441071Y-75648339D01*
X110449887Y-75647792D01*
X110458198Y-75644791D01*
X110461030Y-75644205D01*
X110477733Y-75640041D01*
X110480517Y-75639227D01*
X110489267Y-75637974D01*
X110531697Y-75618682D01*
X110540903Y-75614935D01*
X110576424Y-75602112D01*
X110576426Y-75602111D01*
X110584736Y-75599111D01*
X110591874Y-75593896D01*
X110594434Y-75592535D01*
X110609304Y-75583846D01*
X110611734Y-75582292D01*
X110619777Y-75578635D01*
X110655092Y-75548205D01*
X110662880Y-75542022D01*
X110673685Y-75534129D01*
X110684485Y-75523329D01*
X110691224Y-75517072D01*
X110721694Y-75490818D01*
X110721697Y-75490815D01*
X110728386Y-75485051D01*
X110733192Y-75477636D01*
X110738534Y-75471512D01*
X110748000Y-75459814D01*
X111255213Y-74952601D01*
X111316536Y-74919116D01*
X111390344Y-74925721D01*
X111519388Y-74979172D01*
X111524120Y-74980308D01*
X111524126Y-74980310D01*
X111648112Y-75010076D01*
X111756698Y-75036146D01*
X111761542Y-75036527D01*
X111761547Y-75036528D01*
X111995146Y-75054912D01*
X112000000Y-75055294D01*
X112004854Y-75054912D01*
X112238453Y-75036528D01*
X112238458Y-75036527D01*
X112243302Y-75036146D01*
X112351888Y-75010076D01*
X112475874Y-74980310D01*
X112475880Y-74980308D01*
X112480612Y-74979172D01*
X112485115Y-74977307D01*
X112485118Y-74977306D01*
X112635386Y-74915063D01*
X112706089Y-74885777D01*
X112722413Y-74875774D01*
X112910021Y-74760807D01*
X112914179Y-74758259D01*
X113099759Y-74599759D01*
X113258259Y-74414179D01*
X113309514Y-74330538D01*
X113383231Y-74210244D01*
X113383232Y-74210242D01*
X113385777Y-74206089D01*
X113443873Y-74065832D01*
X113477306Y-73985118D01*
X113477308Y-73985113D01*
X113479172Y-73980612D01*
X113481376Y-73971434D01*
X113525335Y-73788332D01*
X113536146Y-73743302D01*
X113538584Y-73712331D01*
X113554912Y-73504854D01*
X113555294Y-73500000D01*
X113536146Y-73256698D01*
X113479172Y-73019388D01*
X113473596Y-73005925D01*
X113387642Y-72798414D01*
X113385777Y-72793911D01*
X113353576Y-72741363D01*
X113260807Y-72589979D01*
X113258259Y-72585821D01*
X113099759Y-72400241D01*
X112914179Y-72241741D01*
X112834873Y-72193142D01*
X112710244Y-72116769D01*
X112710242Y-72116768D01*
X112706089Y-72114223D01*
X112589086Y-72065759D01*
X112485118Y-72022694D01*
X112485113Y-72022692D01*
X112480612Y-72020828D01*
X112475880Y-72019692D01*
X112475874Y-72019690D01*
X112351888Y-71989924D01*
X112243302Y-71963854D01*
X112238458Y-71963473D01*
X112238453Y-71963472D01*
X112004854Y-71945088D01*
X112000000Y-71944706D01*
X111995146Y-71945088D01*
X111761547Y-71963472D01*
X111761542Y-71963473D01*
X111756698Y-71963854D01*
X111648112Y-71989924D01*
X111524126Y-72019690D01*
X111524120Y-72019692D01*
X111519388Y-72020828D01*
X111514887Y-72022692D01*
X111514882Y-72022694D01*
X111410914Y-72065759D01*
X111293911Y-72114223D01*
X111289758Y-72116768D01*
X111289756Y-72116769D01*
X111165127Y-72193142D01*
X111085821Y-72241741D01*
X110900241Y-72400241D01*
X110741741Y-72585821D01*
X110739193Y-72589979D01*
X110646425Y-72741363D01*
X110614223Y-72793911D01*
X110612358Y-72798414D01*
X110526405Y-73005925D01*
X110520828Y-73019388D01*
X110463854Y-73256698D01*
X110444706Y-73500000D01*
X110445088Y-73504854D01*
X110461417Y-73712331D01*
X110463854Y-73743302D01*
X110474665Y-73788332D01*
X110518625Y-73971434D01*
X110520828Y-73980612D01*
X110574279Y-74109656D01*
X110581748Y-74179123D01*
X110547399Y-74244787D01*
X110176354Y-74615832D01*
X110115031Y-74649317D01*
X110088673Y-74652151D01*
X105674500Y-74652151D01*
X105607461Y-74632466D01*
X105561706Y-74579662D01*
X105550500Y-74528151D01*
X105550500Y-74327977D01*
X105549139Y-74321132D01*
X105538349Y-74266892D01*
X105535966Y-74254911D01*
X105492105Y-74189267D01*
X105487385Y-74182203D01*
X105480601Y-74172050D01*
X105397740Y-74116685D01*
X105360488Y-74109275D01*
X105330653Y-74103340D01*
X105330650Y-74103340D01*
X105324674Y-74102151D01*
X104208676Y-74102151D01*
X104141637Y-74082466D01*
X104120995Y-74065832D01*
X102605791Y-72550628D01*
X103961106Y-72550628D01*
X103965938Y-72557083D01*
X104072307Y-72616530D01*
X104083366Y-72621362D01*
X104267667Y-72681244D01*
X104279458Y-72683837D01*
X104471883Y-72706783D01*
X104483949Y-72707036D01*
X104677166Y-72692168D01*
X104689057Y-72690071D01*
X104875702Y-72637959D01*
X104886953Y-72633595D01*
X105030784Y-72560941D01*
X105040908Y-72551446D01*
X105038705Y-72544909D01*
X104512607Y-72018811D01*
X104498887Y-72011319D01*
X104497081Y-72011448D01*
X104490574Y-72015630D01*
X103967757Y-72538447D01*
X103961106Y-72550628D01*
X102605791Y-72550628D01*
X101699129Y-71643966D01*
X103445530Y-71643966D01*
X103461744Y-71837063D01*
X103463926Y-71848951D01*
X103517337Y-72035217D01*
X103521783Y-72046448D01*
X103592005Y-72183085D01*
X103601571Y-72193142D01*
X103608262Y-72190836D01*
X104133840Y-71665258D01*
X104140116Y-71653764D01*
X104858668Y-71653764D01*
X104858797Y-71655570D01*
X104862979Y-71662077D01*
X105385623Y-72184721D01*
X105397804Y-72191372D01*
X105404432Y-72186411D01*
X105460866Y-72087068D01*
X105465780Y-72076031D01*
X105526947Y-71892159D01*
X105529622Y-71880386D01*
X105554235Y-71685554D01*
X105554718Y-71678644D01*
X105555033Y-71656113D01*
X105554743Y-71649203D01*
X105535579Y-71453754D01*
X105533235Y-71441915D01*
X105477224Y-71256397D01*
X105472623Y-71245235D01*
X105407520Y-71122793D01*
X105397817Y-71112872D01*
X105390804Y-71115400D01*
X104866160Y-71640044D01*
X104858668Y-71653764D01*
X104140116Y-71653764D01*
X104141332Y-71651538D01*
X104141203Y-71649732D01*
X104137021Y-71643225D01*
X103613994Y-71120198D01*
X103601813Y-71113547D01*
X103595525Y-71118254D01*
X103533157Y-71231700D01*
X103528406Y-71242785D01*
X103469808Y-71427508D01*
X103467299Y-71439315D01*
X103445698Y-71631890D01*
X103445530Y-71643966D01*
X101699129Y-71643966D01*
X100809710Y-70754547D01*
X103959886Y-70754547D01*
X103962301Y-70761399D01*
X104487393Y-71286491D01*
X104501113Y-71293983D01*
X104502919Y-71293854D01*
X104509426Y-71289672D01*
X105032703Y-70766395D01*
X105039354Y-70754214D01*
X105034769Y-70748089D01*
X104914195Y-70682896D01*
X104903068Y-70678218D01*
X104717937Y-70620911D01*
X104706130Y-70618487D01*
X104513395Y-70598230D01*
X104501329Y-70598145D01*
X104308340Y-70615708D01*
X104296477Y-70617971D01*
X104110575Y-70672685D01*
X104099386Y-70677206D01*
X103969875Y-70744913D01*
X103959886Y-70754547D01*
X100809710Y-70754547D01*
X99385724Y-69330561D01*
X99378221Y-69321172D01*
X99377859Y-69321480D01*
X99372134Y-69314754D01*
X99367419Y-69307280D01*
X99327706Y-69272207D01*
X99322108Y-69266945D01*
X99310843Y-69255680D01*
X99302611Y-69249510D01*
X99294892Y-69243227D01*
X99266582Y-69218224D01*
X99266580Y-69218223D01*
X99259961Y-69212377D01*
X99251965Y-69208623D01*
X99249560Y-69207043D01*
X99234778Y-69198160D01*
X99232241Y-69196771D01*
X99225173Y-69191474D01*
X99181536Y-69175115D01*
X99172381Y-69171258D01*
X99130186Y-69151447D01*
X99121452Y-69150087D01*
X99118674Y-69149238D01*
X99102027Y-69144870D01*
X99099197Y-69144248D01*
X99090929Y-69141148D01*
X99082125Y-69140494D01*
X99082122Y-69140493D01*
X99051866Y-69138245D01*
X99044446Y-69137694D01*
X99034576Y-69136561D01*
X99021340Y-69134500D01*
X99006064Y-69134500D01*
X98996875Y-69134159D01*
X98995758Y-69134076D01*
X98947957Y-69130524D01*
X98939317Y-69132368D01*
X98931195Y-69132922D01*
X98916243Y-69134500D01*
X98024052Y-69134500D01*
X97967756Y-69120984D01*
X97947149Y-69110484D01*
X97896354Y-69062510D01*
X97879559Y-68994688D01*
X97902097Y-68928554D01*
X97947150Y-68889515D01*
X97992244Y-68866538D01*
X98038342Y-68843050D01*
X98128050Y-68753342D01*
X98185646Y-68640304D01*
X98198563Y-68558750D01*
X98199737Y-68551339D01*
X98199737Y-68551334D01*
X98200500Y-68546519D01*
X98200499Y-68183482D01*
X98185646Y-68089696D01*
X98128050Y-67976658D01*
X98038342Y-67886950D01*
X97971454Y-67852869D01*
X97947150Y-67840485D01*
X97896354Y-67792510D01*
X97879559Y-67724689D01*
X97902097Y-67658554D01*
X97947150Y-67619515D01*
X97992258Y-67596531D01*
X98038342Y-67573050D01*
X98128050Y-67483342D01*
X98185646Y-67370304D01*
X98192686Y-67325857D01*
X100775001Y-67325857D01*
X100775275Y-67331670D01*
X100777267Y-67352748D01*
X100780482Y-67367406D01*
X100819742Y-67479202D01*
X100828320Y-67495402D01*
X100897703Y-67589339D01*
X100910661Y-67602297D01*
X101004598Y-67671680D01*
X101020798Y-67680258D01*
X101132597Y-67719518D01*
X101147248Y-67722733D01*
X101160594Y-67723995D01*
X101172169Y-67720596D01*
X101173356Y-67719226D01*
X101175000Y-67711668D01*
X101175000Y-67707169D01*
X101675000Y-67707169D01*
X101679404Y-67722168D01*
X101680774Y-67723355D01*
X101685436Y-67724369D01*
X101702748Y-67722733D01*
X101717406Y-67719518D01*
X101829202Y-67680258D01*
X101845402Y-67671680D01*
X101939339Y-67602297D01*
X101952297Y-67589339D01*
X102021680Y-67495402D01*
X102030258Y-67479202D01*
X102069518Y-67367403D01*
X102072733Y-67352752D01*
X102074725Y-67331685D01*
X102075000Y-67325840D01*
X102075000Y-67267830D01*
X102070596Y-67252831D01*
X102069226Y-67251644D01*
X102061668Y-67250000D01*
X101692830Y-67250000D01*
X101677831Y-67254404D01*
X101676644Y-67255774D01*
X101675000Y-67263332D01*
X101675000Y-67707169D01*
X101175000Y-67707169D01*
X101175000Y-67267830D01*
X101170596Y-67252831D01*
X101169226Y-67251644D01*
X101161668Y-67250000D01*
X100792831Y-67250000D01*
X100777832Y-67254404D01*
X100776645Y-67255774D01*
X100775001Y-67263332D01*
X100775001Y-67325857D01*
X98192686Y-67325857D01*
X98194178Y-67316435D01*
X98199737Y-67281339D01*
X98199737Y-67281334D01*
X98200500Y-67276519D01*
X98200499Y-66913482D01*
X98185646Y-66819696D01*
X98141049Y-66732170D01*
X100775000Y-66732170D01*
X100779404Y-66747169D01*
X100780774Y-66748356D01*
X100788332Y-66750000D01*
X101157170Y-66750000D01*
X101172169Y-66745596D01*
X101173356Y-66744226D01*
X101175000Y-66736668D01*
X101175000Y-66732170D01*
X101675000Y-66732170D01*
X101679404Y-66747169D01*
X101680774Y-66748356D01*
X101688332Y-66750000D01*
X102057169Y-66750000D01*
X102072168Y-66745596D01*
X102073355Y-66744226D01*
X102074999Y-66736668D01*
X102074999Y-66674143D01*
X102074725Y-66668330D01*
X102072733Y-66647252D01*
X102069518Y-66632594D01*
X102030258Y-66520798D01*
X102021680Y-66504598D01*
X101952297Y-66410661D01*
X101939339Y-66397703D01*
X101845402Y-66328320D01*
X101829202Y-66319742D01*
X101717403Y-66280482D01*
X101702752Y-66277267D01*
X101689406Y-66276005D01*
X101677831Y-66279404D01*
X101676644Y-66280774D01*
X101675000Y-66288332D01*
X101675000Y-66732170D01*
X101175000Y-66732170D01*
X101175000Y-66292831D01*
X101170596Y-66277832D01*
X101169226Y-66276645D01*
X101164564Y-66275631D01*
X101147252Y-66277267D01*
X101132594Y-66280482D01*
X101020798Y-66319742D01*
X101004598Y-66328320D01*
X100910661Y-66397703D01*
X100897703Y-66410661D01*
X100828320Y-66504598D01*
X100819742Y-66520798D01*
X100780482Y-66632597D01*
X100777267Y-66647248D01*
X100775275Y-66668315D01*
X100775000Y-66674160D01*
X100775000Y-66732170D01*
X98141049Y-66732170D01*
X98128050Y-66706658D01*
X98038342Y-66616950D01*
X97925304Y-66559354D01*
X97883810Y-66552782D01*
X97836339Y-66545263D01*
X97836334Y-66545263D01*
X97831519Y-66544500D01*
X97826641Y-66544500D01*
X96974386Y-66544501D01*
X96118482Y-66544501D01*
X96051658Y-66555084D01*
X96034331Y-66557828D01*
X96034330Y-66557828D01*
X96024696Y-66559354D01*
X96016003Y-66563783D01*
X96016004Y-66563783D01*
X95982243Y-66580985D01*
X95925948Y-66594500D01*
X95399500Y-66594500D01*
X95332461Y-66574815D01*
X95286706Y-66522011D01*
X95275500Y-66470500D01*
X95275500Y-63517137D01*
X100338838Y-63517137D01*
X100344266Y-63533844D01*
X100392929Y-63629350D01*
X100404261Y-63644947D01*
X100480053Y-63720739D01*
X100495650Y-63732071D01*
X100591155Y-63780734D01*
X100609495Y-63786692D01*
X100688697Y-63799236D01*
X100698399Y-63800000D01*
X101044670Y-63800000D01*
X101059669Y-63795596D01*
X101060856Y-63794226D01*
X101062500Y-63786668D01*
X101062500Y-63782169D01*
X101562500Y-63782169D01*
X101566904Y-63797168D01*
X101568274Y-63798355D01*
X101575832Y-63799999D01*
X101926609Y-63799999D01*
X101936289Y-63799237D01*
X102015513Y-63786691D01*
X102033841Y-63780736D01*
X102041410Y-63776879D01*
X102110079Y-63763981D01*
X102174820Y-63790255D01*
X102215079Y-63847361D01*
X102218073Y-63917166D01*
X102217922Y-63917693D01*
X102214354Y-63924696D01*
X102212828Y-63934331D01*
X102212828Y-63934332D01*
X102204908Y-63984338D01*
X102199500Y-64018481D01*
X102199501Y-64381518D01*
X102214354Y-64475304D01*
X102271950Y-64588342D01*
X102361658Y-64678050D01*
X102474696Y-64735646D01*
X102503933Y-64740277D01*
X102563661Y-64749737D01*
X102563666Y-64749737D01*
X102568481Y-64750500D01*
X102575500Y-64750500D01*
X102576284Y-64750730D01*
X102578212Y-64750882D01*
X102578180Y-64751287D01*
X102642539Y-64770185D01*
X102688294Y-64822989D01*
X102699500Y-64874500D01*
X102699500Y-66231964D01*
X102679815Y-66299003D01*
X102649172Y-66331705D01*
X102552850Y-66402850D01*
X102547343Y-66410306D01*
X102477875Y-66504358D01*
X102472366Y-66511816D01*
X102469297Y-66520555D01*
X102469296Y-66520557D01*
X102456316Y-66557519D01*
X102427481Y-66639631D01*
X102426770Y-66647150D01*
X102426770Y-66647151D01*
X102425024Y-66665628D01*
X102424500Y-66671166D01*
X102424500Y-67328834D01*
X102424775Y-67331738D01*
X102424775Y-67331748D01*
X102426761Y-67352752D01*
X102427481Y-67360369D01*
X102452551Y-67431758D01*
X102469295Y-67479438D01*
X102472366Y-67488184D01*
X102477871Y-67495637D01*
X102477872Y-67495639D01*
X102529951Y-67566148D01*
X102552850Y-67597150D01*
X102557013Y-67600225D01*
X102589462Y-67659651D01*
X102584478Y-67729343D01*
X102549812Y-67779450D01*
X102513034Y-67811533D01*
X102422501Y-67940348D01*
X102365309Y-68087039D01*
X102344758Y-68243138D01*
X102345578Y-68250566D01*
X102345578Y-68250568D01*
X102349545Y-68286498D01*
X102362035Y-68399633D01*
X102364601Y-68406645D01*
X102364602Y-68406649D01*
X102386742Y-68467147D01*
X102416143Y-68547490D01*
X102503958Y-68678172D01*
X102526183Y-68698395D01*
X102614878Y-68779102D01*
X102614882Y-68779105D01*
X102620410Y-68784135D01*
X102626980Y-68787702D01*
X102626981Y-68787703D01*
X102728917Y-68843050D01*
X102758776Y-68859262D01*
X102861031Y-68886088D01*
X102903841Y-68897319D01*
X102903843Y-68897319D01*
X102911069Y-68899215D01*
X102988127Y-68900425D01*
X103061025Y-68901571D01*
X103061028Y-68901571D01*
X103068495Y-68901688D01*
X103075776Y-68900020D01*
X103075780Y-68900020D01*
X103214681Y-68868207D01*
X103221968Y-68866538D01*
X103362625Y-68795795D01*
X103368306Y-68790943D01*
X103368309Y-68790941D01*
X103476666Y-68698395D01*
X103476667Y-68698394D01*
X103482348Y-68693542D01*
X103492091Y-68679984D01*
X103531241Y-68625500D01*
X103574224Y-68565683D01*
X103632950Y-68419598D01*
X103634793Y-68406649D01*
X103654562Y-68267744D01*
X103654562Y-68267740D01*
X103655134Y-68263723D01*
X103655278Y-68250000D01*
X103648998Y-68198102D01*
X103637262Y-68101119D01*
X103637261Y-68101115D01*
X103636363Y-68093694D01*
X103592139Y-67976658D01*
X103583354Y-67953408D01*
X103583352Y-67953405D01*
X103580710Y-67946412D01*
X103568629Y-67928834D01*
X103494912Y-67821576D01*
X103473162Y-67755177D01*
X103490763Y-67687561D01*
X103523428Y-67651602D01*
X103597150Y-67597150D01*
X103620049Y-67566148D01*
X103672126Y-67495642D01*
X103672128Y-67495639D01*
X103677634Y-67488184D01*
X103688088Y-67458415D01*
X103728873Y-67401684D01*
X103793855Y-67376009D01*
X103805084Y-67375500D01*
X105346716Y-67375500D01*
X105370651Y-67378047D01*
X105372052Y-67378113D01*
X105382066Y-67380269D01*
X105392239Y-67379065D01*
X105415102Y-67376359D01*
X105420984Y-67376012D01*
X105420977Y-67375922D01*
X105426082Y-67375500D01*
X105431193Y-67375500D01*
X105450053Y-67372361D01*
X105455832Y-67371539D01*
X105496032Y-67366781D01*
X105496034Y-67366780D01*
X105506210Y-67365576D01*
X105514377Y-67361654D01*
X105523313Y-67360167D01*
X105567958Y-67336077D01*
X105573163Y-67333425D01*
X105618900Y-67311463D01*
X105623131Y-67307906D01*
X105625017Y-67306020D01*
X105626947Y-67304249D01*
X105627000Y-67304221D01*
X105627117Y-67304348D01*
X105627674Y-67303857D01*
X105633329Y-67300806D01*
X105667970Y-67263332D01*
X105669553Y-67261619D01*
X105672928Y-67258109D01*
X106544218Y-66386819D01*
X106605541Y-66353334D01*
X106631899Y-66350500D01*
X107374674Y-66350500D01*
X107380650Y-66349311D01*
X107380653Y-66349311D01*
X107428998Y-66339694D01*
X107447740Y-66335966D01*
X107459184Y-66328320D01*
X107520448Y-66287385D01*
X107530601Y-66280601D01*
X107585966Y-66197740D01*
X107600500Y-66124674D01*
X107600500Y-65175326D01*
X107585966Y-65102260D01*
X107530601Y-65019399D01*
X107447740Y-64964034D01*
X107412047Y-64956934D01*
X107380653Y-64950689D01*
X107380650Y-64950689D01*
X107374674Y-64949500D01*
X106125326Y-64949500D01*
X106119350Y-64950689D01*
X106119347Y-64950689D01*
X106087953Y-64956934D01*
X106052260Y-64964034D01*
X105969399Y-65019399D01*
X105914034Y-65102260D01*
X105899500Y-65175326D01*
X105899500Y-65918101D01*
X105879815Y-65985140D01*
X105863181Y-66005782D01*
X105280782Y-66588181D01*
X105219459Y-66621666D01*
X105193101Y-66624500D01*
X103805084Y-66624500D01*
X103738045Y-66604815D01*
X103692290Y-66552011D01*
X103688088Y-66541585D01*
X103680705Y-66520562D01*
X103677634Y-66511816D01*
X103672128Y-66504361D01*
X103672126Y-66504358D01*
X103602657Y-66410306D01*
X103597150Y-66402850D01*
X103500829Y-66331706D01*
X103458599Y-66276043D01*
X103450500Y-66231964D01*
X103450500Y-64874499D01*
X103470185Y-64807460D01*
X103522989Y-64761705D01*
X103574500Y-64750499D01*
X103806518Y-64750499D01*
X103879151Y-64738996D01*
X103890669Y-64737172D01*
X103890670Y-64737172D01*
X103900304Y-64735646D01*
X104013342Y-64678050D01*
X104103050Y-64588342D01*
X104160646Y-64475304D01*
X104170583Y-64412563D01*
X104174737Y-64386339D01*
X104174737Y-64386334D01*
X104175500Y-64381519D01*
X104175499Y-64018482D01*
X104160646Y-63924696D01*
X104103050Y-63811658D01*
X104013342Y-63721950D01*
X103900304Y-63664354D01*
X103861329Y-63658181D01*
X103811339Y-63650263D01*
X103811334Y-63650263D01*
X103806519Y-63649500D01*
X103801641Y-63649500D01*
X103187056Y-63649501D01*
X102568482Y-63649501D01*
X102505990Y-63659398D01*
X102484331Y-63662828D01*
X102484330Y-63662828D01*
X102474696Y-63664354D01*
X102466005Y-63668782D01*
X102466003Y-63668783D01*
X102458171Y-63672774D01*
X102389502Y-63685672D01*
X102324761Y-63659398D01*
X102284502Y-63602292D01*
X102281508Y-63532487D01*
X102283941Y-63523977D01*
X102286260Y-63516840D01*
X102284619Y-63504145D01*
X102270867Y-63500000D01*
X101580330Y-63500000D01*
X101565331Y-63504404D01*
X101564144Y-63505774D01*
X101562500Y-63513332D01*
X101562500Y-63782169D01*
X101062500Y-63782169D01*
X101062500Y-63517830D01*
X101058096Y-63502831D01*
X101056726Y-63501644D01*
X101049168Y-63500000D01*
X100353682Y-63500000D01*
X100340655Y-63503825D01*
X100338838Y-63517137D01*
X95275500Y-63517137D01*
X95275500Y-62983162D01*
X100338741Y-62983162D01*
X100340381Y-62995855D01*
X100354133Y-63000000D01*
X101044670Y-63000000D01*
X101059669Y-62995596D01*
X101060856Y-62994226D01*
X101062500Y-62986668D01*
X101062500Y-62982170D01*
X101562500Y-62982170D01*
X101566904Y-62997169D01*
X101568274Y-62998356D01*
X101575832Y-63000000D01*
X102271318Y-63000000D01*
X102284345Y-62996175D01*
X102286163Y-62982861D01*
X102283941Y-62976023D01*
X102281948Y-62906182D01*
X102318031Y-62846350D01*
X102380733Y-62815524D01*
X102450147Y-62823491D01*
X102458171Y-62827226D01*
X102465999Y-62831215D01*
X102466001Y-62831216D01*
X102474696Y-62835646D01*
X102503933Y-62840277D01*
X102563661Y-62849737D01*
X102563666Y-62849737D01*
X102568481Y-62850500D01*
X102573359Y-62850500D01*
X103187944Y-62850499D01*
X103806518Y-62850499D01*
X103879151Y-62838996D01*
X103890669Y-62837172D01*
X103890670Y-62837172D01*
X103900304Y-62835646D01*
X104013342Y-62778050D01*
X104029573Y-62761819D01*
X104090896Y-62728334D01*
X104117254Y-62725500D01*
X105778009Y-62725500D01*
X105845048Y-62745185D01*
X105890803Y-62797989D01*
X105899626Y-62825308D01*
X105901986Y-62837172D01*
X105914034Y-62897740D01*
X105969399Y-62980601D01*
X105979552Y-62987385D01*
X105994195Y-62997169D01*
X106052260Y-63035966D01*
X106086313Y-63042740D01*
X106119347Y-63049311D01*
X106119350Y-63049311D01*
X106125326Y-63050500D01*
X107374674Y-63050500D01*
X107380650Y-63049311D01*
X107380653Y-63049311D01*
X107413687Y-63042740D01*
X107447740Y-63035966D01*
X107505805Y-62997169D01*
X107520448Y-62987385D01*
X107530601Y-62980601D01*
X107585966Y-62897740D01*
X107598014Y-62837172D01*
X107600374Y-62825308D01*
X107632759Y-62763397D01*
X107693475Y-62728823D01*
X107721991Y-62725500D01*
X109158101Y-62725500D01*
X109225140Y-62745185D01*
X109245782Y-62761819D01*
X110720681Y-64236718D01*
X110754166Y-64298041D01*
X110757000Y-64324399D01*
X110757000Y-65969674D01*
X110771534Y-66042740D01*
X110826899Y-66125601D01*
X110837052Y-66132385D01*
X110862507Y-66149393D01*
X110909760Y-66180966D01*
X110930739Y-66185139D01*
X110976847Y-66194311D01*
X110976850Y-66194311D01*
X110982826Y-66195500D01*
X112937174Y-66195500D01*
X112943150Y-66194311D01*
X112943153Y-66194311D01*
X112989261Y-66185139D01*
X113010240Y-66180966D01*
X113057493Y-66149393D01*
X113082948Y-66132385D01*
X113093101Y-66125601D01*
X113148466Y-66042740D01*
X113163000Y-65969674D01*
X113163000Y-65835547D01*
X113182685Y-65768508D01*
X113235489Y-65722753D01*
X113304647Y-65712809D01*
X113368203Y-65741834D01*
X113389861Y-65766297D01*
X113441743Y-65843360D01*
X113445363Y-65847155D01*
X113445364Y-65847156D01*
X113576995Y-65985140D01*
X113600234Y-66009501D01*
X113784451Y-66146562D01*
X113789124Y-66148938D01*
X113790845Y-66150005D01*
X113837447Y-66202062D01*
X113849500Y-66255390D01*
X113849500Y-70918927D01*
X113848950Y-70930596D01*
X113848942Y-70930682D01*
X113847240Y-70938296D01*
X113847485Y-70946093D01*
X113847485Y-70946094D01*
X113849439Y-71008262D01*
X113849500Y-71012157D01*
X113849500Y-71040925D01*
X113849988Y-71044787D01*
X113850052Y-71045292D01*
X113850968Y-71056936D01*
X113852403Y-71102569D01*
X113854580Y-71110061D01*
X113854580Y-71110063D01*
X113858323Y-71122945D01*
X113862268Y-71141992D01*
X113864929Y-71163058D01*
X113867800Y-71170309D01*
X113867802Y-71170317D01*
X113881736Y-71205508D01*
X113885520Y-71216558D01*
X113898256Y-71260398D01*
X113902230Y-71267117D01*
X113902230Y-71267118D01*
X113909061Y-71278670D01*
X113917619Y-71296137D01*
X113925432Y-71315871D01*
X113930016Y-71322180D01*
X113952263Y-71352801D01*
X113958677Y-71362565D01*
X113981919Y-71401865D01*
X113996926Y-71416872D01*
X114009563Y-71431668D01*
X114022037Y-71448837D01*
X114051377Y-71473109D01*
X114057213Y-71477937D01*
X114065854Y-71485800D01*
X115370112Y-72790058D01*
X115403597Y-72851381D01*
X115396784Y-72925690D01*
X115384633Y-72954668D01*
X115382854Y-72958911D01*
X115320639Y-73203883D01*
X115295316Y-73455361D01*
X115295537Y-73459963D01*
X115295537Y-73459965D01*
X115303952Y-73635140D01*
X115307443Y-73707820D01*
X115308340Y-73712327D01*
X115308340Y-73712331D01*
X115326969Y-73805985D01*
X115356752Y-73955713D01*
X115358302Y-73960031D01*
X115358304Y-73960037D01*
X115436964Y-74179123D01*
X115442160Y-74193595D01*
X115444337Y-74197646D01*
X115444338Y-74197649D01*
X115558450Y-74410021D01*
X115561792Y-74416240D01*
X115713018Y-74618756D01*
X115743847Y-74649317D01*
X115889253Y-74793461D01*
X115889258Y-74793465D01*
X115892517Y-74796696D01*
X116096346Y-74946149D01*
X116174989Y-74987525D01*
X116315946Y-75061687D01*
X116315953Y-75061690D01*
X116320026Y-75063833D01*
X116324367Y-75065349D01*
X116324374Y-75065352D01*
X116554297Y-75145644D01*
X116558644Y-75147162D01*
X116563163Y-75148020D01*
X116563167Y-75148021D01*
X116802443Y-75193449D01*
X116802446Y-75193449D01*
X116806958Y-75194306D01*
X116811548Y-75194486D01*
X116811554Y-75194487D01*
X117054905Y-75204048D01*
X117054906Y-75204048D01*
X117059513Y-75204229D01*
X117262488Y-75182000D01*
X117306186Y-75177214D01*
X117306187Y-75177214D01*
X117310760Y-75176713D01*
X117315208Y-75175542D01*
X117550739Y-75113533D01*
X117550746Y-75113531D01*
X117555181Y-75112363D01*
X117787405Y-75012591D01*
X117791319Y-75010169D01*
X117998415Y-74882015D01*
X117998422Y-74882010D01*
X118002331Y-74879591D01*
X118195238Y-74716283D01*
X118361888Y-74526256D01*
X118493828Y-74321132D01*
X123299500Y-74321132D01*
X123299501Y-75984169D01*
X123314354Y-76077955D01*
X123371950Y-76190993D01*
X123461658Y-76280701D01*
X123574696Y-76338297D01*
X123601479Y-76342539D01*
X123663661Y-76352388D01*
X123663666Y-76352388D01*
X123668481Y-76353151D01*
X123673359Y-76353151D01*
X124500597Y-76353150D01*
X125331518Y-76353150D01*
X125404151Y-76341647D01*
X125415669Y-76339823D01*
X125415670Y-76339823D01*
X125425304Y-76338297D01*
X125538342Y-76280701D01*
X125628050Y-76190993D01*
X125685646Y-76077955D01*
X125700500Y-75984170D01*
X125700499Y-75388528D01*
X132950000Y-75388528D01*
X132951190Y-75400604D01*
X132962122Y-75455567D01*
X132971290Y-75477699D01*
X133012976Y-75540087D01*
X133029913Y-75557024D01*
X133092301Y-75598710D01*
X133114433Y-75607878D01*
X133169396Y-75618810D01*
X133181472Y-75620000D01*
X133732170Y-75620000D01*
X133747169Y-75615596D01*
X133748356Y-75614226D01*
X133750000Y-75606668D01*
X133750000Y-75602170D01*
X134250000Y-75602170D01*
X134254404Y-75617169D01*
X134255774Y-75618356D01*
X134263332Y-75620000D01*
X134818528Y-75620000D01*
X134830604Y-75618810D01*
X134885567Y-75607878D01*
X134907699Y-75598710D01*
X134970087Y-75557024D01*
X134987024Y-75540087D01*
X135028710Y-75477699D01*
X135037878Y-75455567D01*
X135048810Y-75400604D01*
X135050000Y-75388528D01*
X135050000Y-74887830D01*
X135045596Y-74872831D01*
X135044226Y-74871644D01*
X135036668Y-74870000D01*
X134267830Y-74870000D01*
X134252831Y-74874404D01*
X134251644Y-74875774D01*
X134250000Y-74883332D01*
X134250000Y-75602170D01*
X133750000Y-75602170D01*
X133750000Y-74887830D01*
X133745596Y-74872831D01*
X133744226Y-74871644D01*
X133736668Y-74870000D01*
X132967830Y-74870000D01*
X132952831Y-74874404D01*
X132951644Y-74875774D01*
X132950000Y-74883332D01*
X132950000Y-75388528D01*
X125700499Y-75388528D01*
X125700499Y-74923460D01*
X125720183Y-74856421D01*
X125736818Y-74835779D01*
X126733127Y-73839470D01*
X126794450Y-73805985D01*
X126820808Y-73803151D01*
X132826000Y-73803151D01*
X132893039Y-73822836D01*
X132938794Y-73875640D01*
X132950000Y-73927151D01*
X132950000Y-74352170D01*
X132954404Y-74367169D01*
X132955774Y-74368356D01*
X132963332Y-74370000D01*
X135032170Y-74370000D01*
X135047169Y-74365596D01*
X135048356Y-74364226D01*
X135050000Y-74356668D01*
X135050000Y-74039308D01*
X135069685Y-73972269D01*
X135122489Y-73926514D01*
X135191647Y-73916570D01*
X135255203Y-73945595D01*
X135261681Y-73951627D01*
X136088181Y-74778127D01*
X136121666Y-74839450D01*
X136124500Y-74865808D01*
X136124500Y-76125501D01*
X136104815Y-76192540D01*
X136052011Y-76238295D01*
X136000500Y-76249501D01*
X135893482Y-76249501D01*
X135820849Y-76261004D01*
X135809331Y-76262828D01*
X135809330Y-76262828D01*
X135799696Y-76264354D01*
X135686658Y-76321950D01*
X135596950Y-76411658D01*
X135539354Y-76524696D01*
X135524500Y-76618481D01*
X135524500Y-77122989D01*
X135504815Y-77190028D01*
X135452011Y-77235783D01*
X135382853Y-77245727D01*
X135319297Y-77216702D01*
X135281155Y-77156647D01*
X135267881Y-77109579D01*
X135263819Y-77098998D01*
X135179441Y-76927894D01*
X135173517Y-76918228D01*
X135059366Y-76765362D01*
X135051785Y-76756942D01*
X134911683Y-76627432D01*
X134902701Y-76620540D01*
X134741331Y-76518724D01*
X134731253Y-76513589D01*
X134554035Y-76442886D01*
X134543182Y-76439670D01*
X134502484Y-76431576D01*
X134489816Y-76432710D01*
X134485000Y-76447623D01*
X134485000Y-78557504D01*
X134488903Y-78570798D01*
X134498736Y-78572206D01*
X134678937Y-78511036D01*
X134689293Y-78506425D01*
X134855753Y-78413202D01*
X134865090Y-78406785D01*
X135011777Y-78284787D01*
X135019787Y-78276777D01*
X135141785Y-78130090D01*
X135148202Y-78120753D01*
X135241425Y-77954293D01*
X135246034Y-77943940D01*
X135283082Y-77834802D01*
X135323271Y-77777648D01*
X135387980Y-77751295D01*
X135456665Y-77764109D01*
X135507518Y-77812023D01*
X135524501Y-77874660D01*
X135524501Y-78381518D01*
X135539354Y-78475304D01*
X135596950Y-78588342D01*
X135686658Y-78678050D01*
X135799696Y-78735646D01*
X135828933Y-78740277D01*
X135888661Y-78749737D01*
X135888666Y-78749737D01*
X135893481Y-78750500D01*
X135898359Y-78750500D01*
X136775632Y-78750499D01*
X137656518Y-78750499D01*
X137729151Y-78738996D01*
X137740669Y-78737172D01*
X137740670Y-78737172D01*
X137750304Y-78735646D01*
X137863342Y-78678050D01*
X137953050Y-78588342D01*
X138010646Y-78475304D01*
X138020482Y-78413202D01*
X138024737Y-78386339D01*
X138024737Y-78386334D01*
X138025500Y-78381519D01*
X138025499Y-76618482D01*
X138010646Y-76524696D01*
X137953050Y-76411658D01*
X137863342Y-76321950D01*
X137750304Y-76264354D01*
X137721067Y-76259723D01*
X137661339Y-76250263D01*
X137661334Y-76250263D01*
X137656519Y-76249500D01*
X137549500Y-76249500D01*
X137482461Y-76229815D01*
X137436706Y-76177011D01*
X137425500Y-76125500D01*
X137425500Y-74626073D01*
X137426050Y-74614404D01*
X137426058Y-74614318D01*
X137427760Y-74606704D01*
X137425561Y-74536738D01*
X137425500Y-74532843D01*
X137425500Y-74504075D01*
X137424947Y-74499698D01*
X137424031Y-74488057D01*
X137422842Y-74450227D01*
X137422597Y-74442431D01*
X137416677Y-74422055D01*
X137412732Y-74403008D01*
X137410071Y-74381942D01*
X137407200Y-74374691D01*
X137407198Y-74374683D01*
X137393264Y-74339492D01*
X137389478Y-74328436D01*
X137388774Y-74326010D01*
X137376744Y-74284602D01*
X137366271Y-74266892D01*
X137365939Y-74266330D01*
X137357380Y-74248860D01*
X137349568Y-74229129D01*
X137332026Y-74204985D01*
X137322737Y-74192199D01*
X137316323Y-74182435D01*
X137306169Y-74165266D01*
X137293081Y-74143135D01*
X137278074Y-74128128D01*
X137265437Y-74113332D01*
X137257550Y-74102477D01*
X137252963Y-74096163D01*
X137217787Y-74067063D01*
X137209146Y-74059200D01*
X135899950Y-72750004D01*
X135892087Y-72741363D01*
X135892033Y-72741298D01*
X135887853Y-72734711D01*
X135882169Y-72729373D01*
X135882167Y-72729371D01*
X135836818Y-72686786D01*
X135834021Y-72684075D01*
X135813686Y-72663740D01*
X135810207Y-72661042D01*
X135801323Y-72653454D01*
X135768044Y-72622203D01*
X135761218Y-72618451D01*
X135761212Y-72618446D01*
X135749444Y-72611977D01*
X135733182Y-72601294D01*
X135722586Y-72593075D01*
X135722582Y-72593072D01*
X135716415Y-72588289D01*
X135674522Y-72570160D01*
X135664029Y-72565020D01*
X135656610Y-72560941D01*
X135639338Y-72551446D01*
X135630853Y-72546781D01*
X135624019Y-72543024D01*
X135616470Y-72541086D01*
X135616463Y-72541083D01*
X135603453Y-72537743D01*
X135585049Y-72531442D01*
X135565577Y-72523016D01*
X135557874Y-72521796D01*
X135557871Y-72521795D01*
X135520488Y-72515874D01*
X135509050Y-72513505D01*
X135489057Y-72508372D01*
X135464828Y-72502151D01*
X135443605Y-72502151D01*
X135424206Y-72500624D01*
X135403246Y-72497304D01*
X135395481Y-72498038D01*
X135395479Y-72498038D01*
X135357791Y-72501601D01*
X135346121Y-72502151D01*
X127274500Y-72502151D01*
X127207461Y-72482466D01*
X127161706Y-72429662D01*
X127150500Y-72378151D01*
X127150500Y-71998528D01*
X131750000Y-71998528D01*
X131751190Y-72010604D01*
X131762122Y-72065567D01*
X131771290Y-72087699D01*
X131812976Y-72150087D01*
X131829913Y-72167024D01*
X131892301Y-72208710D01*
X131914433Y-72217878D01*
X131969396Y-72228810D01*
X131981472Y-72230000D01*
X132332170Y-72230000D01*
X132347169Y-72225596D01*
X132348356Y-72224226D01*
X132350000Y-72216668D01*
X132350000Y-72212170D01*
X132850000Y-72212170D01*
X132854404Y-72227169D01*
X132855774Y-72228356D01*
X132863332Y-72230000D01*
X133218528Y-72230000D01*
X133230604Y-72228810D01*
X133285567Y-72217878D01*
X133307699Y-72208710D01*
X133370087Y-72167024D01*
X133387024Y-72150087D01*
X133428710Y-72087699D01*
X133437878Y-72065567D01*
X133448810Y-72010604D01*
X133450000Y-71998528D01*
X133450000Y-71647830D01*
X133445596Y-71632831D01*
X133444226Y-71631644D01*
X133436668Y-71630000D01*
X132867830Y-71630000D01*
X132852831Y-71634404D01*
X132851644Y-71635774D01*
X132850000Y-71643332D01*
X132850000Y-72212170D01*
X132350000Y-72212170D01*
X132350000Y-71647830D01*
X132345596Y-71632831D01*
X132344226Y-71631644D01*
X132336668Y-71630000D01*
X131767830Y-71630000D01*
X131752831Y-71634404D01*
X131751644Y-71635774D01*
X131750000Y-71643332D01*
X131750000Y-71998528D01*
X127150500Y-71998528D01*
X127150500Y-71112170D01*
X131750000Y-71112170D01*
X131754404Y-71127169D01*
X131755774Y-71128356D01*
X131763332Y-71130000D01*
X132332170Y-71130000D01*
X132347169Y-71125596D01*
X132348356Y-71124226D01*
X132350000Y-71116668D01*
X132350000Y-71112170D01*
X132850000Y-71112170D01*
X132854404Y-71127169D01*
X132855774Y-71128356D01*
X132863332Y-71130000D01*
X133432170Y-71130000D01*
X133447169Y-71125596D01*
X133448356Y-71124226D01*
X133450000Y-71116668D01*
X133450000Y-70761472D01*
X133448810Y-70749396D01*
X133437878Y-70694433D01*
X133428710Y-70672301D01*
X133387024Y-70609913D01*
X133370087Y-70592976D01*
X133307699Y-70551290D01*
X133285567Y-70542122D01*
X133230604Y-70531190D01*
X133218528Y-70530000D01*
X132867830Y-70530000D01*
X132852831Y-70534404D01*
X132851644Y-70535774D01*
X132850000Y-70543332D01*
X132850000Y-71112170D01*
X132350000Y-71112170D01*
X132350000Y-70547830D01*
X132345596Y-70532831D01*
X132344226Y-70531644D01*
X132336668Y-70530000D01*
X131981472Y-70530000D01*
X131969396Y-70531190D01*
X131914433Y-70542122D01*
X131892301Y-70551290D01*
X131829913Y-70592976D01*
X131812976Y-70609913D01*
X131771290Y-70672301D01*
X131762122Y-70694433D01*
X131751190Y-70749396D01*
X131750000Y-70761472D01*
X131750000Y-71112170D01*
X127150500Y-71112170D01*
X127150500Y-66424499D01*
X127170185Y-66357460D01*
X127222989Y-66311705D01*
X127274500Y-66300499D01*
X127781518Y-66300499D01*
X127858344Y-66288332D01*
X127865669Y-66287172D01*
X127865670Y-66287172D01*
X127875304Y-66285646D01*
X127988342Y-66228050D01*
X128078050Y-66138342D01*
X128135646Y-66025304D01*
X128148742Y-65942618D01*
X128149737Y-65936339D01*
X128149737Y-65936334D01*
X128150500Y-65931519D01*
X128150499Y-64949500D01*
X128170183Y-64882461D01*
X128222987Y-64836706D01*
X128274499Y-64825500D01*
X130783581Y-64825500D01*
X130850620Y-64845185D01*
X130859067Y-64851124D01*
X130922159Y-64899536D01*
X131068238Y-64960044D01*
X131074782Y-64960905D01*
X131133838Y-64996901D01*
X131164368Y-65059747D01*
X131156074Y-65129123D01*
X131111589Y-65183002D01*
X131083171Y-65197308D01*
X131020557Y-65219296D01*
X131020555Y-65219297D01*
X131011816Y-65222366D01*
X131004363Y-65227871D01*
X131004361Y-65227872D01*
X130990725Y-65237944D01*
X130902850Y-65302850D01*
X130822366Y-65411816D01*
X130777481Y-65539631D01*
X130776770Y-65547150D01*
X130776770Y-65547151D01*
X130774929Y-65566629D01*
X130774500Y-65571166D01*
X130774500Y-66078834D01*
X130774775Y-66081738D01*
X130774775Y-66081748D01*
X130775781Y-66092388D01*
X130777481Y-66110369D01*
X130796820Y-66165439D01*
X130811730Y-66207896D01*
X130822366Y-66238184D01*
X130827871Y-66245637D01*
X130827872Y-66245639D01*
X130874769Y-66309132D01*
X130902850Y-66347150D01*
X130916809Y-66357460D01*
X131004358Y-66422126D01*
X131004361Y-66422128D01*
X131011816Y-66427634D01*
X131037160Y-66436534D01*
X131041585Y-66438088D01*
X131098316Y-66478873D01*
X131123991Y-66543855D01*
X131124500Y-66555084D01*
X131124500Y-66944916D01*
X131104815Y-67011955D01*
X131052011Y-67057710D01*
X131041585Y-67061912D01*
X131011816Y-67072366D01*
X131004361Y-67077872D01*
X131004358Y-67077874D01*
X130925934Y-67135800D01*
X130902850Y-67152850D01*
X130897343Y-67160306D01*
X130831706Y-67249171D01*
X130822366Y-67261816D01*
X130819297Y-67270555D01*
X130819296Y-67270557D01*
X130805647Y-67309424D01*
X130777481Y-67389631D01*
X130776770Y-67397150D01*
X130776770Y-67397151D01*
X130776342Y-67401684D01*
X130774500Y-67421166D01*
X130774500Y-67928834D01*
X130774775Y-67931738D01*
X130774775Y-67931748D01*
X130776247Y-67947314D01*
X130777481Y-67960369D01*
X130822366Y-68088184D01*
X130827871Y-68095637D01*
X130827872Y-68095639D01*
X130831920Y-68101119D01*
X130902850Y-68197150D01*
X130910306Y-68202657D01*
X131004361Y-68272128D01*
X131004363Y-68272129D01*
X131011816Y-68277634D01*
X131020555Y-68280703D01*
X131020557Y-68280704D01*
X131068242Y-68297449D01*
X131139631Y-68322519D01*
X131147150Y-68323230D01*
X131147151Y-68323230D01*
X131168252Y-68325225D01*
X131168262Y-68325225D01*
X131171166Y-68325500D01*
X131669101Y-68325500D01*
X131736140Y-68345185D01*
X131781895Y-68397989D01*
X131791839Y-68467147D01*
X131762814Y-68530703D01*
X131756782Y-68537181D01*
X131655782Y-68638181D01*
X131594459Y-68671666D01*
X131568101Y-68674500D01*
X131171166Y-68674500D01*
X131168262Y-68674775D01*
X131168252Y-68674775D01*
X131147151Y-68676770D01*
X131147150Y-68676770D01*
X131139631Y-68677481D01*
X131093896Y-68693542D01*
X131020557Y-68719296D01*
X131020555Y-68719297D01*
X131011816Y-68722366D01*
X131004363Y-68727871D01*
X131004361Y-68727872D01*
X130935002Y-68779102D01*
X130902850Y-68802850D01*
X130897343Y-68810306D01*
X130829847Y-68901688D01*
X130822366Y-68911816D01*
X130819297Y-68920555D01*
X130819296Y-68920557D01*
X130816488Y-68928554D01*
X130777481Y-69039631D01*
X130776770Y-69047150D01*
X130776770Y-69047151D01*
X130775398Y-69061668D01*
X130774500Y-69071166D01*
X130774500Y-69085653D01*
X130754815Y-69152692D01*
X130702011Y-69198447D01*
X130632853Y-69208391D01*
X130592477Y-69195240D01*
X130491443Y-69141745D01*
X130491437Y-69141743D01*
X130484831Y-69138245D01*
X130332128Y-69099889D01*
X130250329Y-69099461D01*
X130182158Y-69099104D01*
X130182157Y-69099104D01*
X130174684Y-69099065D01*
X130167421Y-69100809D01*
X130167418Y-69100809D01*
X130108893Y-69114860D01*
X130021588Y-69135820D01*
X129881679Y-69208032D01*
X129876048Y-69212945D01*
X129876047Y-69212945D01*
X129837401Y-69246658D01*
X129763034Y-69311533D01*
X129672501Y-69440348D01*
X129615309Y-69587039D01*
X129594758Y-69743138D01*
X129595578Y-69750566D01*
X129595578Y-69750568D01*
X129605418Y-69839694D01*
X129612035Y-69899633D01*
X129614601Y-69906645D01*
X129614602Y-69906649D01*
X129638004Y-69970596D01*
X129666143Y-70047490D01*
X129753958Y-70178172D01*
X129776183Y-70198395D01*
X129864878Y-70279102D01*
X129864882Y-70279105D01*
X129870410Y-70284135D01*
X129876980Y-70287702D01*
X129876981Y-70287703D01*
X130000007Y-70354501D01*
X130008776Y-70359262D01*
X130103362Y-70384076D01*
X130153841Y-70397319D01*
X130153843Y-70397319D01*
X130161069Y-70399215D01*
X130238127Y-70400425D01*
X130311025Y-70401571D01*
X130311028Y-70401571D01*
X130318495Y-70401688D01*
X130325776Y-70400020D01*
X130325780Y-70400020D01*
X130464681Y-70368207D01*
X130471968Y-70366538D01*
X130612625Y-70295795D01*
X130618306Y-70290943D01*
X130618309Y-70290941D01*
X130726666Y-70198395D01*
X130726667Y-70198394D01*
X130732348Y-70193542D01*
X130744133Y-70177141D01*
X130799237Y-70134187D01*
X130844831Y-70125500D01*
X131021716Y-70125500D01*
X131045651Y-70128047D01*
X131047052Y-70128113D01*
X131057066Y-70130269D01*
X131067239Y-70129065D01*
X131090102Y-70126359D01*
X131095984Y-70126012D01*
X131095977Y-70125922D01*
X131101082Y-70125500D01*
X131106193Y-70125500D01*
X131125053Y-70122361D01*
X131130832Y-70121539D01*
X131171032Y-70116781D01*
X131171034Y-70116780D01*
X131181210Y-70115576D01*
X131189377Y-70111654D01*
X131198313Y-70110167D01*
X131242958Y-70086077D01*
X131248163Y-70083425D01*
X131286867Y-70064840D01*
X131286866Y-70064840D01*
X131293900Y-70061463D01*
X131298131Y-70057906D01*
X131300017Y-70056020D01*
X131301947Y-70054249D01*
X131302000Y-70054221D01*
X131302117Y-70054348D01*
X131302674Y-70053857D01*
X131308329Y-70050806D01*
X131341123Y-70015329D01*
X131401083Y-69979462D01*
X131432179Y-69975500D01*
X131828834Y-69975500D01*
X131831738Y-69975225D01*
X131831748Y-69975225D01*
X131852849Y-69973230D01*
X131852850Y-69973230D01*
X131860369Y-69972519D01*
X131931758Y-69947449D01*
X131979443Y-69930704D01*
X131979445Y-69930703D01*
X131988184Y-69927634D01*
X131995637Y-69922129D01*
X131995639Y-69922128D01*
X132089694Y-69852657D01*
X132097150Y-69847150D01*
X132177634Y-69738184D01*
X132180789Y-69729202D01*
X132197449Y-69681758D01*
X132222519Y-69610369D01*
X132223239Y-69602752D01*
X132225225Y-69581748D01*
X132225225Y-69581738D01*
X132225500Y-69578834D01*
X133774500Y-69578834D01*
X133774775Y-69581738D01*
X133774775Y-69581748D01*
X133776761Y-69602752D01*
X133777481Y-69610369D01*
X133802551Y-69681758D01*
X133819212Y-69729202D01*
X133822366Y-69738184D01*
X133902850Y-69847150D01*
X133910306Y-69852657D01*
X134004358Y-69922126D01*
X134004361Y-69922128D01*
X134011816Y-69927634D01*
X134037160Y-69936534D01*
X134041585Y-69938088D01*
X134098316Y-69978873D01*
X134123991Y-70043855D01*
X134124500Y-70055084D01*
X134124500Y-70426716D01*
X134121953Y-70450651D01*
X134121887Y-70452052D01*
X134119731Y-70462066D01*
X134120935Y-70472239D01*
X134123641Y-70495102D01*
X134123988Y-70500984D01*
X134124078Y-70500977D01*
X134124500Y-70506082D01*
X134124500Y-70511193D01*
X134125339Y-70516233D01*
X134127639Y-70530053D01*
X134128461Y-70535832D01*
X134131503Y-70561533D01*
X134134424Y-70586210D01*
X134138346Y-70594377D01*
X134139833Y-70603313D01*
X134158637Y-70638162D01*
X134163922Y-70647957D01*
X134166574Y-70653160D01*
X134188537Y-70698900D01*
X134192094Y-70703131D01*
X134193980Y-70705017D01*
X134195751Y-70706947D01*
X134195779Y-70707000D01*
X134195652Y-70707117D01*
X134196143Y-70707674D01*
X134199194Y-70713329D01*
X134206723Y-70720289D01*
X134206724Y-70720290D01*
X134238381Y-70749553D01*
X134241891Y-70752928D01*
X134513181Y-71024218D01*
X134546666Y-71085541D01*
X134549500Y-71111899D01*
X134549500Y-72004674D01*
X134550689Y-72010650D01*
X134550689Y-72010653D01*
X134550847Y-72011448D01*
X134564034Y-72077740D01*
X134619399Y-72160601D01*
X134702260Y-72215966D01*
X134736313Y-72222740D01*
X134769347Y-72229311D01*
X134769350Y-72229311D01*
X134775326Y-72230500D01*
X136024674Y-72230500D01*
X136030650Y-72229311D01*
X136030653Y-72229311D01*
X136063687Y-72222740D01*
X136097740Y-72215966D01*
X136180601Y-72160601D01*
X136235966Y-72077740D01*
X136249153Y-72011448D01*
X136249311Y-72010653D01*
X136249311Y-72010650D01*
X136250500Y-72004674D01*
X136250500Y-70755326D01*
X136249061Y-70748089D01*
X136240252Y-70703807D01*
X136235966Y-70682260D01*
X136180601Y-70599399D01*
X136097740Y-70544034D01*
X136049328Y-70534404D01*
X136030653Y-70530689D01*
X136030650Y-70530689D01*
X136024674Y-70529500D01*
X135131899Y-70529500D01*
X135064860Y-70509815D01*
X135044218Y-70493181D01*
X134911819Y-70360782D01*
X134878334Y-70299459D01*
X134875500Y-70273101D01*
X134875500Y-70055084D01*
X134895185Y-69988045D01*
X134947989Y-69942290D01*
X134958415Y-69938088D01*
X134962840Y-69936534D01*
X134988184Y-69927634D01*
X134995639Y-69922128D01*
X134995642Y-69922126D01*
X135089694Y-69852657D01*
X135097150Y-69847150D01*
X135177634Y-69738184D01*
X135180789Y-69729202D01*
X135197449Y-69681758D01*
X135222519Y-69610369D01*
X135223239Y-69602752D01*
X135224876Y-69585436D01*
X136775631Y-69585436D01*
X136777267Y-69602748D01*
X136780482Y-69617406D01*
X136819742Y-69729202D01*
X136828320Y-69745402D01*
X136897703Y-69839339D01*
X136910661Y-69852297D01*
X137004598Y-69921680D01*
X137020798Y-69930258D01*
X137132597Y-69969518D01*
X137147248Y-69972733D01*
X137168315Y-69974725D01*
X137174160Y-69975000D01*
X137232170Y-69975000D01*
X137247169Y-69970596D01*
X137248356Y-69969226D01*
X137250000Y-69961668D01*
X137250000Y-69957169D01*
X137750000Y-69957169D01*
X137754404Y-69972168D01*
X137755774Y-69973355D01*
X137763332Y-69974999D01*
X137825857Y-69974999D01*
X137831670Y-69974725D01*
X137852748Y-69972733D01*
X137867406Y-69969518D01*
X137979202Y-69930258D01*
X137995402Y-69921680D01*
X138089339Y-69852297D01*
X138102297Y-69839339D01*
X138171680Y-69745402D01*
X138180258Y-69729202D01*
X138219518Y-69617403D01*
X138222733Y-69602752D01*
X138223995Y-69589406D01*
X138220596Y-69577831D01*
X138219226Y-69576644D01*
X138211668Y-69575000D01*
X137767830Y-69575000D01*
X137752831Y-69579404D01*
X137751644Y-69580774D01*
X137750000Y-69588332D01*
X137750000Y-69957169D01*
X137250000Y-69957169D01*
X137250000Y-69592830D01*
X137245596Y-69577831D01*
X137244226Y-69576644D01*
X137236668Y-69575000D01*
X136792831Y-69575000D01*
X136777832Y-69579404D01*
X136776645Y-69580774D01*
X136775631Y-69585436D01*
X135224876Y-69585436D01*
X135225225Y-69581748D01*
X135225225Y-69581738D01*
X135225500Y-69578834D01*
X135225500Y-69071166D01*
X135224603Y-69061668D01*
X135224501Y-69060594D01*
X136776005Y-69060594D01*
X136779404Y-69072169D01*
X136780774Y-69073356D01*
X136788332Y-69075000D01*
X137232170Y-69075000D01*
X137247169Y-69070596D01*
X137248356Y-69069226D01*
X137250000Y-69061668D01*
X137250000Y-69057170D01*
X137750000Y-69057170D01*
X137754404Y-69072169D01*
X137755774Y-69073356D01*
X137763332Y-69075000D01*
X138207169Y-69075000D01*
X138222168Y-69070596D01*
X138223355Y-69069226D01*
X138224369Y-69064564D01*
X138222733Y-69047252D01*
X138219518Y-69032594D01*
X138180258Y-68920798D01*
X138171680Y-68904598D01*
X138102297Y-68810661D01*
X138089339Y-68797703D01*
X137995402Y-68728320D01*
X137979202Y-68719742D01*
X137867403Y-68680482D01*
X137852752Y-68677267D01*
X137831685Y-68675275D01*
X137825840Y-68675000D01*
X137767830Y-68675000D01*
X137752831Y-68679404D01*
X137751644Y-68680774D01*
X137750000Y-68688332D01*
X137750000Y-69057170D01*
X137250000Y-69057170D01*
X137250000Y-68692831D01*
X137245596Y-68677832D01*
X137244226Y-68676645D01*
X137236668Y-68675001D01*
X137174143Y-68675001D01*
X137168330Y-68675275D01*
X137147252Y-68677267D01*
X137132594Y-68680482D01*
X137020798Y-68719742D01*
X137004598Y-68728320D01*
X136910661Y-68797703D01*
X136897703Y-68810661D01*
X136828320Y-68904598D01*
X136819742Y-68920798D01*
X136780482Y-69032597D01*
X136777267Y-69047248D01*
X136776005Y-69060594D01*
X135224501Y-69060594D01*
X135223230Y-69047151D01*
X135223230Y-69047150D01*
X135222519Y-69039631D01*
X135183512Y-68928554D01*
X135180704Y-68920557D01*
X135180703Y-68920555D01*
X135177634Y-68911816D01*
X135170154Y-68901688D01*
X135102657Y-68810306D01*
X135097150Y-68802850D01*
X135064998Y-68779102D01*
X134995639Y-68727872D01*
X134995637Y-68727871D01*
X134988184Y-68722366D01*
X134979445Y-68719297D01*
X134979443Y-68719296D01*
X134906104Y-68693542D01*
X134860369Y-68677481D01*
X134852850Y-68676770D01*
X134852849Y-68676770D01*
X134831748Y-68674775D01*
X134831738Y-68674775D01*
X134828834Y-68674500D01*
X134171166Y-68674500D01*
X134168262Y-68674775D01*
X134168252Y-68674775D01*
X134147151Y-68676770D01*
X134147150Y-68676770D01*
X134139631Y-68677481D01*
X134093896Y-68693542D01*
X134020557Y-68719296D01*
X134020555Y-68719297D01*
X134011816Y-68722366D01*
X134004363Y-68727871D01*
X134004361Y-68727872D01*
X133935002Y-68779102D01*
X133902850Y-68802850D01*
X133897343Y-68810306D01*
X133829847Y-68901688D01*
X133822366Y-68911816D01*
X133819297Y-68920555D01*
X133819296Y-68920557D01*
X133816488Y-68928554D01*
X133777481Y-69039631D01*
X133776770Y-69047150D01*
X133776770Y-69047151D01*
X133775398Y-69061668D01*
X133774500Y-69071166D01*
X133774500Y-69578834D01*
X132225500Y-69578834D01*
X132225500Y-69181899D01*
X132245185Y-69114860D01*
X132261819Y-69094218D01*
X133269218Y-68086819D01*
X133330541Y-68053334D01*
X133356899Y-68050500D01*
X133731964Y-68050500D01*
X133799003Y-68070185D01*
X133831705Y-68100828D01*
X133902850Y-68197150D01*
X133910306Y-68202657D01*
X134004361Y-68272128D01*
X134004363Y-68272129D01*
X134011816Y-68277634D01*
X134020555Y-68280703D01*
X134020557Y-68280704D01*
X134068242Y-68297449D01*
X134139631Y-68322519D01*
X134147150Y-68323230D01*
X134147151Y-68323230D01*
X134168252Y-68325225D01*
X134168262Y-68325225D01*
X134171166Y-68325500D01*
X134828834Y-68325500D01*
X134831738Y-68325225D01*
X134831748Y-68325225D01*
X134852849Y-68323230D01*
X134852850Y-68323230D01*
X134860369Y-68322519D01*
X134931758Y-68297449D01*
X134979443Y-68280704D01*
X134979445Y-68280703D01*
X134988184Y-68277634D01*
X134995637Y-68272129D01*
X134995639Y-68272128D01*
X135089694Y-68202657D01*
X135097150Y-68197150D01*
X135168294Y-68100829D01*
X135223957Y-68058599D01*
X135268036Y-68050500D01*
X136731964Y-68050500D01*
X136799003Y-68070185D01*
X136831705Y-68100828D01*
X136902850Y-68197150D01*
X136910306Y-68202657D01*
X137004361Y-68272128D01*
X137004363Y-68272129D01*
X137011816Y-68277634D01*
X137020555Y-68280703D01*
X137020557Y-68280704D01*
X137068242Y-68297449D01*
X137139631Y-68322519D01*
X137147150Y-68323230D01*
X137147151Y-68323230D01*
X137168252Y-68325225D01*
X137168262Y-68325225D01*
X137171166Y-68325500D01*
X137828834Y-68325500D01*
X137831738Y-68325225D01*
X137831748Y-68325225D01*
X137852849Y-68323230D01*
X137852850Y-68323230D01*
X137860369Y-68322519D01*
X137931758Y-68297449D01*
X137979443Y-68280704D01*
X137979445Y-68280703D01*
X137988184Y-68277634D01*
X137995637Y-68272129D01*
X137995639Y-68272128D01*
X138089694Y-68202657D01*
X138097150Y-68197150D01*
X138168080Y-68101119D01*
X138172128Y-68095639D01*
X138172129Y-68095637D01*
X138177634Y-68088184D01*
X138222519Y-67960369D01*
X138223753Y-67947314D01*
X138225225Y-67931748D01*
X138225225Y-67931738D01*
X138225500Y-67928834D01*
X138225500Y-67421166D01*
X138223659Y-67401684D01*
X138223230Y-67397151D01*
X138223230Y-67397150D01*
X138222519Y-67389631D01*
X138194353Y-67309424D01*
X138180704Y-67270557D01*
X138180703Y-67270555D01*
X138177634Y-67261816D01*
X138168295Y-67249171D01*
X138102657Y-67160306D01*
X138097150Y-67152850D01*
X138067304Y-67130805D01*
X137995639Y-67077872D01*
X137995637Y-67077871D01*
X137988184Y-67072366D01*
X137979445Y-67069297D01*
X137979443Y-67069296D01*
X137931758Y-67052551D01*
X137860369Y-67027481D01*
X137852850Y-67026770D01*
X137852849Y-67026770D01*
X137831748Y-67024775D01*
X137831738Y-67024775D01*
X137828834Y-67024500D01*
X137171166Y-67024500D01*
X137168262Y-67024775D01*
X137168252Y-67024775D01*
X137147151Y-67026770D01*
X137147150Y-67026770D01*
X137139631Y-67027481D01*
X137068242Y-67052551D01*
X137020557Y-67069296D01*
X137020555Y-67069297D01*
X137011816Y-67072366D01*
X137004363Y-67077871D01*
X137004361Y-67077872D01*
X136932696Y-67130805D01*
X136902850Y-67152850D01*
X136897343Y-67160306D01*
X136831706Y-67249171D01*
X136776043Y-67291401D01*
X136731964Y-67299500D01*
X135268036Y-67299500D01*
X135200997Y-67279815D01*
X135168294Y-67249171D01*
X135102657Y-67160306D01*
X135097150Y-67152850D01*
X135074066Y-67135800D01*
X134995642Y-67077874D01*
X134995639Y-67077872D01*
X134988184Y-67072366D01*
X134958415Y-67061912D01*
X134901684Y-67021127D01*
X134876009Y-66956145D01*
X134875500Y-66944916D01*
X134875500Y-66931899D01*
X134895185Y-66864860D01*
X134911819Y-66844218D01*
X134994218Y-66761819D01*
X135055541Y-66728334D01*
X135081899Y-66725500D01*
X135466471Y-66725499D01*
X135495014Y-66725499D01*
X135498355Y-66725136D01*
X135498357Y-66725136D01*
X135545427Y-66720024D01*
X135545430Y-66720023D01*
X135553157Y-66719184D01*
X135638043Y-66687362D01*
X135672421Y-66674474D01*
X135672422Y-66674473D01*
X135680695Y-66671372D01*
X135687762Y-66666076D01*
X135687765Y-66666074D01*
X135782622Y-66594982D01*
X135789687Y-66589687D01*
X135794982Y-66582622D01*
X135866074Y-66487765D01*
X135866076Y-66487762D01*
X135871372Y-66480695D01*
X135874566Y-66472177D01*
X135884158Y-66446589D01*
X135926122Y-66390725D01*
X135991627Y-66366417D01*
X136059875Y-66381383D01*
X136109198Y-66430870D01*
X136116376Y-66446588D01*
X136125969Y-66472177D01*
X136134372Y-66487525D01*
X136205372Y-66582261D01*
X136217739Y-66594628D01*
X136312475Y-66665628D01*
X136327825Y-66674032D01*
X136439671Y-66715960D01*
X136454680Y-66719530D01*
X136501697Y-66724637D01*
X136507361Y-66724944D01*
X136522169Y-66720596D01*
X136523356Y-66719226D01*
X136525000Y-66711668D01*
X136525000Y-66707170D01*
X137025000Y-66707170D01*
X137029404Y-66722169D01*
X137030774Y-66723356D01*
X137038332Y-66725000D01*
X137041606Y-66725000D01*
X137048303Y-66724637D01*
X137095320Y-66719530D01*
X137110329Y-66715960D01*
X137222175Y-66674032D01*
X137237525Y-66665628D01*
X137332261Y-66594628D01*
X137344628Y-66582261D01*
X137415628Y-66487525D01*
X137424032Y-66472175D01*
X137465960Y-66360329D01*
X137469530Y-66345320D01*
X137474637Y-66298303D01*
X137475000Y-66291606D01*
X137475000Y-66267830D01*
X137470596Y-66252831D01*
X137469226Y-66251644D01*
X137461668Y-66250000D01*
X137042830Y-66250000D01*
X137027831Y-66254404D01*
X137026644Y-66255774D01*
X137025000Y-66263332D01*
X137025000Y-66707170D01*
X136525000Y-66707170D01*
X136525000Y-65732170D01*
X137025000Y-65732170D01*
X137029404Y-65747169D01*
X137030774Y-65748356D01*
X137038332Y-65750000D01*
X137457170Y-65750000D01*
X137472169Y-65745596D01*
X137473356Y-65744226D01*
X137475000Y-65736668D01*
X137475000Y-65708394D01*
X137474637Y-65701697D01*
X137469530Y-65654680D01*
X137465960Y-65639671D01*
X137424032Y-65527825D01*
X137415628Y-65512475D01*
X137344628Y-65417739D01*
X137332261Y-65405372D01*
X137237525Y-65334372D01*
X137222175Y-65325968D01*
X137110329Y-65284040D01*
X137095320Y-65280470D01*
X137048303Y-65275363D01*
X137042639Y-65275056D01*
X137027831Y-65279404D01*
X137026644Y-65280774D01*
X137025000Y-65288332D01*
X137025000Y-65732170D01*
X136525000Y-65732170D01*
X136525000Y-65292830D01*
X136520596Y-65277831D01*
X136519226Y-65276644D01*
X136511668Y-65275000D01*
X136508394Y-65275000D01*
X136501697Y-65275363D01*
X136454680Y-65280470D01*
X136439671Y-65284040D01*
X136327825Y-65325968D01*
X136312475Y-65334372D01*
X136217739Y-65405372D01*
X136205372Y-65417739D01*
X136134372Y-65512475D01*
X136125969Y-65527823D01*
X136116376Y-65553412D01*
X136074411Y-65609276D01*
X136008906Y-65633583D01*
X135940658Y-65618616D01*
X135891335Y-65569128D01*
X135884158Y-65553411D01*
X135874475Y-65527581D01*
X135874474Y-65527578D01*
X135871372Y-65519305D01*
X135866076Y-65512238D01*
X135866074Y-65512235D01*
X135794982Y-65417378D01*
X135789687Y-65410313D01*
X135704191Y-65346237D01*
X135687765Y-65333926D01*
X135687762Y-65333924D01*
X135680695Y-65328628D01*
X135672422Y-65325527D01*
X135672421Y-65325526D01*
X135611932Y-65302850D01*
X135553157Y-65280816D01*
X135545426Y-65279976D01*
X135545425Y-65279976D01*
X135536265Y-65278981D01*
X135495015Y-65274500D01*
X135225041Y-65274500D01*
X134954986Y-65274501D01*
X134951645Y-65274864D01*
X134951643Y-65274864D01*
X134904573Y-65279976D01*
X134904570Y-65279977D01*
X134896843Y-65280816D01*
X134838068Y-65302850D01*
X134777579Y-65325526D01*
X134777578Y-65325527D01*
X134769305Y-65328628D01*
X134762238Y-65333924D01*
X134762235Y-65333926D01*
X134745809Y-65346237D01*
X134660313Y-65410313D01*
X134655018Y-65417378D01*
X134583926Y-65512235D01*
X134583924Y-65512238D01*
X134578628Y-65519305D01*
X134575527Y-65527578D01*
X134575526Y-65527579D01*
X134562596Y-65562071D01*
X134530816Y-65646843D01*
X134524500Y-65704985D01*
X134524501Y-65936339D01*
X134524501Y-66118100D01*
X134504817Y-66185139D01*
X134488182Y-66205781D01*
X134272161Y-66421802D01*
X134253432Y-66436929D01*
X134252398Y-66437870D01*
X134243790Y-66443428D01*
X134237448Y-66451473D01*
X134223193Y-66469555D01*
X134219280Y-66473958D01*
X134219350Y-66474017D01*
X134216043Y-66477920D01*
X134212425Y-66481538D01*
X134209451Y-66485700D01*
X134201321Y-66497077D01*
X134197830Y-66501728D01*
X134166397Y-66541600D01*
X134163395Y-66550149D01*
X134158128Y-66557519D01*
X134152956Y-66574815D01*
X134143594Y-66606118D01*
X134141788Y-66611676D01*
X134134474Y-66632505D01*
X134124977Y-66659548D01*
X134124500Y-66665055D01*
X134124500Y-66667739D01*
X134124387Y-66670341D01*
X134124365Y-66670415D01*
X134124196Y-66670408D01*
X134124150Y-66671133D01*
X134122310Y-66677287D01*
X134122712Y-66687526D01*
X134122712Y-66687529D01*
X134124404Y-66730581D01*
X134124500Y-66735449D01*
X134124500Y-66944916D01*
X134104815Y-67011955D01*
X134052011Y-67057710D01*
X134041585Y-67061912D01*
X134011816Y-67072366D01*
X134004361Y-67077872D01*
X134004358Y-67077874D01*
X133925934Y-67135800D01*
X133902850Y-67152850D01*
X133897343Y-67160306D01*
X133831706Y-67249171D01*
X133776043Y-67291401D01*
X133731964Y-67299500D01*
X133203280Y-67299500D01*
X133179355Y-67296954D01*
X133177951Y-67296888D01*
X133167933Y-67294731D01*
X133157760Y-67295935D01*
X133157758Y-67295935D01*
X133134897Y-67298641D01*
X133129016Y-67298988D01*
X133129023Y-67299078D01*
X133123917Y-67299500D01*
X133118807Y-67299500D01*
X133099953Y-67302638D01*
X133094190Y-67303459D01*
X133083059Y-67304776D01*
X133053967Y-67308219D01*
X133053964Y-67308220D01*
X133043790Y-67309424D01*
X133035623Y-67313346D01*
X133026687Y-67314833D01*
X132992231Y-67333425D01*
X132982043Y-67338922D01*
X132976840Y-67341574D01*
X132931100Y-67363537D01*
X132926869Y-67367094D01*
X132924983Y-67368980D01*
X132923053Y-67370751D01*
X132923000Y-67370779D01*
X132922883Y-67370652D01*
X132922326Y-67371143D01*
X132916671Y-67374194D01*
X132909711Y-67381723D01*
X132909710Y-67381724D01*
X132880447Y-67413381D01*
X132877072Y-67416891D01*
X132437181Y-67856782D01*
X132375858Y-67890267D01*
X132306166Y-67885283D01*
X132250233Y-67843411D01*
X132225816Y-67777947D01*
X132225500Y-67769101D01*
X132225500Y-67421166D01*
X132223659Y-67401684D01*
X132223230Y-67397151D01*
X132223230Y-67397150D01*
X132222519Y-67389631D01*
X132194353Y-67309424D01*
X132180704Y-67270557D01*
X132180703Y-67270555D01*
X132177634Y-67261816D01*
X132168295Y-67249171D01*
X132102657Y-67160306D01*
X132097150Y-67152850D01*
X132074066Y-67135800D01*
X131995642Y-67077874D01*
X131995639Y-67077872D01*
X131988184Y-67072366D01*
X131958415Y-67061912D01*
X131901684Y-67021127D01*
X131876009Y-66956145D01*
X131875500Y-66944916D01*
X131875500Y-66555084D01*
X131895185Y-66488045D01*
X131947989Y-66442290D01*
X131958415Y-66438088D01*
X131962840Y-66436534D01*
X131988184Y-66427634D01*
X131995639Y-66422128D01*
X131995642Y-66422126D01*
X132083191Y-66357460D01*
X132097150Y-66347150D01*
X132125231Y-66309132D01*
X132172128Y-66245639D01*
X132172129Y-66245637D01*
X132177634Y-66238184D01*
X132188271Y-66207896D01*
X132203180Y-66165439D01*
X132222519Y-66110369D01*
X132224219Y-66092388D01*
X132225225Y-66081748D01*
X132225225Y-66081738D01*
X132225500Y-66078834D01*
X132225500Y-65571166D01*
X132225072Y-65566629D01*
X132223230Y-65547151D01*
X132223230Y-65547150D01*
X132222519Y-65539631D01*
X132177634Y-65411816D01*
X132097150Y-65302850D01*
X132009275Y-65237944D01*
X131995639Y-65227872D01*
X131995637Y-65227871D01*
X131988184Y-65222366D01*
X131979445Y-65219297D01*
X131979443Y-65219296D01*
X131916829Y-65197308D01*
X131860099Y-65156522D01*
X131834424Y-65091541D01*
X131847957Y-65022994D01*
X131896401Y-64972646D01*
X131924791Y-64960962D01*
X131931762Y-64960044D01*
X132077841Y-64899536D01*
X132140933Y-64851124D01*
X132206102Y-64825930D01*
X132216419Y-64825500D01*
X134018927Y-64825500D01*
X134030596Y-64826050D01*
X134030682Y-64826058D01*
X134038296Y-64827760D01*
X134046093Y-64827515D01*
X134046094Y-64827515D01*
X134108262Y-64825561D01*
X134112157Y-64825500D01*
X134140925Y-64825500D01*
X134145302Y-64824947D01*
X134156936Y-64824032D01*
X134202569Y-64822597D01*
X134210061Y-64820420D01*
X134210063Y-64820420D01*
X134222945Y-64816677D01*
X134241992Y-64812732D01*
X134263058Y-64810071D01*
X134270309Y-64807200D01*
X134270317Y-64807198D01*
X134305508Y-64793264D01*
X134316558Y-64789480D01*
X134360398Y-64776744D01*
X134367118Y-64772770D01*
X134378670Y-64765939D01*
X134396137Y-64757381D01*
X134415871Y-64749568D01*
X134452801Y-64722737D01*
X134462565Y-64716323D01*
X134476753Y-64707932D01*
X134501865Y-64693081D01*
X134516872Y-64678074D01*
X134531668Y-64665437D01*
X134532567Y-64664784D01*
X134548837Y-64652963D01*
X134577937Y-64617787D01*
X134585800Y-64609146D01*
X136408127Y-62786819D01*
X136469450Y-62753334D01*
X136495808Y-62750500D01*
X137551526Y-62750499D01*
X137656518Y-62750499D01*
X137729151Y-62738996D01*
X137740669Y-62737172D01*
X137740670Y-62737172D01*
X137750304Y-62735646D01*
X137863342Y-62678050D01*
X137953050Y-62588342D01*
X138010646Y-62475304D01*
X138020482Y-62413202D01*
X138024737Y-62386339D01*
X138024737Y-62386334D01*
X138025500Y-62381519D01*
X138025499Y-60618482D01*
X138010646Y-60524696D01*
X137953050Y-60411658D01*
X137863342Y-60321950D01*
X137750304Y-60264354D01*
X137721067Y-60259723D01*
X137661339Y-60250263D01*
X137661334Y-60250263D01*
X137656519Y-60249500D01*
X137651641Y-60249500D01*
X136774368Y-60249501D01*
X135893482Y-60249501D01*
X135820849Y-60261004D01*
X135809331Y-60262828D01*
X135809330Y-60262828D01*
X135799696Y-60264354D01*
X135686658Y-60321950D01*
X135596950Y-60411658D01*
X135539354Y-60524696D01*
X135524500Y-60618481D01*
X135524500Y-61122989D01*
X135504815Y-61190028D01*
X135452011Y-61235783D01*
X135382853Y-61245727D01*
X135319297Y-61216702D01*
X135281155Y-61156647D01*
X135267881Y-61109579D01*
X135263819Y-61098998D01*
X135179441Y-60927894D01*
X135173517Y-60918228D01*
X135059366Y-60765362D01*
X135051785Y-60756942D01*
X134911683Y-60627432D01*
X134902701Y-60620540D01*
X134741331Y-60518724D01*
X134731253Y-60513589D01*
X134554035Y-60442886D01*
X134543182Y-60439670D01*
X134502484Y-60431576D01*
X134489816Y-60432710D01*
X134485000Y-60447623D01*
X134485000Y-62557504D01*
X134488903Y-62570798D01*
X134501866Y-62572654D01*
X134565438Y-62601642D01*
X134603247Y-62660398D01*
X134603287Y-62730268D01*
X134571971Y-62783083D01*
X133866873Y-63488181D01*
X133805550Y-63521666D01*
X133779192Y-63524500D01*
X132216419Y-63524500D01*
X132149380Y-63504815D01*
X132140933Y-63498876D01*
X132084288Y-63455411D01*
X132077841Y-63450464D01*
X132070333Y-63447354D01*
X131939271Y-63393066D01*
X131939269Y-63393065D01*
X131931762Y-63389956D01*
X131923703Y-63388895D01*
X131818381Y-63375029D01*
X131818377Y-63375029D01*
X131814361Y-63374500D01*
X131500078Y-63374500D01*
X131185640Y-63374501D01*
X131107983Y-63384724D01*
X131076296Y-63388895D01*
X131076294Y-63388895D01*
X131068238Y-63389956D01*
X130922159Y-63450464D01*
X130915712Y-63455411D01*
X130859067Y-63498876D01*
X130793898Y-63524070D01*
X130783581Y-63524500D01*
X127406072Y-63524500D01*
X127394403Y-63523950D01*
X127394317Y-63523942D01*
X127386703Y-63522240D01*
X127378906Y-63522485D01*
X127378905Y-63522485D01*
X127316737Y-63524439D01*
X127312842Y-63524500D01*
X127284075Y-63524500D01*
X127279700Y-63525053D01*
X127268062Y-63525969D01*
X127222430Y-63527403D01*
X127202043Y-63533326D01*
X127182999Y-63537269D01*
X127169682Y-63538951D01*
X127169680Y-63538952D01*
X127161942Y-63539929D01*
X127154691Y-63542800D01*
X127154686Y-63542801D01*
X127119493Y-63556735D01*
X127108441Y-63560519D01*
X127072092Y-63571079D01*
X127072088Y-63571081D01*
X127064601Y-63573256D01*
X127057889Y-63577225D01*
X127057890Y-63577225D01*
X127046331Y-63584061D01*
X127028861Y-63592619D01*
X127009129Y-63600432D01*
X127002822Y-63605015D01*
X127002819Y-63605016D01*
X126987111Y-63616429D01*
X126972195Y-63627266D01*
X126962451Y-63633667D01*
X126923135Y-63656919D01*
X126916873Y-63663181D01*
X126916147Y-63663577D01*
X126911455Y-63667217D01*
X126910868Y-63666460D01*
X126855550Y-63696666D01*
X126829192Y-63699500D01*
X125380410Y-63699501D01*
X125218482Y-63699501D01*
X125145849Y-63711004D01*
X125134331Y-63712828D01*
X125134330Y-63712828D01*
X125124696Y-63714354D01*
X125011658Y-63771950D01*
X124921950Y-63861658D01*
X124864354Y-63974696D01*
X124862827Y-63984338D01*
X124852270Y-64050994D01*
X124849500Y-64068481D01*
X124849501Y-65931518D01*
X124864354Y-66025304D01*
X124921950Y-66138342D01*
X125011658Y-66228050D01*
X125124696Y-66285646D01*
X125135676Y-66287385D01*
X125213661Y-66299737D01*
X125213666Y-66299737D01*
X125218481Y-66300500D01*
X125725500Y-66300500D01*
X125792539Y-66320185D01*
X125838294Y-66372989D01*
X125849500Y-66424500D01*
X125849500Y-72831843D01*
X125829815Y-72898882D01*
X125813181Y-72919524D01*
X124816873Y-73915832D01*
X124755550Y-73949317D01*
X124729192Y-73952151D01*
X123764812Y-73952152D01*
X123668482Y-73952152D01*
X123595849Y-73963655D01*
X123584331Y-73965479D01*
X123584330Y-73965479D01*
X123574696Y-73967005D01*
X123461658Y-74024601D01*
X123371950Y-74114309D01*
X123314354Y-74227347D01*
X123312827Y-74236989D01*
X123300680Y-74313684D01*
X123299500Y-74321132D01*
X118493828Y-74321132D01*
X118498619Y-74313684D01*
X118507388Y-74294219D01*
X118600541Y-74087425D01*
X118602428Y-74083236D01*
X118671034Y-73839976D01*
X118672873Y-73825526D01*
X118688431Y-73703228D01*
X118702931Y-73589247D01*
X118705268Y-73500000D01*
X118705038Y-73496902D01*
X118686879Y-73252542D01*
X118686878Y-73252537D01*
X118686537Y-73247945D01*
X118634820Y-73019388D01*
X118631774Y-73005925D01*
X118631772Y-73005920D01*
X118630756Y-73001428D01*
X118600656Y-72924025D01*
X118594705Y-72854409D01*
X118628544Y-72791402D01*
X118869318Y-72550628D01*
X123961106Y-72550628D01*
X123965938Y-72557083D01*
X124072307Y-72616530D01*
X124083366Y-72621362D01*
X124267667Y-72681244D01*
X124279458Y-72683837D01*
X124471883Y-72706783D01*
X124483949Y-72707036D01*
X124677166Y-72692168D01*
X124689057Y-72690071D01*
X124875702Y-72637959D01*
X124886953Y-72633595D01*
X125030784Y-72560941D01*
X125040908Y-72551446D01*
X125038705Y-72544909D01*
X124512607Y-72018811D01*
X124498887Y-72011319D01*
X124497081Y-72011448D01*
X124490574Y-72015630D01*
X123967757Y-72538447D01*
X123961106Y-72550628D01*
X118869318Y-72550628D01*
X119775980Y-71643966D01*
X123445530Y-71643966D01*
X123461744Y-71837063D01*
X123463926Y-71848951D01*
X123517337Y-72035217D01*
X123521783Y-72046448D01*
X123592005Y-72183085D01*
X123601571Y-72193142D01*
X123608262Y-72190836D01*
X124133840Y-71665258D01*
X124140116Y-71653764D01*
X124858668Y-71653764D01*
X124858797Y-71655570D01*
X124862979Y-71662077D01*
X125385623Y-72184721D01*
X125397804Y-72191372D01*
X125404432Y-72186411D01*
X125460866Y-72087068D01*
X125465780Y-72076031D01*
X125526947Y-71892159D01*
X125529622Y-71880386D01*
X125554235Y-71685554D01*
X125554718Y-71678644D01*
X125555033Y-71656113D01*
X125554743Y-71649203D01*
X125535579Y-71453754D01*
X125533235Y-71441915D01*
X125477224Y-71256397D01*
X125472623Y-71245235D01*
X125407520Y-71122793D01*
X125397817Y-71112872D01*
X125390804Y-71115400D01*
X124866160Y-71640044D01*
X124858668Y-71653764D01*
X124140116Y-71653764D01*
X124141332Y-71651538D01*
X124141203Y-71649732D01*
X124137021Y-71643225D01*
X123613994Y-71120198D01*
X123601813Y-71113547D01*
X123595525Y-71118254D01*
X123533157Y-71231700D01*
X123528406Y-71242785D01*
X123469808Y-71427508D01*
X123467299Y-71439315D01*
X123445698Y-71631890D01*
X123445530Y-71643966D01*
X119775980Y-71643966D01*
X120665399Y-70754547D01*
X123959886Y-70754547D01*
X123962301Y-70761399D01*
X124487393Y-71286491D01*
X124501113Y-71293983D01*
X124502919Y-71293854D01*
X124509426Y-71289672D01*
X125032703Y-70766395D01*
X125039354Y-70754214D01*
X125034769Y-70748089D01*
X124914195Y-70682896D01*
X124903068Y-70678218D01*
X124717937Y-70620911D01*
X124706130Y-70618487D01*
X124513395Y-70598230D01*
X124501329Y-70598145D01*
X124308340Y-70615708D01*
X124296477Y-70617971D01*
X124110575Y-70672685D01*
X124099386Y-70677206D01*
X123969875Y-70744913D01*
X123959886Y-70754547D01*
X120665399Y-70754547D01*
X122902647Y-68517299D01*
X122911288Y-68509436D01*
X122911353Y-68509382D01*
X122917940Y-68505202D01*
X122965865Y-68454167D01*
X122968576Y-68451370D01*
X122988912Y-68431034D01*
X122991616Y-68427547D01*
X122999197Y-68418672D01*
X123025107Y-68391081D01*
X123025109Y-68391079D01*
X123030448Y-68385393D01*
X123040672Y-68366796D01*
X123051355Y-68350533D01*
X123059585Y-68339923D01*
X123059585Y-68339922D01*
X123064363Y-68333763D01*
X123082495Y-68291862D01*
X123087636Y-68281368D01*
X123099571Y-68259660D01*
X123109627Y-68241368D01*
X123114906Y-68220806D01*
X123121207Y-68202404D01*
X123123481Y-68197150D01*
X123129636Y-68182926D01*
X123136779Y-68137830D01*
X123139147Y-68126393D01*
X123150500Y-68082177D01*
X123150500Y-68060954D01*
X123152027Y-68041556D01*
X123154126Y-68028304D01*
X123155347Y-68020595D01*
X123151050Y-67975137D01*
X123150500Y-67963468D01*
X123150500Y-66424499D01*
X123170185Y-66357460D01*
X123222989Y-66311705D01*
X123274500Y-66300499D01*
X123781518Y-66300499D01*
X123858344Y-66288332D01*
X123865669Y-66287172D01*
X123865670Y-66287172D01*
X123875304Y-66285646D01*
X123988342Y-66228050D01*
X124078050Y-66138342D01*
X124135646Y-66025304D01*
X124148742Y-65942618D01*
X124149737Y-65936339D01*
X124149737Y-65936334D01*
X124150500Y-65931519D01*
X124150499Y-64068482D01*
X124135646Y-63974696D01*
X124078050Y-63861658D01*
X123988342Y-63771950D01*
X123875304Y-63714354D01*
X123841715Y-63709034D01*
X123786339Y-63700263D01*
X123786334Y-63700263D01*
X123781519Y-63699500D01*
X123776641Y-63699500D01*
X122499080Y-63699501D01*
X121218482Y-63699501D01*
X121145849Y-63711004D01*
X121134331Y-63712828D01*
X121134330Y-63712828D01*
X121124696Y-63714354D01*
X121011658Y-63771950D01*
X120921950Y-63861658D01*
X120864354Y-63974696D01*
X120862827Y-63984338D01*
X120852270Y-64050994D01*
X120849500Y-64068481D01*
X120849501Y-65931518D01*
X120864354Y-66025304D01*
X120921950Y-66138342D01*
X121011658Y-66228050D01*
X121124696Y-66285646D01*
X121135676Y-66287385D01*
X121213661Y-66299737D01*
X121213666Y-66299737D01*
X121218481Y-66300500D01*
X121725500Y-66300500D01*
X121792539Y-66320185D01*
X121838294Y-66372989D01*
X121849500Y-66424500D01*
X121849500Y-67679192D01*
X121829815Y-67746231D01*
X121813181Y-67766873D01*
X117709201Y-71870853D01*
X117647878Y-71904338D01*
X117583717Y-71901269D01*
X117482601Y-71868902D01*
X117398087Y-71841849D01*
X117148624Y-71801221D01*
X117027120Y-71799631D01*
X116900506Y-71797973D01*
X116900501Y-71797973D01*
X116895896Y-71797913D01*
X116791195Y-71812162D01*
X116650022Y-71831374D01*
X116650016Y-71831375D01*
X116645455Y-71831996D01*
X116641034Y-71833284D01*
X116641032Y-71833285D01*
X116411228Y-71900267D01*
X116341358Y-71900129D01*
X116288848Y-71868902D01*
X115186819Y-70766873D01*
X115153334Y-70705550D01*
X115150500Y-70679192D01*
X115150500Y-66250221D01*
X115170185Y-66183182D01*
X115210172Y-66144212D01*
X115295574Y-66092388D01*
X115300065Y-66089663D01*
X115388831Y-66012636D01*
X115469520Y-65942618D01*
X115469524Y-65942614D01*
X115473487Y-65939175D01*
X115613425Y-65768508D01*
X115615746Y-65765677D01*
X115615747Y-65765676D01*
X115619074Y-65761618D01*
X115621671Y-65757056D01*
X115730070Y-65566629D01*
X115730073Y-65566623D01*
X115732664Y-65562071D01*
X115738345Y-65546420D01*
X115779722Y-65490120D01*
X115844969Y-65465128D01*
X115913370Y-65479378D01*
X115966116Y-65533885D01*
X116007792Y-65618396D01*
X116013711Y-65628054D01*
X116139136Y-65796018D01*
X116146717Y-65804438D01*
X116300653Y-65946735D01*
X116309638Y-65953630D01*
X116486928Y-66065492D01*
X116497019Y-66070633D01*
X116691720Y-66148311D01*
X116702592Y-66151532D01*
X116772512Y-66165439D01*
X116785184Y-66164306D01*
X116789183Y-66151922D01*
X117290000Y-66151922D01*
X117293746Y-66164680D01*
X117308427Y-66166586D01*
X117346960Y-66159965D01*
X117357896Y-66157034D01*
X117554576Y-66084476D01*
X117564794Y-66079602D01*
X117744949Y-65972421D01*
X117754117Y-65965760D01*
X117911728Y-65827539D01*
X117919517Y-65819331D01*
X118049304Y-65654696D01*
X118055470Y-65645202D01*
X118153075Y-65459684D01*
X118157413Y-65449213D01*
X118219576Y-65249015D01*
X118221930Y-65237944D01*
X118224917Y-65212702D01*
X118222513Y-65198512D01*
X118209973Y-65195000D01*
X117307830Y-65195000D01*
X117292831Y-65199404D01*
X117291644Y-65200774D01*
X117290000Y-65208332D01*
X117290000Y-66151922D01*
X116789183Y-66151922D01*
X116790000Y-66149393D01*
X116790000Y-64677170D01*
X117290000Y-64677170D01*
X117294404Y-64692169D01*
X117295774Y-64693356D01*
X117303332Y-64695000D01*
X118211215Y-64695000D01*
X118225532Y-64690796D01*
X118227373Y-64679968D01*
X118225886Y-64671950D01*
X118168983Y-64470188D01*
X118164926Y-64459617D01*
X118072208Y-64271604D01*
X118066289Y-64261946D01*
X117940864Y-64093982D01*
X117933283Y-64085562D01*
X117779347Y-63943265D01*
X117770362Y-63936370D01*
X117593072Y-63824508D01*
X117582981Y-63819367D01*
X117388280Y-63741689D01*
X117377408Y-63738468D01*
X117307488Y-63724561D01*
X117294816Y-63725694D01*
X117290000Y-63740607D01*
X117290000Y-64677170D01*
X116790000Y-64677170D01*
X116790000Y-63738078D01*
X116786254Y-63725320D01*
X116771573Y-63723414D01*
X116733040Y-63730035D01*
X116722104Y-63732966D01*
X116525424Y-63805524D01*
X116515206Y-63810398D01*
X116335051Y-63917579D01*
X116325883Y-63924240D01*
X116168272Y-64062461D01*
X116160483Y-64070669D01*
X116030696Y-64235304D01*
X116024533Y-64244794D01*
X115962657Y-64362400D01*
X115914022Y-64412563D01*
X115845987Y-64428469D01*
X115780153Y-64405067D01*
X115739861Y-64355592D01*
X115727400Y-64327929D01*
X115686488Y-64237109D01*
X115558257Y-64046640D01*
X115432056Y-63914347D01*
X115403392Y-63884300D01*
X115399766Y-63880499D01*
X115215549Y-63743438D01*
X115010872Y-63639374D01*
X114971865Y-63627262D01*
X114796600Y-63572841D01*
X114796594Y-63572840D01*
X114791587Y-63571285D01*
X114786383Y-63570595D01*
X114786382Y-63570595D01*
X114569166Y-63541804D01*
X114569162Y-63541804D01*
X114563965Y-63541115D01*
X114420836Y-63546489D01*
X114339759Y-63549533D01*
X114339758Y-63549533D01*
X114334515Y-63549730D01*
X114329385Y-63550806D01*
X114329380Y-63550807D01*
X114114927Y-63595803D01*
X114114925Y-63595804D01*
X114109795Y-63596880D01*
X114104917Y-63598806D01*
X114104915Y-63598807D01*
X114096091Y-63602292D01*
X113896233Y-63681220D01*
X113891749Y-63683941D01*
X113891745Y-63683943D01*
X113793701Y-63743438D01*
X113699935Y-63800337D01*
X113657565Y-63837104D01*
X113530480Y-63947382D01*
X113530476Y-63947386D01*
X113526513Y-63950825D01*
X113426047Y-64073353D01*
X113382888Y-64125989D01*
X113325159Y-64165349D01*
X113255315Y-64167250D01*
X113195531Y-64131089D01*
X113164788Y-64068346D01*
X113163000Y-64047366D01*
X113163000Y-63920326D01*
X113148466Y-63847260D01*
X113110377Y-63790255D01*
X113099885Y-63774552D01*
X113093101Y-63764399D01*
X113059113Y-63741689D01*
X113033478Y-63724561D01*
X113010240Y-63709034D01*
X112976187Y-63702260D01*
X112943153Y-63695689D01*
X112943150Y-63695689D01*
X112937174Y-63694500D01*
X111291899Y-63694500D01*
X111224860Y-63674815D01*
X111204218Y-63658181D01*
X109668198Y-62122161D01*
X109653071Y-62103432D01*
X109652130Y-62102398D01*
X109646572Y-62093790D01*
X109620445Y-62073193D01*
X109616042Y-62069280D01*
X109615983Y-62069350D01*
X109612080Y-62066043D01*
X109608462Y-62062425D01*
X109592920Y-62051319D01*
X109588272Y-62047830D01*
X109548400Y-62016397D01*
X109539851Y-62013395D01*
X109532481Y-62008128D01*
X109483877Y-61993592D01*
X109478324Y-61991788D01*
X109437817Y-61977563D01*
X109437814Y-61977562D01*
X109430452Y-61974977D01*
X109424945Y-61974500D01*
X109422261Y-61974500D01*
X109419659Y-61974387D01*
X109419585Y-61974365D01*
X109419592Y-61974196D01*
X109418867Y-61974150D01*
X109412713Y-61972310D01*
X109402474Y-61972712D01*
X109402471Y-61972712D01*
X109359419Y-61974404D01*
X109354551Y-61974500D01*
X107721991Y-61974500D01*
X107654952Y-61954815D01*
X107609197Y-61902011D01*
X107600374Y-61874692D01*
X107591594Y-61830553D01*
X107585966Y-61802260D01*
X107559573Y-61762759D01*
X133166731Y-61762759D01*
X133192255Y-61863260D01*
X133196028Y-61873916D01*
X133275910Y-62047193D01*
X133281574Y-62057002D01*
X133391689Y-62212812D01*
X133399039Y-62221417D01*
X133535709Y-62354555D01*
X133544512Y-62361683D01*
X133703147Y-62467680D01*
X133713105Y-62473087D01*
X133888396Y-62548397D01*
X133899178Y-62551901D01*
X133967609Y-62567385D01*
X133981462Y-62566510D01*
X133985000Y-62557261D01*
X133985000Y-61767830D01*
X133980596Y-61752831D01*
X133979226Y-61751644D01*
X133971668Y-61750000D01*
X133181321Y-61750000D01*
X133168004Y-61753910D01*
X133166731Y-61762759D01*
X107559573Y-61762759D01*
X107553990Y-61754404D01*
X107537385Y-61729552D01*
X107530601Y-61719399D01*
X107447740Y-61664034D01*
X107413687Y-61657260D01*
X107380653Y-61650689D01*
X107380650Y-61650689D01*
X107374674Y-61649500D01*
X106125326Y-61649500D01*
X106119350Y-61650689D01*
X106119347Y-61650689D01*
X106086313Y-61657260D01*
X106052260Y-61664034D01*
X105969399Y-61719399D01*
X105962615Y-61729552D01*
X105946010Y-61754404D01*
X105914034Y-61802260D01*
X105908406Y-61830553D01*
X105899626Y-61874692D01*
X105867241Y-61936603D01*
X105806525Y-61971177D01*
X105778009Y-61974500D01*
X104210002Y-61974500D01*
X104142963Y-61954815D01*
X104109686Y-61923388D01*
X104107479Y-61920351D01*
X104103050Y-61911658D01*
X104013342Y-61821950D01*
X103900304Y-61764354D01*
X103871067Y-61759723D01*
X103811339Y-61750263D01*
X103811334Y-61750263D01*
X103806519Y-61749500D01*
X103801641Y-61749500D01*
X103187056Y-61749501D01*
X102568482Y-61749501D01*
X102495849Y-61761004D01*
X102484331Y-61762828D01*
X102484330Y-61762828D01*
X102474696Y-61764354D01*
X102361658Y-61821950D01*
X102271950Y-61911658D01*
X102214354Y-62024696D01*
X102210791Y-62047193D01*
X102200396Y-62112827D01*
X102199500Y-62118481D01*
X102199501Y-62481518D01*
X102214354Y-62575304D01*
X102215746Y-62578036D01*
X102217634Y-62644164D01*
X102181552Y-62703996D01*
X102118850Y-62734822D01*
X102049436Y-62726856D01*
X102041410Y-62723121D01*
X102033846Y-62719267D01*
X102015505Y-62713308D01*
X101936303Y-62700764D01*
X101926601Y-62700000D01*
X101580330Y-62700000D01*
X101565331Y-62704404D01*
X101564144Y-62705774D01*
X101562500Y-62713332D01*
X101562500Y-62982170D01*
X101062500Y-62982170D01*
X101062500Y-62717831D01*
X101058096Y-62702832D01*
X101056726Y-62701645D01*
X101049168Y-62700001D01*
X100698391Y-62700001D01*
X100688711Y-62700763D01*
X100609487Y-62713309D01*
X100591160Y-62719264D01*
X100495650Y-62767929D01*
X100480053Y-62779261D01*
X100404261Y-62855053D01*
X100392929Y-62870650D01*
X100344266Y-62966156D01*
X100338741Y-62983162D01*
X95275500Y-62983162D01*
X95275500Y-62724500D01*
X95295185Y-62657461D01*
X95347989Y-62611706D01*
X95399500Y-62600500D01*
X95649674Y-62600500D01*
X95655650Y-62599311D01*
X95655653Y-62599311D01*
X95688687Y-62592740D01*
X95722740Y-62585966D01*
X95805601Y-62530601D01*
X95860966Y-62447740D01*
X95873180Y-62386339D01*
X95874311Y-62380653D01*
X95874311Y-62380650D01*
X95875500Y-62374674D01*
X95875500Y-61246850D01*
X133165809Y-61246850D01*
X133172433Y-61250000D01*
X133967170Y-61250000D01*
X133982169Y-61245596D01*
X133983356Y-61244226D01*
X133985000Y-61236668D01*
X133985000Y-60444587D01*
X133981254Y-60431829D01*
X133966573Y-60429923D01*
X133954685Y-60431966D01*
X133943745Y-60434897D01*
X133764737Y-60500936D01*
X133754524Y-60505808D01*
X133590557Y-60603358D01*
X133581390Y-60610018D01*
X133437942Y-60735819D01*
X133430152Y-60744028D01*
X133312027Y-60893868D01*
X133305864Y-60903360D01*
X133217025Y-61072214D01*
X133212694Y-61082669D01*
X133166023Y-61232975D01*
X133165809Y-61246850D01*
X95875500Y-61246850D01*
X95875500Y-60625326D01*
X95874139Y-60618481D01*
X95863349Y-60564241D01*
X95860966Y-60552260D01*
X95805601Y-60469399D01*
X95722740Y-60414034D01*
X95688687Y-60407260D01*
X95655653Y-60400689D01*
X95655650Y-60400689D01*
X95649674Y-60399500D01*
X93900326Y-60399500D01*
X93894350Y-60400689D01*
X93894347Y-60400689D01*
X93861313Y-60407260D01*
X93827260Y-60414034D01*
X93744399Y-60469399D01*
X93689034Y-60552260D01*
X93686651Y-60564241D01*
X93675862Y-60618481D01*
X93674500Y-60625326D01*
X93674500Y-62374674D01*
X93675689Y-62380650D01*
X93675689Y-62380653D01*
X93676820Y-62386339D01*
X93689034Y-62447740D01*
X93744399Y-62530601D01*
X93827260Y-62585966D01*
X93861313Y-62592740D01*
X93894347Y-62599311D01*
X93894350Y-62599311D01*
X93900326Y-62600500D01*
X94150500Y-62600500D01*
X94217539Y-62620185D01*
X94263294Y-62672989D01*
X94274500Y-62724500D01*
X94274500Y-66470500D01*
X94254815Y-66537539D01*
X94202011Y-66583294D01*
X94150500Y-66594500D01*
X93074052Y-66594500D01*
X93017757Y-66580985D01*
X92984000Y-66563785D01*
X92984001Y-66563785D01*
X92975304Y-66559354D01*
X92933810Y-66552782D01*
X92886339Y-66545263D01*
X92886334Y-66545263D01*
X92881519Y-66544500D01*
X92876641Y-66544500D01*
X92024386Y-66544501D01*
X91168482Y-66544501D01*
X91101658Y-66555084D01*
X91084331Y-66557828D01*
X91084330Y-66557828D01*
X91074696Y-66559354D01*
X90961658Y-66616950D01*
X90871950Y-66706658D01*
X90814354Y-66819696D01*
X90799500Y-66913481D01*
X90799501Y-67276518D01*
X90808713Y-67334687D01*
X90812781Y-67360369D01*
X90814354Y-67370304D01*
X90871950Y-67483342D01*
X90961658Y-67573050D01*
X91007742Y-67596531D01*
X91052850Y-67619515D01*
X91103646Y-67667490D01*
X91120441Y-67735311D01*
X91097903Y-67801446D01*
X91052850Y-67840485D01*
X91028546Y-67852869D01*
X90961658Y-67886950D01*
X90871950Y-67976658D01*
X90814354Y-68089696D01*
X90812827Y-68099338D01*
X90800809Y-68175218D01*
X90799500Y-68183481D01*
X90799501Y-68546518D01*
X90814354Y-68640304D01*
X90871950Y-68753342D01*
X90961658Y-68843050D01*
X91007756Y-68866538D01*
X91052850Y-68889515D01*
X91103646Y-68937490D01*
X91120441Y-69005311D01*
X91097903Y-69071446D01*
X91052850Y-69110485D01*
X90961658Y-69156950D01*
X90871950Y-69246658D01*
X90814354Y-69359696D01*
X90812827Y-69369338D01*
X90800477Y-69447314D01*
X90799500Y-69453481D01*
X89750500Y-69453481D01*
X89750500Y-62036885D01*
X89752883Y-62012694D01*
X89753025Y-62011980D01*
X89755408Y-62000000D01*
X89753025Y-61988022D01*
X89753025Y-61975805D01*
X89753339Y-61975805D01*
X89752611Y-61965099D01*
X89763075Y-61792104D01*
X89764850Y-61762759D01*
X91166731Y-61762759D01*
X91192255Y-61863260D01*
X91196028Y-61873916D01*
X91275910Y-62047193D01*
X91281574Y-62057002D01*
X91391689Y-62212812D01*
X91399039Y-62221417D01*
X91535709Y-62354555D01*
X91544512Y-62361683D01*
X91703147Y-62467680D01*
X91713105Y-62473087D01*
X91888396Y-62548397D01*
X91899178Y-62551901D01*
X91967609Y-62567385D01*
X91981462Y-62566510D01*
X91984907Y-62557504D01*
X92485000Y-62557504D01*
X92488903Y-62570798D01*
X92498736Y-62572206D01*
X92678937Y-62511036D01*
X92689293Y-62506425D01*
X92855753Y-62413202D01*
X92865090Y-62406785D01*
X93011777Y-62284787D01*
X93019787Y-62276777D01*
X93141785Y-62130090D01*
X93148202Y-62120753D01*
X93241425Y-61954293D01*
X93246036Y-61943937D01*
X93307215Y-61763709D01*
X93305821Y-61753930D01*
X93292467Y-61750000D01*
X92502830Y-61750000D01*
X92487831Y-61754404D01*
X92486644Y-61755774D01*
X92485000Y-61763332D01*
X92485000Y-62557504D01*
X91984907Y-62557504D01*
X91985000Y-62557261D01*
X91985000Y-61767830D01*
X91980596Y-61752831D01*
X91979226Y-61751644D01*
X91971668Y-61750000D01*
X91181321Y-61750000D01*
X91168004Y-61753910D01*
X91166731Y-61762759D01*
X89764850Y-61762759D01*
X89766448Y-61736338D01*
X89768253Y-61721475D01*
X89768634Y-61719399D01*
X89777536Y-61670820D01*
X89814515Y-61469033D01*
X89818099Y-61454495D01*
X89882704Y-61247169D01*
X89882803Y-61246850D01*
X91165809Y-61246850D01*
X91172433Y-61250000D01*
X91967170Y-61250000D01*
X91982169Y-61245596D01*
X91983356Y-61244226D01*
X91985000Y-61236668D01*
X91985000Y-61232170D01*
X92485000Y-61232170D01*
X92489404Y-61247169D01*
X92490774Y-61248356D01*
X92498332Y-61250000D01*
X93289654Y-61250000D01*
X93302971Y-61246090D01*
X93304123Y-61238082D01*
X93267880Y-61109574D01*
X93263823Y-61099007D01*
X93179441Y-60927894D01*
X93173517Y-60918228D01*
X93059366Y-60765362D01*
X93051785Y-60756942D01*
X92911683Y-60627432D01*
X92902701Y-60620540D01*
X92741331Y-60518724D01*
X92731253Y-60513589D01*
X92554035Y-60442886D01*
X92543182Y-60439670D01*
X92502484Y-60431576D01*
X92489816Y-60432710D01*
X92485000Y-60447623D01*
X92485000Y-61232170D01*
X91985000Y-61232170D01*
X91985000Y-60444587D01*
X91981254Y-60431829D01*
X91966573Y-60429923D01*
X91954685Y-60431966D01*
X91943745Y-60434897D01*
X91764737Y-60500936D01*
X91754524Y-60505808D01*
X91590557Y-60603358D01*
X91581390Y-60610018D01*
X91437942Y-60735819D01*
X91430152Y-60744028D01*
X91312027Y-60893868D01*
X91305864Y-60903360D01*
X91217025Y-61072214D01*
X91212694Y-61082669D01*
X91166023Y-61232975D01*
X91165809Y-61246850D01*
X89882803Y-61246850D01*
X89894450Y-61209477D01*
X89899758Y-61195479D01*
X90005090Y-60961443D01*
X90012048Y-60948185D01*
X90144818Y-60728557D01*
X90153324Y-60716234D01*
X90311601Y-60514208D01*
X90321531Y-60503000D01*
X90503000Y-60321531D01*
X90514208Y-60311601D01*
X90716234Y-60153324D01*
X90728557Y-60144818D01*
X90948185Y-60012048D01*
X90961443Y-60005090D01*
X91195479Y-59899758D01*
X91209477Y-59894450D01*
X91288509Y-59869822D01*
X91454495Y-59818099D01*
X91469033Y-59814515D01*
X91721475Y-59768253D01*
X91736338Y-59766448D01*
X91797456Y-59762751D01*
X91965099Y-59752611D01*
X91975805Y-59753339D01*
X91975805Y-59753025D01*
X91988022Y-59753025D01*
X92000000Y-59755408D01*
X92011980Y-59753025D01*
X92012694Y-59752883D01*
X92036885Y-59750500D01*
X136963115Y-59750500D01*
X136987306Y-59752883D01*
G37*
%TD.AperFunction*%
%TA.AperFunction,Conductor*%
G36*
X95982244Y-67609016D02*
G01*
X96002851Y-67619516D01*
X96053646Y-67667490D01*
X96070441Y-67735312D01*
X96047903Y-67801446D01*
X96002850Y-67840485D01*
X95978546Y-67852869D01*
X95911658Y-67886950D01*
X95821950Y-67976658D01*
X95764354Y-68089696D01*
X95762827Y-68099338D01*
X95750809Y-68175218D01*
X95749500Y-68183481D01*
X95749501Y-68546518D01*
X95764354Y-68640304D01*
X95821950Y-68753342D01*
X95911658Y-68843050D01*
X95957756Y-68866538D01*
X96002850Y-68889515D01*
X96053646Y-68937490D01*
X96070441Y-69005311D01*
X96047903Y-69071446D01*
X96002850Y-69110485D01*
X95911658Y-69156950D01*
X95821950Y-69246658D01*
X95764354Y-69359696D01*
X95762827Y-69369338D01*
X95750477Y-69447314D01*
X95749500Y-69453481D01*
X95749500Y-69547796D01*
X95729815Y-69614835D01*
X95713181Y-69635477D01*
X94587181Y-70761477D01*
X94525858Y-70794962D01*
X94456166Y-70789978D01*
X94400233Y-70748106D01*
X94375816Y-70682642D01*
X94375500Y-70673796D01*
X94375500Y-70553284D01*
X94378047Y-70529349D01*
X94378113Y-70527948D01*
X94380269Y-70517934D01*
X94376359Y-70484895D01*
X94376012Y-70479010D01*
X94375921Y-70479018D01*
X94375500Y-70473923D01*
X94375500Y-70468807D01*
X94374660Y-70463758D01*
X94372364Y-70449960D01*
X94371542Y-70444180D01*
X94366783Y-70403970D01*
X94366781Y-70403963D01*
X94365577Y-70393791D01*
X94361654Y-70385622D01*
X94360167Y-70376687D01*
X94336079Y-70332046D01*
X94333428Y-70326841D01*
X94314844Y-70288139D01*
X94314840Y-70288133D01*
X94311463Y-70281100D01*
X94307906Y-70276869D01*
X94306020Y-70274983D01*
X94304249Y-70273053D01*
X94304221Y-70273000D01*
X94304348Y-70272883D01*
X94303857Y-70272326D01*
X94300806Y-70266671D01*
X94261619Y-70230447D01*
X94258109Y-70227072D01*
X93438198Y-69407161D01*
X93423071Y-69388432D01*
X93422130Y-69387398D01*
X93416572Y-69378790D01*
X93395155Y-69361906D01*
X93390445Y-69358193D01*
X93386042Y-69354280D01*
X93385983Y-69354350D01*
X93382080Y-69351043D01*
X93378462Y-69347425D01*
X93362920Y-69336319D01*
X93358272Y-69332830D01*
X93318400Y-69301397D01*
X93309851Y-69298395D01*
X93302481Y-69293128D01*
X93253877Y-69278592D01*
X93248323Y-69276788D01*
X93213085Y-69264413D01*
X93166491Y-69235099D01*
X93088342Y-69156950D01*
X92997150Y-69110485D01*
X92946354Y-69062510D01*
X92929559Y-68994689D01*
X92952097Y-68928554D01*
X92997150Y-68889515D01*
X93042244Y-68866538D01*
X93088342Y-68843050D01*
X93178050Y-68753342D01*
X93182480Y-68744648D01*
X93182482Y-68744645D01*
X93208691Y-68693206D01*
X93256665Y-68642409D01*
X93319176Y-68625500D01*
X93902907Y-68625500D01*
X93969946Y-68645185D01*
X93996771Y-68668472D01*
X93999790Y-68671969D01*
X94003958Y-68678172D01*
X94009488Y-68683204D01*
X94009489Y-68683205D01*
X94114878Y-68779102D01*
X94114882Y-68779105D01*
X94120410Y-68784135D01*
X94126980Y-68787702D01*
X94126981Y-68787703D01*
X94228917Y-68843050D01*
X94258776Y-68859262D01*
X94361031Y-68886088D01*
X94403841Y-68897319D01*
X94403843Y-68897319D01*
X94411069Y-68899215D01*
X94488127Y-68900425D01*
X94561025Y-68901571D01*
X94561028Y-68901571D01*
X94568495Y-68901688D01*
X94575776Y-68900020D01*
X94575780Y-68900020D01*
X94714681Y-68868207D01*
X94721968Y-68866538D01*
X94862625Y-68795795D01*
X94868306Y-68790943D01*
X94868309Y-68790941D01*
X94976666Y-68698395D01*
X94976667Y-68698394D01*
X94982348Y-68693542D01*
X94992091Y-68679984D01*
X95031241Y-68625500D01*
X95074224Y-68565683D01*
X95132950Y-68419598D01*
X95134793Y-68406649D01*
X95154562Y-68267744D01*
X95154562Y-68267740D01*
X95155134Y-68263723D01*
X95155278Y-68250000D01*
X95148998Y-68198102D01*
X95137262Y-68101119D01*
X95137261Y-68101115D01*
X95136363Y-68093694D01*
X95092139Y-67976658D01*
X95083354Y-67953408D01*
X95083352Y-67953405D01*
X95080710Y-67946412D01*
X95068629Y-67928834D01*
X94995768Y-67822821D01*
X94995765Y-67822818D01*
X94991531Y-67816657D01*
X94985948Y-67811683D01*
X94981005Y-67806076D01*
X94982069Y-67805138D01*
X94949439Y-67752792D01*
X94950402Y-67682929D01*
X94988982Y-67624677D01*
X95052932Y-67596531D01*
X95068886Y-67595500D01*
X95925948Y-67595500D01*
X95982244Y-67609016D01*
G37*
%TD.AperFunction*%
%TD*%
M02*
