M48
; DRILL file {KiCad (6.0.6)} date Mon Aug 22 11:18:43 2022
; FORMAT={-:-/ absolute / inch / decimal}
; #@! TF.CreationDate,2022-08-22T11:18:43+02:00
; #@! TF.GenerationSoftware,Kicad,Pcbnew,(6.0.6)
; #@! TF.FileFunction,Plated,1,2,PTH
FMAT,2
INCH
; #@! TA.AperFunction,Plated,PTH,ViaDrill
T1C0.0157
; #@! TA.AperFunction,Plated,PTH,ComponentDrill
T2C0.0315
; #@! TA.AperFunction,Plated,PTH,ComponentDrill
T3C0.0394
; #@! TA.AperFunction,Plated,PTH,ComponentDrill
T4C0.0433
; #@! TA.AperFunction,Plated,PTH,ComponentDrill
T5C0.0512
%
G90
G05
T1
X3.5827Y-2.874
X3.622Y-2.5394
X3.7205Y-2.687
X3.7205Y-2.7362
X3.878Y-2.5394
X3.8878Y-2.7953
X3.8976Y-2.9331
X4.0551Y-2.687
X4.2717Y-2.4016
X4.2717Y-2.6772
X4.2717Y-3.0512
X4.7441Y-2.4016
X4.7441Y-2.6772
X4.7441Y-3.0512
X4.9016Y-2.6575
X5.0787Y-2.6575
X5.0787Y-2.815
X5.128Y-2.7461
X5.2559Y-2.5984
X5.4331Y-2.8346
T2
X4.1142Y-2.821
X4.1142Y-2.9588
X4.9016Y-2.821
X4.9016Y-2.9588
T3
X3.6313Y-2.4213
X3.6313Y-3.0512
X3.7313Y-2.4213
X3.7313Y-3.0512
X5.2848Y-2.4213
X5.2848Y-3.0512
X5.3848Y-2.4213
X5.3848Y-3.0512
T4
X4.4079Y-2.5569
X4.5079Y-2.5569
X4.6079Y-2.5569
T5
X4.4094Y-2.8937
X4.6063Y-2.8937
T0
M30
