%TF.GenerationSoftware,KiCad,Pcbnew,(6.0.6)*%
%TF.CreationDate,2022-08-22T11:18:43+02:00*%
%TF.ProjectId,nixieboi_psu,6e697869-6562-46f6-995f-7073752e6b69,rev?*%
%TF.SameCoordinates,Original*%
%TF.FileFunction,Legend,Bot*%
%TF.FilePolarity,Positive*%
%FSLAX46Y46*%
G04 Gerber Fmt 4.6, Leading zero omitted, Abs format (unit mm)*
G04 Created by KiCad (PCBNEW (6.0.6)) date 2022-08-22 11:18:43*
%MOMM*%
%LPD*%
G01*
G04 APERTURE LIST*
%ADD10C,0.150000*%
%ADD11C,0.120000*%
%ADD12R,1.905000X2.000000*%
%ADD13O,1.905000X2.000000*%
%ADD14C,2.600000*%
%ADD15R,1.600000X1.600000*%
%ADD16C,1.600000*%
%ADD17R,1.700000X1.700000*%
%ADD18O,1.700000X1.700000*%
%ADD19C,0.800000*%
G04 APERTURE END LIST*
D10*
%TO.C,J4*%
X135838333Y-74452380D02*
X135838333Y-75166666D01*
X135885952Y-75309523D01*
X135981190Y-75404761D01*
X136124047Y-75452380D01*
X136219285Y-75452380D01*
X134933571Y-74785714D02*
X134933571Y-75452380D01*
X135171666Y-74404761D02*
X135409761Y-75119047D01*
X134790714Y-75119047D01*
%TO.C,J2*%
X93838333Y-74452380D02*
X93838333Y-75166666D01*
X93885952Y-75309523D01*
X93981190Y-75404761D01*
X94124047Y-75452380D01*
X94219285Y-75452380D01*
X93409761Y-74547619D02*
X93362142Y-74500000D01*
X93266904Y-74452380D01*
X93028809Y-74452380D01*
X92933571Y-74500000D01*
X92885952Y-74547619D01*
X92838333Y-74642857D01*
X92838333Y-74738095D01*
X92885952Y-74880952D01*
X93457380Y-75452380D01*
X92838333Y-75452380D01*
%TO.C,J3*%
X135833333Y-63452380D02*
X135833333Y-64166666D01*
X135880952Y-64309523D01*
X135976190Y-64404761D01*
X136119047Y-64452380D01*
X136214285Y-64452380D01*
X135452380Y-63452380D02*
X134833333Y-63452380D01*
X135166666Y-63833333D01*
X135023809Y-63833333D01*
X134928571Y-63880952D01*
X134880952Y-63928571D01*
X134833333Y-64023809D01*
X134833333Y-64261904D01*
X134880952Y-64357142D01*
X134928571Y-64404761D01*
X135023809Y-64452380D01*
X135309523Y-64452380D01*
X135404761Y-64404761D01*
X135452380Y-64357142D01*
%TO.C,J1*%
X93833333Y-63452380D02*
X93833333Y-64166666D01*
X93880952Y-64309523D01*
X93976190Y-64404761D01*
X94119047Y-64452380D01*
X94214285Y-64452380D01*
X92833333Y-64452380D02*
X93404761Y-64452380D01*
X93119047Y-64452380D02*
X93119047Y-63452380D01*
X93214285Y-63595238D01*
X93309523Y-63690476D01*
X93404761Y-63738095D01*
D11*
%TO.C,J4*%
X135505000Y-78830000D02*
X132905000Y-78830000D01*
X135505000Y-76170000D02*
X132905000Y-76170000D01*
X138105000Y-78830000D02*
X138105000Y-77500000D01*
X136775000Y-78830000D02*
X138105000Y-78830000D01*
X135505000Y-78830000D02*
X135505000Y-76170000D01*
X132905000Y-78830000D02*
X132905000Y-76170000D01*
%TO.C,J2*%
X94775000Y-78830000D02*
X96105000Y-78830000D01*
X90905000Y-78830000D02*
X90905000Y-76170000D01*
X93505000Y-78830000D02*
X90905000Y-78830000D01*
X93505000Y-78830000D02*
X93505000Y-76170000D01*
X96105000Y-78830000D02*
X96105000Y-77500000D01*
X93505000Y-76170000D02*
X90905000Y-76170000D01*
%TO.C,J3*%
X136775000Y-62830000D02*
X138105000Y-62830000D01*
X135505000Y-62830000D02*
X135505000Y-60170000D01*
X135505000Y-60170000D02*
X132905000Y-60170000D01*
X132905000Y-62830000D02*
X132905000Y-60170000D01*
X135505000Y-62830000D02*
X132905000Y-62830000D01*
X138105000Y-62830000D02*
X138105000Y-61500000D01*
%TO.C,J1*%
X96105000Y-62830000D02*
X96105000Y-61500000D01*
X93505000Y-60170000D02*
X90905000Y-60170000D01*
X93505000Y-62830000D02*
X93505000Y-60170000D01*
X94775000Y-62830000D02*
X96105000Y-62830000D01*
X90905000Y-62830000D02*
X90905000Y-60170000D01*
X93505000Y-62830000D02*
X90905000Y-62830000D01*
%TD*%
%LPC*%
D12*
%TO.C,Q1*%
X111960000Y-64945000D03*
D13*
X114500000Y-64945000D03*
X117040000Y-64945000D03*
%TD*%
D14*
%TO.C,L1*%
X112000000Y-73500000D03*
X117000000Y-73500000D03*
%TD*%
D15*
%TO.C,C4*%
X124500000Y-75152651D03*
D16*
X124500000Y-71652651D03*
%TD*%
D15*
%TO.C,C1*%
X104500000Y-75152651D03*
D16*
X104500000Y-71652651D03*
%TD*%
D17*
%TO.C,J4*%
X136775000Y-77500000D03*
D18*
X134235000Y-77500000D03*
%TD*%
D17*
%TO.C,J2*%
X94775000Y-77500000D03*
D18*
X92235000Y-77500000D03*
%TD*%
D17*
%TO.C,J3*%
X136775000Y-61500000D03*
D18*
X134235000Y-61500000D03*
%TD*%
D17*
%TO.C,J1*%
X94775000Y-61500000D03*
D18*
X92235000Y-61500000D03*
%TD*%
D19*
X92000000Y-64500000D03*
X129000000Y-71500000D03*
X99000000Y-74500000D03*
X133500000Y-66000000D03*
X108500000Y-68000000D03*
X124500000Y-67500000D03*
X120500000Y-61000000D03*
X120500000Y-77500000D03*
X91000000Y-73000000D03*
X98500000Y-64500000D03*
X94500000Y-69500000D03*
X108500000Y-77500000D03*
X138000000Y-72000000D03*
X129000000Y-67500000D03*
X108500000Y-61000000D03*
X120500000Y-68000000D03*
X98750000Y-71000000D03*
X130250000Y-69750000D03*
X94500000Y-68250000D03*
X103000000Y-68250000D03*
M02*
