%TF.GenerationSoftware,KiCad,Pcbnew,(6.0.6)*%
%TF.CreationDate,2022-08-22T11:18:43+02:00*%
%TF.ProjectId,nixieboi_psu,6e697869-6562-46f6-995f-7073752e6b69,rev?*%
%TF.SameCoordinates,Original*%
%TF.FileFunction,Legend,Top*%
%TF.FilePolarity,Positive*%
%FSLAX46Y46*%
G04 Gerber Fmt 4.6, Leading zero omitted, Abs format (unit mm)*
G04 Created by KiCad (PCBNEW (6.0.6)) date 2022-08-22 11:18:43*
%MOMM*%
%LPD*%
G01*
G04 APERTURE LIST*
G04 Aperture macros list*
%AMRoundRect*
0 Rectangle with rounded corners*
0 $1 Rounding radius*
0 $2 $3 $4 $5 $6 $7 $8 $9 X,Y pos of 4 corners*
0 Add a 4 corners polygon primitive as box body*
4,1,4,$2,$3,$4,$5,$6,$7,$8,$9,$2,$3,0*
0 Add four circle primitives for the rounded corners*
1,1,$1+$1,$2,$3*
1,1,$1+$1,$4,$5*
1,1,$1+$1,$6,$7*
1,1,$1+$1,$8,$9*
0 Add four rect primitives between the rounded corners*
20,1,$1+$1,$2,$3,$4,$5,0*
20,1,$1+$1,$4,$5,$6,$7,0*
20,1,$1+$1,$6,$7,$8,$9,0*
20,1,$1+$1,$8,$9,$2,$3,0*%
G04 Aperture macros list end*
%ADD10C,0.150000*%
%ADD11C,0.120000*%
%ADD12C,0.300000*%
%ADD13RoundRect,0.150000X-0.825000X-0.150000X0.825000X-0.150000X0.825000X0.150000X-0.825000X0.150000X0*%
%ADD14R,1.905000X2.000000*%
%ADD15O,1.905000X2.000000*%
%ADD16RoundRect,0.200000X0.200000X0.275000X-0.200000X0.275000X-0.200000X-0.275000X0.200000X-0.275000X0*%
%ADD17RoundRect,0.150000X0.587500X0.150000X-0.587500X0.150000X-0.587500X-0.150000X0.587500X-0.150000X0*%
%ADD18RoundRect,0.225000X0.225000X0.250000X-0.225000X0.250000X-0.225000X-0.250000X0.225000X-0.250000X0*%
%ADD19RoundRect,0.200000X-0.275000X0.200000X-0.275000X-0.200000X0.275000X-0.200000X0.275000X0.200000X0*%
%ADD20C,2.600000*%
%ADD21R,1.200000X1.200000*%
%ADD22R,1.600000X1.500000*%
%ADD23R,2.500000X1.800000*%
%ADD24R,1.600000X1.600000*%
%ADD25C,1.600000*%
%ADD26R,1.200000X0.900000*%
%ADD27R,1.700000X1.700000*%
%ADD28O,1.700000X1.700000*%
%ADD29C,0.800000*%
G04 APERTURE END LIST*
D10*
%TO.C,U1*%
X93738095Y-65052380D02*
X93738095Y-65861904D01*
X93785714Y-65957142D01*
X93833333Y-66004761D01*
X93928571Y-66052380D01*
X94119047Y-66052380D01*
X94214285Y-66004761D01*
X94261904Y-65957142D01*
X94309523Y-65861904D01*
X94309523Y-65052380D01*
X95309523Y-66052380D02*
X94738095Y-66052380D01*
X95023809Y-66052380D02*
X95023809Y-65052380D01*
X94928571Y-65195238D01*
X94833333Y-65290476D01*
X94738095Y-65338095D01*
%TO.C,Q1*%
X114404761Y-61222619D02*
X114309523Y-61175000D01*
X114214285Y-61079761D01*
X114071428Y-60936904D01*
X113976190Y-60889285D01*
X113880952Y-60889285D01*
X113928571Y-61127380D02*
X113833333Y-61079761D01*
X113738095Y-60984523D01*
X113690476Y-60794047D01*
X113690476Y-60460714D01*
X113738095Y-60270238D01*
X113833333Y-60175000D01*
X113928571Y-60127380D01*
X114119047Y-60127380D01*
X114214285Y-60175000D01*
X114309523Y-60270238D01*
X114357142Y-60460714D01*
X114357142Y-60794047D01*
X114309523Y-60984523D01*
X114214285Y-61079761D01*
X114119047Y-61127380D01*
X113928571Y-61127380D01*
X115309523Y-61127380D02*
X114738095Y-61127380D01*
X115023809Y-61127380D02*
X115023809Y-60127380D01*
X114928571Y-60270238D01*
X114833333Y-60365476D01*
X114738095Y-60413095D01*
%TO.C,R2*%
X102083333Y-66202380D02*
X101750000Y-65726190D01*
X101511904Y-66202380D02*
X101511904Y-65202380D01*
X101892857Y-65202380D01*
X101988095Y-65250000D01*
X102035714Y-65297619D01*
X102083333Y-65392857D01*
X102083333Y-65535714D01*
X102035714Y-65630952D01*
X101988095Y-65678571D01*
X101892857Y-65726190D01*
X101511904Y-65726190D01*
X102464285Y-65297619D02*
X102511904Y-65250000D01*
X102607142Y-65202380D01*
X102845238Y-65202380D01*
X102940476Y-65250000D01*
X102988095Y-65297619D01*
X103035714Y-65392857D01*
X103035714Y-65488095D01*
X102988095Y-65630952D01*
X102416666Y-66202380D01*
X103035714Y-66202380D01*
%TO.C,Q2*%
X102154761Y-61297619D02*
X102059523Y-61250000D01*
X101964285Y-61154761D01*
X101821428Y-61011904D01*
X101726190Y-60964285D01*
X101630952Y-60964285D01*
X101678571Y-61202380D02*
X101583333Y-61154761D01*
X101488095Y-61059523D01*
X101440476Y-60869047D01*
X101440476Y-60535714D01*
X101488095Y-60345238D01*
X101583333Y-60250000D01*
X101678571Y-60202380D01*
X101869047Y-60202380D01*
X101964285Y-60250000D01*
X102059523Y-60345238D01*
X102107142Y-60535714D01*
X102107142Y-60869047D01*
X102059523Y-61059523D01*
X101964285Y-61154761D01*
X101869047Y-61202380D01*
X101678571Y-61202380D01*
X102488095Y-60297619D02*
X102535714Y-60250000D01*
X102630952Y-60202380D01*
X102869047Y-60202380D01*
X102964285Y-60250000D01*
X103011904Y-60297619D01*
X103059523Y-60392857D01*
X103059523Y-60488095D01*
X103011904Y-60630952D01*
X102440476Y-61202380D01*
X103059523Y-61202380D01*
%TO.C,C3*%
X135692753Y-64857142D02*
X135645134Y-64904761D01*
X135502277Y-64952380D01*
X135407039Y-64952380D01*
X135264181Y-64904761D01*
X135168943Y-64809523D01*
X135121324Y-64714285D01*
X135073705Y-64523809D01*
X135073705Y-64380952D01*
X135121324Y-64190476D01*
X135168943Y-64095238D01*
X135264181Y-64000000D01*
X135407039Y-63952380D01*
X135502277Y-63952380D01*
X135645134Y-64000000D01*
X135692753Y-64047619D01*
X136026086Y-63952380D02*
X136645134Y-63952380D01*
X136311800Y-64333333D01*
X136454658Y-64333333D01*
X136549896Y-64380952D01*
X136597515Y-64428571D01*
X136645134Y-64523809D01*
X136645134Y-64761904D01*
X136597515Y-64857142D01*
X136549896Y-64904761D01*
X136454658Y-64952380D01*
X136168943Y-64952380D01*
X136073705Y-64904761D01*
X136026086Y-64857142D01*
%TO.C,R1*%
X136452380Y-68666666D02*
X135976190Y-69000000D01*
X136452380Y-69238095D02*
X135452380Y-69238095D01*
X135452380Y-68857142D01*
X135500000Y-68761904D01*
X135547619Y-68714285D01*
X135642857Y-68666666D01*
X135785714Y-68666666D01*
X135880952Y-68714285D01*
X135928571Y-68761904D01*
X135976190Y-68857142D01*
X135976190Y-69238095D01*
X136452380Y-67714285D02*
X136452380Y-68285714D01*
X136452380Y-68000000D02*
X135452380Y-68000000D01*
X135595238Y-68095238D01*
X135690476Y-68190476D01*
X135738095Y-68285714D01*
%TO.C,R4*%
X130452380Y-65166666D02*
X129976190Y-65500000D01*
X130452380Y-65738095D02*
X129452380Y-65738095D01*
X129452380Y-65357142D01*
X129500000Y-65261904D01*
X129547619Y-65214285D01*
X129642857Y-65166666D01*
X129785714Y-65166666D01*
X129880952Y-65214285D01*
X129928571Y-65261904D01*
X129976190Y-65357142D01*
X129976190Y-65738095D01*
X129785714Y-64309523D02*
X130452380Y-64309523D01*
X129404761Y-64547619D02*
X130119047Y-64785714D01*
X130119047Y-64166666D01*
%TO.C,L1*%
X114333333Y-67952380D02*
X113857142Y-67952380D01*
X113857142Y-66952380D01*
X115190476Y-67952380D02*
X114619047Y-67952380D01*
X114904761Y-67952380D02*
X114904761Y-66952380D01*
X114809523Y-67095238D01*
X114714285Y-67190476D01*
X114619047Y-67238095D01*
%TO.C,R3*%
X130452380Y-68666666D02*
X129976190Y-69000000D01*
X130452380Y-69238095D02*
X129452380Y-69238095D01*
X129452380Y-68857142D01*
X129500000Y-68761904D01*
X129547619Y-68714285D01*
X129642857Y-68666666D01*
X129785714Y-68666666D01*
X129880952Y-68714285D01*
X129928571Y-68761904D01*
X129976190Y-68857142D01*
X129976190Y-69238095D01*
X129452380Y-68333333D02*
X129452380Y-67714285D01*
X129833333Y-68047619D01*
X129833333Y-67904761D01*
X129880952Y-67809523D01*
X129928571Y-67761904D01*
X130023809Y-67714285D01*
X130261904Y-67714285D01*
X130357142Y-67761904D01*
X130404761Y-67809523D01*
X130452380Y-67904761D01*
X130452380Y-68190476D01*
X130404761Y-68285714D01*
X130357142Y-68333333D01*
%TO.C,RV1*%
X131452380Y-73595238D02*
X130976190Y-73928571D01*
X131452380Y-74166666D02*
X130452380Y-74166666D01*
X130452380Y-73785714D01*
X130500000Y-73690476D01*
X130547619Y-73642857D01*
X130642857Y-73595238D01*
X130785714Y-73595238D01*
X130880952Y-73642857D01*
X130928571Y-73690476D01*
X130976190Y-73785714D01*
X130976190Y-74166666D01*
X130452380Y-73309523D02*
X131452380Y-72976190D01*
X130452380Y-72642857D01*
X131452380Y-71785714D02*
X131452380Y-72357142D01*
X131452380Y-72071428D02*
X130452380Y-72071428D01*
X130595238Y-72166666D01*
X130690476Y-72261904D01*
X130738095Y-72357142D01*
%TO.C,D1*%
X123761904Y-62952380D02*
X123761904Y-61952380D01*
X124000000Y-61952380D01*
X124142857Y-62000000D01*
X124238095Y-62095238D01*
X124285714Y-62190476D01*
X124333333Y-62380952D01*
X124333333Y-62523809D01*
X124285714Y-62714285D01*
X124238095Y-62809523D01*
X124142857Y-62904761D01*
X124000000Y-62952380D01*
X123761904Y-62952380D01*
X125285714Y-62952380D02*
X124714285Y-62952380D01*
X125000000Y-62952380D02*
X125000000Y-61952380D01*
X124904761Y-62095238D01*
X124809523Y-62190476D01*
X124714285Y-62238095D01*
%TO.C,C4*%
X124333333Y-68857142D02*
X124285714Y-68904761D01*
X124142857Y-68952380D01*
X124047619Y-68952380D01*
X123904761Y-68904761D01*
X123809523Y-68809523D01*
X123761904Y-68714285D01*
X123714285Y-68523809D01*
X123714285Y-68380952D01*
X123761904Y-68190476D01*
X123809523Y-68095238D01*
X123904761Y-68000000D01*
X124047619Y-67952380D01*
X124142857Y-67952380D01*
X124285714Y-68000000D01*
X124333333Y-68047619D01*
X125190476Y-68285714D02*
X125190476Y-68952380D01*
X124952380Y-67904761D02*
X124714285Y-68619047D01*
X125333333Y-68619047D01*
%TO.C,C1*%
X104333333Y-68857142D02*
X104285714Y-68904761D01*
X104142857Y-68952380D01*
X104047619Y-68952380D01*
X103904761Y-68904761D01*
X103809523Y-68809523D01*
X103761904Y-68714285D01*
X103714285Y-68523809D01*
X103714285Y-68380952D01*
X103761904Y-68190476D01*
X103809523Y-68095238D01*
X103904761Y-68000000D01*
X104047619Y-67952380D01*
X104142857Y-67952380D01*
X104285714Y-68000000D01*
X104333333Y-68047619D01*
X105285714Y-68952380D02*
X104714285Y-68952380D01*
X105000000Y-68952380D02*
X105000000Y-67952380D01*
X104904761Y-68095238D01*
X104809523Y-68190476D01*
X104714285Y-68238095D01*
%TO.C,R5*%
X133452380Y-68666666D02*
X132976190Y-69000000D01*
X133452380Y-69238095D02*
X132452380Y-69238095D01*
X132452380Y-68857142D01*
X132500000Y-68761904D01*
X132547619Y-68714285D01*
X132642857Y-68666666D01*
X132785714Y-68666666D01*
X132880952Y-68714285D01*
X132928571Y-68761904D01*
X132976190Y-68857142D01*
X132976190Y-69238095D01*
X132452380Y-67761904D02*
X132452380Y-68238095D01*
X132928571Y-68285714D01*
X132880952Y-68238095D01*
X132833333Y-68142857D01*
X132833333Y-67904761D01*
X132880952Y-67809523D01*
X132928571Y-67761904D01*
X133023809Y-67714285D01*
X133261904Y-67714285D01*
X133357142Y-67761904D01*
X133404761Y-67809523D01*
X133452380Y-67904761D01*
X133452380Y-68142857D01*
X133404761Y-68238095D01*
X133357142Y-68285714D01*
%TO.C,C2*%
X92192753Y-73357142D02*
X92145134Y-73404761D01*
X92002277Y-73452380D01*
X91907039Y-73452380D01*
X91764181Y-73404761D01*
X91668943Y-73309523D01*
X91621324Y-73214285D01*
X91573705Y-73023809D01*
X91573705Y-72880952D01*
X91621324Y-72690476D01*
X91668943Y-72595238D01*
X91764181Y-72500000D01*
X91907039Y-72452380D01*
X92002277Y-72452380D01*
X92145134Y-72500000D01*
X92192753Y-72547619D01*
X92573705Y-72547619D02*
X92621324Y-72500000D01*
X92716562Y-72452380D01*
X92954658Y-72452380D01*
X93049896Y-72500000D01*
X93097515Y-72547619D01*
X93145134Y-72642857D01*
X93145134Y-72738095D01*
X93097515Y-72880952D01*
X92526086Y-73452380D01*
X93145134Y-73452380D01*
%TO.C,D2*%
X105452380Y-64738095D02*
X104452380Y-64738095D01*
X104452380Y-64500000D01*
X104500000Y-64357142D01*
X104595238Y-64261904D01*
X104690476Y-64214285D01*
X104880952Y-64166666D01*
X105023809Y-64166666D01*
X105214285Y-64214285D01*
X105309523Y-64261904D01*
X105404761Y-64357142D01*
X105452380Y-64500000D01*
X105452380Y-64738095D01*
X104547619Y-63785714D02*
X104500000Y-63738095D01*
X104452380Y-63642857D01*
X104452380Y-63404761D01*
X104500000Y-63309523D01*
X104547619Y-63261904D01*
X104642857Y-63214285D01*
X104738095Y-63214285D01*
X104880952Y-63261904D01*
X105452380Y-63833333D01*
X105452380Y-63214285D01*
D11*
%TO.C,U1*%
X94500000Y-71560000D02*
X96450000Y-71560000D01*
X94500000Y-71560000D02*
X92550000Y-71560000D01*
X94500000Y-66440000D02*
X96450000Y-66440000D01*
X94500000Y-66440000D02*
X91050000Y-66440000D01*
%TO.C,Q1*%
X109380000Y-61675000D02*
X119620000Y-61675000D01*
X109380000Y-63185000D02*
X119620000Y-63185000D01*
X112650000Y-61675000D02*
X112650000Y-63185000D01*
X109380000Y-66316000D02*
X119620000Y-66316000D01*
X119620000Y-61675000D02*
X119620000Y-66316000D01*
X116351000Y-61675000D02*
X116351000Y-63185000D01*
X109380000Y-61675000D02*
X109380000Y-66316000D01*
%TO.C,R2*%
X102487258Y-66477500D02*
X102012742Y-66477500D01*
X102487258Y-67522500D02*
X102012742Y-67522500D01*
%TO.C,Q2*%
X102250000Y-64810000D02*
X103925000Y-64810000D01*
X102250000Y-64810000D02*
X101600000Y-64810000D01*
X102250000Y-61690000D02*
X102900000Y-61690000D01*
X102250000Y-61690000D02*
X101600000Y-61690000D01*
%TO.C,C3*%
X136140580Y-65490000D02*
X135859420Y-65490000D01*
X136140580Y-66510000D02*
X135859420Y-66510000D01*
%TO.C,R1*%
X138022500Y-68262742D02*
X138022500Y-68737258D01*
X136977500Y-68262742D02*
X136977500Y-68737258D01*
%TO.C,R4*%
X130977500Y-64762742D02*
X130977500Y-65237258D01*
X132022500Y-64762742D02*
X132022500Y-65237258D01*
%TO.C,L1*%
X119370000Y-73500000D02*
G75*
G03*
X119370000Y-73500000I-4870000J0D01*
G01*
%TO.C,R3*%
X132022500Y-68262742D02*
X132022500Y-68737258D01*
X130977500Y-68262742D02*
X130977500Y-68737258D01*
%TO.C,RV1*%
X135780000Y-74750000D02*
X135270000Y-74750000D01*
X135780000Y-72470000D02*
X135780000Y-74750000D01*
X132220000Y-74750000D02*
X132220000Y-72470000D01*
X132730000Y-74750000D02*
X132220000Y-74750000D01*
%TO.C,D1*%
X127900000Y-66650000D02*
X122500000Y-66650000D01*
X127900000Y-63350000D02*
X122500000Y-63350000D01*
X127900000Y-66650000D02*
X127900000Y-63350000D01*
%TO.C,C4*%
X121280000Y-70881651D02*
X123460000Y-70881651D01*
X125540000Y-71361651D02*
X128040000Y-71361651D01*
X125540000Y-72081651D02*
X128363000Y-72081651D01*
X121517000Y-70601651D02*
X127483000Y-70601651D01*
X125540000Y-70641651D02*
X127519000Y-70641651D01*
X120463000Y-72802651D02*
X128537000Y-72802651D01*
X120470000Y-72762651D02*
X128530000Y-72762651D01*
X120710000Y-71881651D02*
X123460000Y-71881651D01*
X120533000Y-72441651D02*
X123460000Y-72441651D01*
X125540000Y-71801651D02*
X128257000Y-71801651D01*
X125540000Y-71761651D02*
X128240000Y-71761651D01*
X123271000Y-69481651D02*
X125729000Y-69481651D01*
X120458000Y-72842651D02*
X128542000Y-72842651D01*
X125540000Y-71641651D02*
X128186000Y-71641651D01*
X120524000Y-72481651D02*
X123460000Y-72481651D01*
X123047000Y-69561651D02*
X125953000Y-69561651D01*
X121944000Y-70201651D02*
X127056000Y-70201651D01*
X121056000Y-71201651D02*
X123460000Y-71201651D01*
X121716000Y-70401651D02*
X127284000Y-70401651D01*
X125540000Y-70721651D02*
X127590000Y-70721651D01*
X120498000Y-72601651D02*
X123460000Y-72601651D01*
X125540000Y-71201651D02*
X127944000Y-71201651D01*
X121135000Y-71081651D02*
X123460000Y-71081651D01*
X120586000Y-72241651D02*
X123460000Y-72241651D01*
X125540000Y-71081651D02*
X127865000Y-71081651D01*
X120778000Y-71721651D02*
X123460000Y-71721651D01*
X125540000Y-71521651D02*
X128127000Y-71521651D01*
X123154000Y-69521651D02*
X125846000Y-69521651D01*
X120432000Y-73082651D02*
X128568000Y-73082651D01*
X120476000Y-72722651D02*
X128524000Y-72722651D01*
X123402000Y-69441651D02*
X125598000Y-69441651D01*
X125540000Y-72521651D02*
X128485000Y-72521651D01*
X125540000Y-72361651D02*
X128447000Y-72361651D01*
X122272000Y-69961651D02*
X126728000Y-69961651D01*
X121759000Y-70361651D02*
X127241000Y-70361651D01*
X125540000Y-70681651D02*
X127555000Y-70681651D01*
X122769000Y-69681651D02*
X126231000Y-69681651D01*
X120743000Y-71801651D02*
X123460000Y-71801651D01*
X120515000Y-72521651D02*
X123460000Y-72521651D01*
X122155000Y-70041651D02*
X126845000Y-70041651D01*
X125540000Y-72641651D02*
X128510000Y-72641651D01*
X123552000Y-69401651D02*
X125448000Y-69401651D01*
X125540000Y-71721651D02*
X128222000Y-71721651D01*
X120623000Y-72121651D02*
X123460000Y-72121651D01*
X125540000Y-72001651D02*
X128335000Y-72001651D01*
X121633000Y-70481651D02*
X127367000Y-70481651D01*
X120853000Y-71561651D02*
X123460000Y-71561651D01*
X120423000Y-73242651D02*
X128577000Y-73242651D01*
X125540000Y-70961651D02*
X127780000Y-70961651D01*
X125540000Y-70881651D02*
X127720000Y-70881651D01*
X121555000Y-70561651D02*
X127445000Y-70561651D01*
X120426000Y-73162651D02*
X128574000Y-73162651D01*
X121250000Y-70921651D02*
X123460000Y-70921651D01*
X125540000Y-71001651D02*
X127809000Y-71001651D01*
X120760000Y-71761651D02*
X123460000Y-71761651D01*
X120679000Y-71961651D02*
X123460000Y-71961651D01*
X122948000Y-69601651D02*
X126052000Y-69601651D01*
X120575000Y-72281651D02*
X123460000Y-72281651D01*
X120420000Y-73402651D02*
X128580000Y-73402651D01*
X121191000Y-71001651D02*
X123460000Y-71001651D01*
X120665000Y-72001651D02*
X123460000Y-72001651D01*
X121445000Y-70681651D02*
X123460000Y-70681651D01*
X121674000Y-70441651D02*
X127326000Y-70441651D01*
X120796000Y-71681651D02*
X123460000Y-71681651D01*
X125540000Y-72121651D02*
X128377000Y-72121651D01*
X125540000Y-72041651D02*
X128350000Y-72041651D01*
X120960000Y-71361651D02*
X123460000Y-71361651D01*
X125540000Y-71841651D02*
X128274000Y-71841651D01*
X120814000Y-71641651D02*
X123460000Y-71641651D01*
X125540000Y-72281651D02*
X128425000Y-72281651D01*
X120873000Y-71521651D02*
X123460000Y-71521651D01*
X121311000Y-70841651D02*
X123460000Y-70841651D01*
X121344000Y-70801651D02*
X123460000Y-70801651D01*
X122466000Y-69841651D02*
X126534000Y-69841651D01*
X125540000Y-71121651D02*
X127892000Y-71121651D01*
X125540000Y-70841651D02*
X127689000Y-70841651D01*
X120637000Y-72081651D02*
X123460000Y-72081651D01*
X121896000Y-70241651D02*
X127104000Y-70241651D01*
X120543000Y-72401651D02*
X123460000Y-72401651D01*
X120553000Y-72361651D02*
X123460000Y-72361651D01*
X120448000Y-72922651D02*
X128552000Y-72922651D01*
X122100000Y-70081651D02*
X126900000Y-70081651D01*
X122536000Y-69801651D02*
X126464000Y-69801651D01*
X125540000Y-71441651D02*
X128084000Y-71441651D01*
X120420000Y-73322651D02*
X128580000Y-73322651D01*
X125540000Y-71161651D02*
X127918000Y-71161651D01*
X125540000Y-71561651D02*
X128147000Y-71561651D01*
X125540000Y-71921651D02*
X128305000Y-71921651D01*
X120435000Y-73042651D02*
X128565000Y-73042651D01*
X125540000Y-72241651D02*
X128414000Y-72241651D01*
X120429000Y-73122651D02*
X128571000Y-73122651D01*
X125540000Y-70761651D02*
X127624000Y-70761651D01*
X121007000Y-71281651D02*
X123460000Y-71281651D01*
X120834000Y-71601651D02*
X123460000Y-71601651D01*
X125540000Y-71681651D02*
X128204000Y-71681651D01*
X125540000Y-71241651D02*
X127969000Y-71241651D01*
X120443000Y-72962651D02*
X128557000Y-72962651D01*
X120439000Y-73002651D02*
X128561000Y-73002651D01*
X120894000Y-71481651D02*
X123460000Y-71481651D01*
X125540000Y-71321651D02*
X128017000Y-71321651D01*
X122855000Y-69641651D02*
X126145000Y-69641651D01*
X121481000Y-70641651D02*
X123460000Y-70641651D01*
X125540000Y-72481651D02*
X128476000Y-72481651D01*
X123732000Y-69361651D02*
X125268000Y-69361651D01*
X125540000Y-71961651D02*
X128321000Y-71961651D01*
X123967000Y-69321651D02*
X125033000Y-69321651D01*
X125540000Y-71401651D02*
X128062000Y-71401651D01*
X121410000Y-70721651D02*
X123460000Y-70721651D01*
X120506000Y-72561651D02*
X123460000Y-72561651D01*
X125540000Y-71281651D02*
X127993000Y-71281651D01*
X122610000Y-69761651D02*
X126390000Y-69761651D01*
X121849000Y-70281651D02*
X127151000Y-70281651D01*
X120452000Y-72882651D02*
X128548000Y-72882651D01*
X125540000Y-72441651D02*
X128467000Y-72441651D01*
X125540000Y-71601651D02*
X128166000Y-71601651D01*
X121162000Y-71041651D02*
X123460000Y-71041651D01*
X121593000Y-70521651D02*
X127407000Y-70521651D01*
X125540000Y-72681651D02*
X128517000Y-72681651D01*
X125540000Y-72321651D02*
X128436000Y-72321651D01*
X125540000Y-72161651D02*
X128389000Y-72161651D01*
X120938000Y-71401651D02*
X123460000Y-71401651D01*
X122687000Y-69721651D02*
X126313000Y-69721651D01*
X125540000Y-71041651D02*
X127838000Y-71041651D01*
X125540000Y-71481651D02*
X128106000Y-71481651D01*
X120564000Y-72321651D02*
X123460000Y-72321651D01*
X121082000Y-71161651D02*
X123460000Y-71161651D01*
X125540000Y-72201651D02*
X128402000Y-72201651D01*
X125540000Y-71881651D02*
X128290000Y-71881651D01*
X120598000Y-72201651D02*
X123460000Y-72201651D01*
X122398000Y-69881651D02*
X126602000Y-69881651D01*
X121220000Y-70961651D02*
X123460000Y-70961651D01*
X125540000Y-72401651D02*
X128457000Y-72401651D01*
X122334000Y-69921651D02*
X126666000Y-69921651D01*
X125540000Y-70801651D02*
X127656000Y-70801651D01*
X120916000Y-71441651D02*
X123460000Y-71441651D01*
X120983000Y-71321651D02*
X123460000Y-71321651D01*
X125540000Y-72601651D02*
X128502000Y-72601651D01*
X121376000Y-70761651D02*
X123460000Y-70761651D01*
X122185000Y-77812349D02*
X122185000Y-77012349D01*
X121031000Y-71241651D02*
X123460000Y-71241651D01*
X122046000Y-70121651D02*
X126954000Y-70121651D01*
X121108000Y-71121651D02*
X123460000Y-71121651D01*
X120611000Y-72161651D02*
X123460000Y-72161651D01*
X120650000Y-72041651D02*
X123460000Y-72041651D01*
X120695000Y-71921651D02*
X123460000Y-71921651D01*
X125540000Y-70921651D02*
X127750000Y-70921651D01*
X120483000Y-72681651D02*
X123460000Y-72681651D01*
X120490000Y-72641651D02*
X123460000Y-72641651D01*
X120726000Y-71841651D02*
X123460000Y-71841651D01*
X121785000Y-77412349D02*
X122585000Y-77412349D01*
X120421000Y-73282651D02*
X128579000Y-73282651D01*
X120424000Y-73202651D02*
X128576000Y-73202651D01*
X121995000Y-70161651D02*
X127005000Y-70161651D01*
X120420000Y-73362651D02*
X128580000Y-73362651D01*
X122213000Y-70001651D02*
X126787000Y-70001651D01*
X125540000Y-72561651D02*
X128494000Y-72561651D01*
X121803000Y-70321651D02*
X127197000Y-70321651D01*
X128620000Y-73402651D02*
G75*
G03*
X128620000Y-73402651I-4120000J0D01*
G01*
%TO.C,C1*%
X105540000Y-71241651D02*
X107969000Y-71241651D01*
X105540000Y-71401651D02*
X108062000Y-71401651D01*
X100498000Y-72601651D02*
X103460000Y-72601651D01*
X105540000Y-72561651D02*
X108494000Y-72561651D01*
X103047000Y-69561651D02*
X105953000Y-69561651D01*
X101716000Y-70401651D02*
X107284000Y-70401651D01*
X101759000Y-70361651D02*
X107241000Y-70361651D01*
X102334000Y-69921651D02*
X106666000Y-69921651D01*
X102213000Y-70001651D02*
X106787000Y-70001651D01*
X105540000Y-72601651D02*
X108502000Y-72601651D01*
X100665000Y-72001651D02*
X103460000Y-72001651D01*
X105540000Y-71601651D02*
X108166000Y-71601651D01*
X100894000Y-71481651D02*
X103460000Y-71481651D01*
X100623000Y-72121651D02*
X103460000Y-72121651D01*
X105540000Y-71041651D02*
X107838000Y-71041651D01*
X101056000Y-71201651D02*
X103460000Y-71201651D01*
X105540000Y-71681651D02*
X108204000Y-71681651D01*
X100448000Y-72922651D02*
X108552000Y-72922651D01*
X102155000Y-70041651D02*
X106845000Y-70041651D01*
X101376000Y-70761651D02*
X103460000Y-70761651D01*
X105540000Y-72641651D02*
X108510000Y-72641651D01*
X102046000Y-70121651D02*
X106954000Y-70121651D01*
X105540000Y-72161651D02*
X108389000Y-72161651D01*
X101311000Y-70841651D02*
X103460000Y-70841651D01*
X105540000Y-70641651D02*
X107519000Y-70641651D01*
X100435000Y-73042651D02*
X108565000Y-73042651D01*
X100679000Y-71961651D02*
X103460000Y-71961651D01*
X103552000Y-69401651D02*
X105448000Y-69401651D01*
X101082000Y-71161651D02*
X103460000Y-71161651D01*
X105540000Y-71641651D02*
X108186000Y-71641651D01*
X105540000Y-72401651D02*
X108457000Y-72401651D01*
X102855000Y-69641651D02*
X106145000Y-69641651D01*
X101896000Y-70241651D02*
X107104000Y-70241651D01*
X101250000Y-70921651D02*
X103460000Y-70921651D01*
X100938000Y-71401651D02*
X103460000Y-71401651D01*
X100515000Y-72521651D02*
X103460000Y-72521651D01*
X105540000Y-71321651D02*
X108017000Y-71321651D01*
X105540000Y-71121651D02*
X107892000Y-71121651D01*
X100470000Y-72762651D02*
X108530000Y-72762651D01*
X105540000Y-72281651D02*
X108425000Y-72281651D01*
X100586000Y-72241651D02*
X103460000Y-72241651D01*
X103967000Y-69321651D02*
X105033000Y-69321651D01*
X101517000Y-70601651D02*
X107483000Y-70601651D01*
X100426000Y-73162651D02*
X108574000Y-73162651D01*
X105540000Y-71521651D02*
X108127000Y-71521651D01*
X105540000Y-70681651D02*
X107555000Y-70681651D01*
X103154000Y-69521651D02*
X105846000Y-69521651D01*
X105540000Y-70841651D02*
X107689000Y-70841651D01*
X101135000Y-71081651D02*
X103460000Y-71081651D01*
X101410000Y-70721651D02*
X103460000Y-70721651D01*
X101344000Y-70801651D02*
X103460000Y-70801651D01*
X105540000Y-71761651D02*
X108240000Y-71761651D01*
X105540000Y-71081651D02*
X107865000Y-71081651D01*
X100650000Y-72041651D02*
X103460000Y-72041651D01*
X101445000Y-70681651D02*
X103460000Y-70681651D01*
X105540000Y-71721651D02*
X108222000Y-71721651D01*
X103271000Y-69481651D02*
X105729000Y-69481651D01*
X101481000Y-70641651D02*
X103460000Y-70641651D01*
X105540000Y-72201651D02*
X108402000Y-72201651D01*
X100420000Y-73362651D02*
X108580000Y-73362651D01*
X105540000Y-70961651D02*
X107780000Y-70961651D01*
X102100000Y-70081651D02*
X106900000Y-70081651D01*
X105540000Y-70721651D02*
X107590000Y-70721651D01*
X100575000Y-72281651D02*
X103460000Y-72281651D01*
X101220000Y-70961651D02*
X103460000Y-70961651D01*
X101191000Y-71001651D02*
X103460000Y-71001651D01*
X100490000Y-72641651D02*
X103460000Y-72641651D01*
X101995000Y-70161651D02*
X107005000Y-70161651D01*
X100483000Y-72681651D02*
X103460000Y-72681651D01*
X100506000Y-72561651D02*
X103460000Y-72561651D01*
X100553000Y-72361651D02*
X103460000Y-72361651D01*
X100432000Y-73082651D02*
X108568000Y-73082651D01*
X105540000Y-72041651D02*
X108350000Y-72041651D01*
X100458000Y-72842651D02*
X108542000Y-72842651D01*
X100983000Y-71321651D02*
X103460000Y-71321651D01*
X102536000Y-69801651D02*
X106464000Y-69801651D01*
X100695000Y-71921651D02*
X103460000Y-71921651D01*
X100420000Y-73402651D02*
X108580000Y-73402651D01*
X105540000Y-72361651D02*
X108447000Y-72361651D01*
X101944000Y-70201651D02*
X107056000Y-70201651D01*
X100637000Y-72081651D02*
X103460000Y-72081651D01*
X100853000Y-71561651D02*
X103460000Y-71561651D01*
X100429000Y-73122651D02*
X108571000Y-73122651D01*
X100873000Y-71521651D02*
X103460000Y-71521651D01*
X100424000Y-73202651D02*
X108576000Y-73202651D01*
X100564000Y-72321651D02*
X103460000Y-72321651D01*
X105540000Y-70801651D02*
X107656000Y-70801651D01*
X101803000Y-70321651D02*
X107197000Y-70321651D01*
X102398000Y-69881651D02*
X106602000Y-69881651D01*
X100726000Y-71841651D02*
X103460000Y-71841651D01*
X100834000Y-71601651D02*
X103460000Y-71601651D01*
X100420000Y-73322651D02*
X108580000Y-73322651D01*
X105540000Y-71161651D02*
X107918000Y-71161651D01*
X105540000Y-71801651D02*
X108257000Y-71801651D01*
X101108000Y-71121651D02*
X103460000Y-71121651D01*
X105540000Y-72441651D02*
X108467000Y-72441651D01*
X105540000Y-71881651D02*
X108290000Y-71881651D01*
X105540000Y-71281651D02*
X107993000Y-71281651D01*
X101555000Y-70561651D02*
X107445000Y-70561651D01*
X105540000Y-72241651D02*
X108414000Y-72241651D01*
X100743000Y-71801651D02*
X103460000Y-71801651D01*
X105540000Y-72121651D02*
X108377000Y-72121651D01*
X101280000Y-70881651D02*
X103460000Y-70881651D01*
X103402000Y-69441651D02*
X105598000Y-69441651D01*
X102466000Y-69841651D02*
X106534000Y-69841651D01*
X105540000Y-72321651D02*
X108436000Y-72321651D01*
X100760000Y-71761651D02*
X103460000Y-71761651D01*
X105540000Y-71001651D02*
X107809000Y-71001651D01*
X100439000Y-73002651D02*
X108561000Y-73002651D01*
X101785000Y-77412349D02*
X102585000Y-77412349D01*
X105540000Y-70921651D02*
X107750000Y-70921651D01*
X101674000Y-70441651D02*
X107326000Y-70441651D01*
X105540000Y-72481651D02*
X108476000Y-72481651D01*
X101633000Y-70481651D02*
X107367000Y-70481651D01*
X100960000Y-71361651D02*
X103460000Y-71361651D01*
X105540000Y-70761651D02*
X107624000Y-70761651D01*
X101031000Y-71241651D02*
X103460000Y-71241651D01*
X105540000Y-70881651D02*
X107720000Y-70881651D01*
X103732000Y-69361651D02*
X105268000Y-69361651D01*
X101593000Y-70521651D02*
X107407000Y-70521651D01*
X105540000Y-72681651D02*
X108517000Y-72681651D01*
X101849000Y-70281651D02*
X107151000Y-70281651D01*
X100916000Y-71441651D02*
X103460000Y-71441651D01*
X100543000Y-72401651D02*
X103460000Y-72401651D01*
X100476000Y-72722651D02*
X108524000Y-72722651D01*
X102687000Y-69721651D02*
X106313000Y-69721651D01*
X100443000Y-72962651D02*
X108557000Y-72962651D01*
X100421000Y-73282651D02*
X108579000Y-73282651D01*
X105540000Y-72001651D02*
X108335000Y-72001651D01*
X105540000Y-71441651D02*
X108084000Y-71441651D01*
X100423000Y-73242651D02*
X108577000Y-73242651D01*
X100778000Y-71721651D02*
X103460000Y-71721651D01*
X105540000Y-71561651D02*
X108147000Y-71561651D01*
X101162000Y-71041651D02*
X103460000Y-71041651D01*
X100710000Y-71881651D02*
X103460000Y-71881651D01*
X100796000Y-71681651D02*
X103460000Y-71681651D01*
X102948000Y-69601651D02*
X106052000Y-69601651D01*
X100611000Y-72161651D02*
X103460000Y-72161651D01*
X100524000Y-72481651D02*
X103460000Y-72481651D01*
X100533000Y-72441651D02*
X103460000Y-72441651D01*
X105540000Y-71961651D02*
X108321000Y-71961651D01*
X102769000Y-69681651D02*
X106231000Y-69681651D01*
X105540000Y-71481651D02*
X108106000Y-71481651D01*
X102185000Y-77812349D02*
X102185000Y-77012349D01*
X105540000Y-71201651D02*
X107944000Y-71201651D01*
X100814000Y-71641651D02*
X103460000Y-71641651D01*
X105540000Y-72081651D02*
X108363000Y-72081651D01*
X105540000Y-71921651D02*
X108305000Y-71921651D01*
X105540000Y-71361651D02*
X108040000Y-71361651D01*
X102272000Y-69961651D02*
X106728000Y-69961651D01*
X105540000Y-72521651D02*
X108485000Y-72521651D01*
X100452000Y-72882651D02*
X108548000Y-72882651D01*
X102610000Y-69761651D02*
X106390000Y-69761651D01*
X101007000Y-71281651D02*
X103460000Y-71281651D01*
X100598000Y-72201651D02*
X103460000Y-72201651D01*
X105540000Y-71841651D02*
X108274000Y-71841651D01*
X100463000Y-72802651D02*
X108537000Y-72802651D01*
X108620000Y-73402651D02*
G75*
G03*
X108620000Y-73402651I-4120000J0D01*
G01*
%TO.C,R5*%
X135022500Y-68262742D02*
X135022500Y-68737258D01*
X133977500Y-68262742D02*
X133977500Y-68737258D01*
%TO.C,C2*%
X92640580Y-75010000D02*
X92359420Y-75010000D01*
X92640580Y-73990000D02*
X92359420Y-73990000D01*
%TO.C,D2*%
X107750000Y-61750000D02*
X107750000Y-65650000D01*
X107750000Y-61750000D02*
X105750000Y-61750000D01*
X105750000Y-61750000D02*
X105750000Y-65650000D01*
%TD*%
G36*
X99506061Y-60000597D02*
G01*
X99682935Y-60018018D01*
X99706776Y-60022760D01*
X99870999Y-60072576D01*
X99893457Y-60081879D01*
X100044798Y-60162772D01*
X100065009Y-60176276D01*
X100197666Y-60285144D01*
X100214856Y-60302334D01*
X100323724Y-60434991D01*
X100337228Y-60455202D01*
X100418121Y-60606543D01*
X100427424Y-60629001D01*
X100477240Y-60793224D01*
X100481982Y-60817065D01*
X100499403Y-60993939D01*
X100500000Y-61006093D01*
X100500000Y-61993907D01*
X100499403Y-62006061D01*
X100481982Y-62182935D01*
X100477240Y-62206776D01*
X100427424Y-62370999D01*
X100418121Y-62393457D01*
X100337228Y-62544798D01*
X100323724Y-62565009D01*
X100214856Y-62697666D01*
X100197666Y-62714856D01*
X100065009Y-62823724D01*
X100044798Y-62837228D01*
X99893457Y-62918121D01*
X99870999Y-62927424D01*
X99706776Y-62977240D01*
X99682935Y-62981982D01*
X99506061Y-62999403D01*
X99493907Y-63000000D01*
X92006093Y-63000000D01*
X91993939Y-62999403D01*
X91817065Y-62981982D01*
X91793224Y-62977240D01*
X91629001Y-62927424D01*
X91606543Y-62918121D01*
X91455202Y-62837228D01*
X91434991Y-62823724D01*
X91302334Y-62714856D01*
X91285144Y-62697666D01*
X91176276Y-62565009D01*
X91162772Y-62544798D01*
X91081879Y-62393457D01*
X91072576Y-62370999D01*
X91022760Y-62206776D01*
X91018018Y-62182935D01*
X91000597Y-62006061D01*
X91000000Y-61993907D01*
X91000000Y-61006093D01*
X91000597Y-60993939D01*
X91018018Y-60817065D01*
X91022760Y-60793224D01*
X91072576Y-60629001D01*
X91081879Y-60606543D01*
X91162772Y-60455202D01*
X91176276Y-60434991D01*
X91285144Y-60302334D01*
X91302334Y-60285144D01*
X91434991Y-60176276D01*
X91455202Y-60162772D01*
X91606543Y-60081879D01*
X91629001Y-60072576D01*
X91793224Y-60022760D01*
X91817065Y-60018018D01*
X91993939Y-60000597D01*
X92006093Y-60000000D01*
X99493907Y-60000000D01*
X99506061Y-60000597D01*
G37*
G36*
X137006061Y-60000597D02*
G01*
X137182935Y-60018018D01*
X137206776Y-60022760D01*
X137370999Y-60072576D01*
X137393457Y-60081879D01*
X137544798Y-60162772D01*
X137565009Y-60176276D01*
X137697666Y-60285144D01*
X137714856Y-60302334D01*
X137823724Y-60434991D01*
X137837228Y-60455202D01*
X137918121Y-60606543D01*
X137927424Y-60629001D01*
X137977240Y-60793224D01*
X137981982Y-60817065D01*
X137999403Y-60993939D01*
X138000000Y-61006093D01*
X138000000Y-61993907D01*
X137999403Y-62006061D01*
X137981982Y-62182935D01*
X137977240Y-62206776D01*
X137927424Y-62370999D01*
X137918121Y-62393457D01*
X137837228Y-62544798D01*
X137823724Y-62565009D01*
X137714856Y-62697666D01*
X137697666Y-62714856D01*
X137565009Y-62823724D01*
X137544798Y-62837228D01*
X137393457Y-62918121D01*
X137370999Y-62927424D01*
X137206776Y-62977240D01*
X137182935Y-62981982D01*
X137006061Y-62999403D01*
X136993907Y-63000000D01*
X130506093Y-63000000D01*
X130493939Y-62999403D01*
X130317065Y-62981982D01*
X130293224Y-62977240D01*
X130129001Y-62927424D01*
X130106543Y-62918121D01*
X129955202Y-62837228D01*
X129934991Y-62823724D01*
X129802334Y-62714856D01*
X129785144Y-62697666D01*
X129676276Y-62565009D01*
X129662772Y-62544798D01*
X129581879Y-62393457D01*
X129572576Y-62370999D01*
X129522760Y-62206776D01*
X129518018Y-62182935D01*
X129500597Y-62006061D01*
X129500000Y-61993907D01*
X129500000Y-61006093D01*
X129500597Y-60993939D01*
X129518018Y-60817065D01*
X129522760Y-60793224D01*
X129572576Y-60629001D01*
X129581879Y-60606543D01*
X129662772Y-60455202D01*
X129676276Y-60434991D01*
X129785144Y-60302334D01*
X129802334Y-60285144D01*
X129934991Y-60176276D01*
X129955202Y-60162772D01*
X130106543Y-60081879D01*
X130129001Y-60072576D01*
X130293224Y-60022760D01*
X130317065Y-60018018D01*
X130493939Y-60000597D01*
X130506093Y-60000000D01*
X136993907Y-60000000D01*
X137006061Y-60000597D01*
G37*
G36*
X99506061Y-76000597D02*
G01*
X99682935Y-76018018D01*
X99706776Y-76022760D01*
X99870999Y-76072576D01*
X99893457Y-76081879D01*
X100044798Y-76162772D01*
X100065009Y-76176276D01*
X100197666Y-76285144D01*
X100214856Y-76302334D01*
X100323724Y-76434991D01*
X100337228Y-76455202D01*
X100418121Y-76606543D01*
X100427424Y-76629001D01*
X100477240Y-76793224D01*
X100481982Y-76817065D01*
X100499403Y-76993939D01*
X100500000Y-77006093D01*
X100500000Y-77993907D01*
X100499403Y-78006061D01*
X100481982Y-78182935D01*
X100477240Y-78206776D01*
X100427424Y-78370999D01*
X100418121Y-78393457D01*
X100337228Y-78544798D01*
X100323724Y-78565009D01*
X100214856Y-78697666D01*
X100197666Y-78714856D01*
X100065009Y-78823724D01*
X100044798Y-78837228D01*
X99893457Y-78918121D01*
X99870999Y-78927424D01*
X99706776Y-78977240D01*
X99682935Y-78981982D01*
X99506061Y-78999403D01*
X99493907Y-79000000D01*
X92006093Y-79000000D01*
X91993939Y-78999403D01*
X91817065Y-78981982D01*
X91793224Y-78977240D01*
X91629001Y-78927424D01*
X91606543Y-78918121D01*
X91455202Y-78837228D01*
X91434991Y-78823724D01*
X91302334Y-78714856D01*
X91285144Y-78697666D01*
X91176276Y-78565009D01*
X91162772Y-78544798D01*
X91081879Y-78393457D01*
X91072576Y-78370999D01*
X91022760Y-78206776D01*
X91018018Y-78182935D01*
X91000597Y-78006061D01*
X91000000Y-77993907D01*
X91000000Y-77006093D01*
X91000597Y-76993939D01*
X91018018Y-76817065D01*
X91022760Y-76793224D01*
X91072576Y-76629001D01*
X91081879Y-76606543D01*
X91162772Y-76455202D01*
X91176276Y-76434991D01*
X91285144Y-76302334D01*
X91302334Y-76285144D01*
X91434991Y-76176276D01*
X91455202Y-76162772D01*
X91606543Y-76081879D01*
X91629001Y-76072576D01*
X91793224Y-76022760D01*
X91817065Y-76018018D01*
X91993939Y-76000597D01*
X92006093Y-76000000D01*
X99493907Y-76000000D01*
X99506061Y-76000597D01*
G37*
G36*
X137006061Y-76000597D02*
G01*
X137182935Y-76018018D01*
X137206776Y-76022760D01*
X137370999Y-76072576D01*
X137393457Y-76081879D01*
X137544798Y-76162772D01*
X137565009Y-76176276D01*
X137697666Y-76285144D01*
X137714856Y-76302334D01*
X137823724Y-76434991D01*
X137837228Y-76455202D01*
X137918121Y-76606543D01*
X137927424Y-76629001D01*
X137977240Y-76793224D01*
X137981982Y-76817065D01*
X137999403Y-76993939D01*
X138000000Y-77006093D01*
X138000000Y-77993907D01*
X137999403Y-78006061D01*
X137981982Y-78182935D01*
X137977240Y-78206776D01*
X137927424Y-78370999D01*
X137918121Y-78393457D01*
X137837228Y-78544798D01*
X137823724Y-78565009D01*
X137714856Y-78697666D01*
X137697666Y-78714856D01*
X137565009Y-78823724D01*
X137544798Y-78837228D01*
X137393457Y-78918121D01*
X137370999Y-78927424D01*
X137206776Y-78977240D01*
X137182935Y-78981982D01*
X137006061Y-78999403D01*
X136993907Y-79000000D01*
X130506093Y-79000000D01*
X130493939Y-78999403D01*
X130317065Y-78981982D01*
X130293224Y-78977240D01*
X130129001Y-78927424D01*
X130106543Y-78918121D01*
X129955202Y-78837228D01*
X129934991Y-78823724D01*
X129802334Y-78714856D01*
X129785144Y-78697666D01*
X129676276Y-78565009D01*
X129662772Y-78544798D01*
X129581879Y-78393457D01*
X129572576Y-78370999D01*
X129522760Y-78206776D01*
X129518018Y-78182935D01*
X129500597Y-78006061D01*
X129500000Y-77993907D01*
X129500000Y-77006093D01*
X129500597Y-76993939D01*
X129518018Y-76817065D01*
X129522760Y-76793224D01*
X129572576Y-76629001D01*
X129581879Y-76606543D01*
X129662772Y-76455202D01*
X129676276Y-76434991D01*
X129785144Y-76302334D01*
X129802334Y-76285144D01*
X129934991Y-76176276D01*
X129955202Y-76162772D01*
X130106543Y-76081879D01*
X130129001Y-76072576D01*
X130293224Y-76022760D01*
X130317065Y-76018018D01*
X130493939Y-76000597D01*
X130506093Y-76000000D01*
X136993907Y-76000000D01*
X137006061Y-76000597D01*
G37*
%LPC*%
D12*
X130428571Y-62178571D02*
X130428571Y-60678571D01*
X130428571Y-61392857D02*
X131285714Y-61392857D01*
X131285714Y-62178571D02*
X131285714Y-60678571D01*
X131785714Y-60678571D02*
X132285714Y-62178571D01*
X132785714Y-60678571D01*
X130428571Y-78178571D02*
X130428571Y-76678571D01*
X130428571Y-77392857D02*
X131285714Y-77392857D01*
X131285714Y-78178571D02*
X131285714Y-76678571D01*
X131785714Y-76678571D02*
X132285714Y-78178571D01*
X132785714Y-76678571D01*
X97071428Y-62178571D02*
X96214285Y-62178571D01*
X96642857Y-62178571D02*
X96642857Y-60678571D01*
X96500000Y-60892857D01*
X96357142Y-61035714D01*
X96214285Y-61107142D01*
X97642857Y-60821428D02*
X97714285Y-60750000D01*
X97857142Y-60678571D01*
X98214285Y-60678571D01*
X98357142Y-60750000D01*
X98428571Y-60821428D01*
X98500000Y-60964285D01*
X98500000Y-61107142D01*
X98428571Y-61321428D01*
X97571428Y-62178571D01*
X98500000Y-62178571D01*
X98928571Y-60678571D02*
X99428571Y-62178571D01*
X99928571Y-60678571D01*
X97071428Y-78178571D02*
X96214285Y-78178571D01*
X96642857Y-78178571D02*
X96642857Y-76678571D01*
X96500000Y-76892857D01*
X96357142Y-77035714D01*
X96214285Y-77107142D01*
X97642857Y-76821428D02*
X97714285Y-76750000D01*
X97857142Y-76678571D01*
X98214285Y-76678571D01*
X98357142Y-76750000D01*
X98428571Y-76821428D01*
X98500000Y-76964285D01*
X98500000Y-77107142D01*
X98428571Y-77321428D01*
X97571428Y-78178571D01*
X98500000Y-78178571D01*
X98928571Y-76678571D02*
X99428571Y-78178571D01*
X99928571Y-76678571D01*
D13*
%TO.C,U1*%
X92025000Y-67095000D03*
X92025000Y-68365000D03*
X92025000Y-69635000D03*
X92025000Y-70905000D03*
X96975000Y-70905000D03*
X96975000Y-69635000D03*
X96975000Y-68365000D03*
X96975000Y-67095000D03*
%TD*%
D14*
%TO.C,Q1*%
X111960000Y-64945000D03*
D15*
X114500000Y-64945000D03*
X117040000Y-64945000D03*
%TD*%
D16*
%TO.C,R2*%
X103075000Y-67000000D03*
X101425000Y-67000000D03*
%TD*%
D17*
%TO.C,Q2*%
X103187500Y-64200000D03*
X103187500Y-62300000D03*
X101312500Y-63250000D03*
%TD*%
D18*
%TO.C,C3*%
X136775000Y-66000000D03*
X135225000Y-66000000D03*
%TD*%
D19*
%TO.C,R1*%
X137500000Y-67675000D03*
X137500000Y-69325000D03*
%TD*%
%TO.C,R4*%
X131500000Y-64175000D03*
X131500000Y-65825000D03*
%TD*%
D20*
%TO.C,L1*%
X112000000Y-73500000D03*
X117000000Y-73500000D03*
%TD*%
D19*
%TO.C,R3*%
X131500000Y-67675000D03*
X131500000Y-69325000D03*
%TD*%
D21*
%TO.C,RV1*%
X135400000Y-71380000D03*
D22*
X134000000Y-74620000D03*
D21*
X132600000Y-71380000D03*
%TD*%
D23*
%TO.C,D1*%
X126500000Y-65000000D03*
X122500000Y-65000000D03*
%TD*%
D24*
%TO.C,C4*%
X124500000Y-75152651D03*
D25*
X124500000Y-71652651D03*
%TD*%
D24*
%TO.C,C1*%
X104500000Y-75152651D03*
D25*
X104500000Y-71652651D03*
%TD*%
D19*
%TO.C,R5*%
X134500000Y-67675000D03*
X134500000Y-69325000D03*
%TD*%
D18*
%TO.C,C2*%
X93275000Y-74500000D03*
X91725000Y-74500000D03*
%TD*%
D26*
%TO.C,D2*%
X106750000Y-62350000D03*
X106750000Y-65650000D03*
%TD*%
D27*
%TO.C,J4*%
X136775000Y-77500000D03*
D28*
X134235000Y-77500000D03*
%TD*%
D27*
%TO.C,J2*%
X94775000Y-77500000D03*
D28*
X92235000Y-77500000D03*
%TD*%
D27*
%TO.C,J3*%
X136775000Y-61500000D03*
D28*
X134235000Y-61500000D03*
%TD*%
D27*
%TO.C,J1*%
X94775000Y-61500000D03*
D28*
X92235000Y-61500000D03*
%TD*%
D29*
X92000000Y-64500000D03*
X129000000Y-71500000D03*
X99000000Y-74500000D03*
X133500000Y-66000000D03*
X108500000Y-68000000D03*
X124500000Y-67500000D03*
X120500000Y-61000000D03*
X120500000Y-77500000D03*
X91000000Y-73000000D03*
X98500000Y-64500000D03*
X94500000Y-69500000D03*
X108500000Y-77500000D03*
X138000000Y-72000000D03*
X129000000Y-67500000D03*
X108500000Y-61000000D03*
X120500000Y-68000000D03*
X98750000Y-71000000D03*
X130250000Y-69750000D03*
X94500000Y-68250000D03*
X103000000Y-68250000D03*
M02*
